NotoSerifDisplay-CondensedLightItalic.ufo
<glyph name="exclam" format="2">
  <advance width="205"/>
  <unicode hex="0021"/>
  <outline>
    <contour>
      <point x="68" y="187" type="line"/>
      <point x="84" y="187" type="line"/>
      <point x="204" y="714" type="line"/>
      <point x="174" y="714" type="line"/>
    </contour>
    <contour>
      <point x="40" y="-5" type="curve" smooth="yes"/>
      <point x="59" y="-5"/>
      <point x="66" y="29"/>
      <point x="66" y="45" type="curve" smooth="yes"/>
      <point x="66" y="63"/>
      <point x="61" y="72"/>
      <point x="51" y="72" type="curve" smooth="yes"/>
      <point x="33" y="72"/>
      <point x="24" y="42"/>
      <point x="24" y="23" type="curve" smooth="yes"/>
      <point x="24" y="2"/>
      <point x="31" y="-5"/>
    </contour>
  </outline>
</glyph>
<glyph name="numbersign" format="2">
  <advance width="440"/>
  <unicode hex="0023"/>
  <outline>
    <contour>
      <point x="57" y="0" type="line"/>
      <point x="66" y="0" type="line"/>
      <point x="129" y="228" type="line"/>
      <point x="277" y="228" type="line"/>
      <point x="214" y="0" type="line"/>
      <point x="223" y="0" type="line"/>
      <point x="286" y="228" type="line"/>
      <point x="384" y="228" type="line"/>
      <point x="386" y="238" type="line"/>
      <point x="289" y="238" type="line"/>
      <point x="358" y="490" type="line"/>
      <point x="455" y="490" type="line"/>
      <point x="457" y="500" type="line"/>
      <point x="361" y="500" type="line"/>
      <point x="420" y="714" type="line"/>
      <point x="410" y="714" type="line"/>
      <point x="351" y="500" type="line"/>
      <point x="204" y="500" type="line"/>
      <point x="263" y="714" type="line"/>
      <point x="253" y="714" type="line"/>
      <point x="194" y="500" type="line"/>
      <point x="97" y="500" type="line"/>
      <point x="95" y="490" type="line"/>
      <point x="192" y="490" type="line"/>
      <point x="122" y="238" type="line"/>
      <point x="25" y="238" type="line"/>
      <point x="23" y="228" type="line"/>
      <point x="120" y="228" type="line"/>
    </contour>
    <contour>
      <point x="132" y="238" type="line"/>
      <point x="201" y="490" type="line"/>
      <point x="349" y="490" type="line"/>
      <point x="279" y="238" type="line"/>
    </contour>
  </outline>
</glyph>
<glyph name="dollar" format="2">
  <advance width="424"/>
  <unicode hex="0024"/>
  <outline>
    <contour>
      <point x="145" y="-79" type="line"/>
      <point x="155" y="-79" type="line"/>
      <point x="179" y="33" type="line"/>
      <point x="287" y="34"/>
      <point x="367" y="89"/>
      <point x="367" y="206" type="curve" smooth="yes"/>
      <point x="367" y="267"/>
      <point x="345" y="297"/>
      <point x="267" y="361" type="curve" smooth="yes"/>
      <point x="251" y="374" type="line"/>
      <point x="315" y="673" type="line"/>
      <point x="390" y="670"/>
      <point x="404" y="616"/>
      <point x="404" y="550" type="curve"/>
      <point x="422" y="550"/>
      <point x="431" y="560"/>
      <point x="431" y="583" type="curve" smooth="yes"/>
      <point x="431" y="625"/>
      <point x="401" y="678"/>
      <point x="316" y="682" type="curve"/>
      <point x="333" y="760" type="line"/>
      <point x="323" y="760" type="line"/>
      <point x="306" y="682" type="line"/>
      <point x="200" y="681"/>
      <point x="136" y="605"/>
      <point x="136" y="509" type="curve" smooth="yes"/>
      <point x="136" y="436"/>
      <point x="173" y="407"/>
      <point x="221" y="368" type="curve" smooth="yes"/>
      <point x="237" y="355" type="line"/>
      <point x="171" y="42" type="line"/>
      <point x="82" y="44"/>
      <point x="46" y="96"/>
      <point x="46" y="208" type="curve"/>
      <point x="32" y="206"/>
      <point x="19" y="200"/>
      <point x="19" y="163" type="curve" smooth="yes"/>
      <point x="19" y="95"/>
      <point x="62" y="37"/>
      <point x="169" y="33" type="curve"/>
    </contour>
    <contour>
      <point x="181" y="42" type="curve"/>
      <point x="245" y="347" type="line"/>
      <point x="321" y="285"/>
      <point x="341" y="258"/>
      <point x="341" y="200" type="curve" smooth="yes"/>
      <point x="341" y="99"/>
      <point x="276" y="45"/>
    </contour>
    <contour>
      <point x="243" y="383" type="line"/>
      <point x="182" y="434"/>
      <point x="159" y="461"/>
      <point x="159" y="518" type="curve" smooth="yes"/>
      <point x="159" y="608"/>
      <point x="217" y="670"/>
      <point x="305" y="673" type="curve"/>
    </contour>
  </outline>
</glyph>
<glyph name="percent" format="2">
  <advance width="693"/>
  <unicode hex="0025"/>
  <outline>
    <contour>
      <point x="145" y="0" type="line"/>
      <point x="157" y="0" type="line"/>
      <point x="592" y="714" type="line"/>
      <point x="580" y="714" type="line"/>
    </contour>
    <contour>
      <point x="160" y="283" type="curve" smooth="yes"/>
      <point x="270" y="283"/>
      <point x="323" y="471"/>
      <point x="323" y="579" type="curve" smooth="yes"/>
      <point x="323" y="666"/>
      <point x="297" y="721"/>
      <point x="238" y="721" type="curve" smooth="yes"/>
      <point x="130" y="721"/>
      <point x="76" y="538"/>
      <point x="76" y="432" type="curve" smooth="yes"/>
      <point x="76" y="328"/>
      <point x="109" y="283"/>
    </contour>
    <contour>
      <point x="160" y="293" type="curve" smooth="yes"/>
      <point x="123" y="293"/>
      <point x="103" y="331"/>
      <point x="103" y="423" type="curve" smooth="yes"/>
      <point x="103" y="519"/>
      <point x="148" y="711"/>
      <point x="236" y="711" type="curve" smooth="yes"/>
      <point x="273" y="711"/>
      <point x="296" y="679"/>
      <point x="296" y="587" type="curve" smooth="yes"/>
      <point x="296" y="472"/>
      <point x="251" y="293"/>
    </contour>
    <contour>
      <point x="492" y="-6" type="curve" smooth="yes"/>
      <point x="602" y="-6"/>
      <point x="655" y="179"/>
      <point x="655" y="290" type="curve" smooth="yes"/>
      <point x="655" y="377"/>
      <point x="629" y="432"/>
      <point x="570" y="432" type="curve" smooth="yes"/>
      <point x="462" y="432"/>
      <point x="408" y="249"/>
      <point x="408" y="143" type="curve" smooth="yes"/>
      <point x="408" y="39"/>
      <point x="441" y="-6"/>
    </contour>
    <contour>
      <point x="492" y="4" type="curve" smooth="yes"/>
      <point x="455" y="4"/>
      <point x="435" y="42"/>
      <point x="435" y="134" type="curve" smooth="yes"/>
      <point x="435" y="230"/>
      <point x="480" y="422"/>
      <point x="568" y="422" type="curve" smooth="yes"/>
      <point x="605" y="422"/>
      <point x="628" y="390"/>
      <point x="628" y="298" type="curve" smooth="yes"/>
      <point x="628" y="183"/>
      <point x="583" y="4"/>
    </contour>
  </outline>
</glyph>
<glyph name="ampersand" format="2">
  <advance width="540"/>
  <unicode hex="0026"/>
  <outline>
    <contour>
      <point x="160" y="-10" type="curve" smooth="yes"/>
      <point x="242" y="-10"/>
      <point x="301" y="43"/>
      <point x="343" y="111" type="curve"/>
      <point x="401" y="0" type="line"/>
      <point x="478" y="0" type="line"/>
      <point x="480" y="10" type="line"/>
      <point x="460" y="10" type="line" smooth="yes"/>
      <point x="430" y="10"/>
      <point x="424" y="13"/>
      <point x="408" y="44" type="curve" smooth="yes"/>
      <point x="359" y="138" type="line"/>
      <point x="397" y="211"/>
      <point x="421" y="295"/>
      <point x="437" y="352" type="curve" smooth="yes"/>
      <point x="447" y="388"/>
      <point x="451" y="397"/>
      <point x="492" y="397" type="curve" smooth="yes"/>
      <point x="535" y="397" type="line"/>
      <point x="538" y="407" type="line"/>
      <point x="435" y="407" type="line"/>
      <point x="424" y="355" type="line" smooth="yes"/>
      <point x="411" y="292"/>
      <point x="386" y="216"/>
      <point x="352" y="151" type="curve"/>
      <point x="223" y="398" type="line"/>
      <point x="337" y="455"/>
      <point x="421" y="503"/>
      <point x="421" y="605" type="curve" smooth="yes"/>
      <point x="421" y="667"/>
      <point x="391" y="724"/>
      <point x="305" y="724" type="curve" smooth="yes"/>
      <point x="206" y="724"/>
      <point x="146" y="650"/>
      <point x="146" y="557" type="curve" smooth="yes"/>
      <point x="146" y="511"/>
      <point x="161" y="461"/>
      <point x="194" y="397" type="curve"/>
      <point x="98" y="346"/>
      <point x="17" y="290"/>
      <point x="17" y="161" type="curve" smooth="yes"/>
      <point x="17" y="65"/>
      <point x="62" y="-10"/>
    </contour>
    <contour>
      <point x="163" y="0" type="curve" smooth="yes"/>
      <point x="83" y="0"/>
      <point x="45" y="66"/>
      <point x="45" y="161" type="curve" smooth="yes"/>
      <point x="45" y="285"/>
      <point x="111" y="340"/>
      <point x="199" y="387" type="curve"/>
      <point x="336" y="124" type="line"/>
      <point x="293" y="53"/>
      <point x="235" y="0"/>
    </contour>
    <contour>
      <point x="218" y="408" type="curve"/>
      <point x="184" y="475"/>
      <point x="173" y="517"/>
      <point x="173" y="557" type="curve" smooth="yes"/>
      <point x="173" y="645"/>
      <point x="219" y="714"/>
      <point x="303" y="714" type="curve" smooth="yes"/>
      <point x="367" y="714"/>
      <point x="394" y="673"/>
      <point x="394" y="608" type="curve" smooth="yes"/>
      <point x="394" y="506"/>
      <point x="329" y="466"/>
    </contour>
  </outline>
</glyph>
<glyph name="parenleft" format="2">
  <advance width="221"/>
  <unicode hex="0028"/>
  <outline>
    <contour>
      <point x="107" y="-114" type="curve"/>
      <point x="110" y="-105" type="line"/>
      <point x="68" y="-61"/>
      <point x="51" y="44"/>
      <point x="51" y="149" type="curve" smooth="yes"/>
      <point x="51" y="371"/>
      <point x="128" y="641"/>
      <point x="289" y="734" type="curve"/>
      <point x="293" y="744" type="line"/>
      <point x="108" y="650"/>
      <point x="26" y="378"/>
      <point x="26" y="158" type="curve" smooth="yes"/>
      <point x="26" y="36"/>
      <point x="51" y="-64"/>
    </contour>
  </outline>
</glyph>
<glyph name="parenright" format="2">
  <advance width="212"/>
  <unicode hex="0029"/>
  <outline>
    <contour>
      <point x="-57" y="-114" type="line"/>
      <point x="128" y="-20"/>
      <point x="210" y="252"/>
      <point x="210" y="472" type="curve" smooth="yes"/>
      <point x="210" y="594"/>
      <point x="185" y="694"/>
      <point x="129" y="744" type="curve"/>
      <point x="126" y="735" type="line"/>
      <point x="168" y="691"/>
      <point x="185" y="586"/>
      <point x="185" y="481" type="curve" smooth="yes"/>
      <point x="185" y="259"/>
      <point x="108" y="-11"/>
      <point x="-53" y="-104" type="curve"/>
    </contour>
  </outline>
</glyph>
<glyph name="asterisk" format="2">
  <advance width="318"/>
  <unicode hex="002A"/>
  <outline>
    <contour>
      <point x="214" y="436" type="line"/>
      <point x="230" y="588" type="line"/>
      <point x="324" y="486" type="line"/>
      <point x="346" y="511" type="line"/>
      <point x="234" y="597" type="line"/>
      <point x="372" y="630" type="line"/>
      <point x="361" y="662" type="line"/>
      <point x="235" y="607" type="line"/>
      <point x="281" y="753" type="line"/>
      <point x="246" y="760" type="line"/>
      <point x="227" y="609" type="line"/>
      <point x="134" y="711" type="line"/>
      <point x="112" y="685" type="line"/>
      <point x="224" y="599" type="line"/>
      <point x="86" y="566" type="line"/>
      <point x="97" y="534" type="line"/>
      <point x="223" y="590" type="line"/>
      <point x="179" y="443" type="line"/>
    </contour>
  </outline>
</glyph>
<glyph name="plus" format="2">
  <advance width="425"/>
  <unicode hex="002B"/>
  <outline>
    <contour>
      <point x="222" y="143" type="line"/>
      <point x="242" y="143" type="line"/>
      <point x="242" y="348" type="line"/>
      <point x="394" y="348" type="line"/>
      <point x="394" y="368" type="line"/>
      <point x="242" y="368" type="line"/>
      <point x="242" y="572" type="line"/>
      <point x="222" y="572" type="line"/>
      <point x="222" y="368" type="line"/>
      <point x="69" y="368" type="line"/>
      <point x="69" y="348" type="line"/>
      <point x="222" y="348" type="line"/>
    </contour>
  </outline>
</glyph>
<glyph name="comma" format="2">
  <advance width="149"/>
  <unicode hex="002C"/>
  <outline>
    <contour>
      <point x="-34" y="-140" type="line"/>
      <point x="51" y="-113"/>
      <point x="71" y="-38"/>
      <point x="71" y="20" type="curve" smooth="yes"/>
      <point x="71" y="53"/>
      <point x="58" y="73"/>
      <point x="38" y="73" type="curve" smooth="yes"/>
      <point x="18" y="73"/>
      <point x="9" y="59"/>
      <point x="9" y="42" type="curve" smooth="yes"/>
      <point x="9" y="15"/>
      <point x="49" y="8"/>
      <point x="49" y="-17" type="curve" smooth="yes"/>
      <point x="49" y="-38"/>
      <point x="35" y="-110"/>
      <point x="-35" y="-131" type="curve"/>
    </contour>
  </outline>
</glyph>
<glyph name="one" format="2">
  <advance width="424"/>
  <unicode hex="0031"/>
  <outline>
    <contour>
      <point x="35" y="0" type="line"/>
      <point x="282" y="0" type="line"/>
      <point x="285" y="10" type="line"/>
      <point x="222" y="10" type="line" smooth="yes"/>
      <point x="193" y="10"/>
      <point x="183" y="14"/>
      <point x="183" y="29" type="curve" smooth="yes"/>
      <point x="183" y="38"/>
      <point x="185" y="56"/>
      <point x="189" y="75" type="curve" smooth="yes"/>
      <point x="325" y="718" type="line"/>
      <point x="317" y="718" type="line"/>
      <point x="251" y="660" type="line" smooth="yes"/>
      <point x="191" y="607"/>
      <point x="174" y="600"/>
      <point x="133" y="600" type="curve"/>
      <point x="133" y="588"/>
      <point x="135" y="581"/>
      <point x="154" y="581" type="curve" smooth="yes"/>
      <point x="186" y="581"/>
      <point x="224" y="615"/>
      <point x="294" y="687" type="curve"/>
      <point x="295" y="687" type="line"/>
      <point x="288" y="658"/>
      <point x="275" y="616"/>
      <point x="250" y="497" type="curve" smooth="yes"/>
      <point x="157" y="57" type="line" smooth="yes"/>
      <point x="148" y="13"/>
      <point x="134" y="10"/>
      <point x="91" y="10" type="curve" smooth="yes"/>
      <point x="38" y="10" type="line"/>
    </contour>
  </outline>
</glyph>
<glyph name="four" format="2">
  <advance width="424"/>
  <unicode hex="0034"/>
  <outline>
    <contour>
      <point x="106" y="0" type="line"/>
      <point x="339" y="0" type="line"/>
      <point x="342" y="10" type="line"/>
      <point x="301" y="10" type="line" smooth="yes"/>
      <point x="269" y="10"/>
      <point x="258" y="13"/>
      <point x="258" y="37" type="curve" smooth="yes"/>
      <point x="258" y="44"/>
      <point x="260" y="59"/>
      <point x="263" y="74" type="curve" smooth="yes"/>
      <point x="398" y="714" type="line"/>
      <point x="376" y="714" type="line"/>
      <point x="16" y="231" type="line"/>
      <point x="12" y="214" type="line"/>
      <point x="408" y="214" type="line"/>
      <point x="414" y="239" type="line"/>
      <point x="39" y="239" type="line"/>
      <point x="40" y="243" type="line"/>
      <point x="289" y="581" type="line" smooth="yes"/>
      <point x="318" y="621"/>
      <point x="361" y="681"/>
      <point x="374" y="701" type="curve"/>
      <point x="357" y="639"/>
      <point x="341" y="575"/>
      <point x="326" y="506" type="curve" smooth="yes"/>
      <point x="235" y="74" type="line" smooth="yes"/>
      <point x="223" y="16"/>
      <point x="212" y="10"/>
      <point x="172" y="10" type="curve" smooth="yes"/>
      <point x="109" y="10" type="line"/>
    </contour>
  </outline>
</glyph>
<glyph name="five" format="2">
  <advance width="424"/>
  <unicode hex="0035"/>
  <outline>
    <contour>
      <point x="161" y="-10" type="curve" smooth="yes"/>
      <point x="282" y="-10"/>
      <point x="354" y="107"/>
      <point x="354" y="243" type="curve" smooth="yes"/>
      <point x="354" y="360"/>
      <point x="301" y="421"/>
      <point x="225" y="421" type="curve" smooth="yes"/>
      <point x="188" y="421"/>
      <point x="149" y="407"/>
      <point x="129" y="395" type="curve"/>
      <point x="213" y="689" type="line"/>
      <point x="383" y="689" type="line" smooth="yes"/>
      <point x="398" y="689"/>
      <point x="403" y="684"/>
      <point x="403" y="668" type="curve" smooth="yes"/>
      <point x="403" y="653"/>
      <point x="399" y="635"/>
      <point x="394" y="604" type="curve"/>
      <point x="404" y="604" type="line"/>
      <point x="429" y="714" type="line"/>
      <point x="207" y="714" type="line"/>
      <point x="112" y="385" type="line"/>
      <point x="122" y="383" type="line"/>
      <point x="146" y="398"/>
      <point x="181" y="409"/>
      <point x="213" y="409" type="curve" smooth="yes"/>
      <point x="295" y="409"/>
      <point x="326" y="334"/>
      <point x="326" y="238" type="curve" smooth="yes"/>
      <point x="326" y="93"/>
      <point x="255" y="0"/>
      <point x="163" y="0" type="curve" smooth="yes"/>
      <point x="84" y="0"/>
      <point x="52" y="70"/>
      <point x="56" y="148" type="curve"/>
      <point x="35" y="148"/>
      <point x="27" y="137"/>
      <point x="27" y="115" type="curve" smooth="yes"/>
      <point x="27" y="67"/>
      <point x="63" y="-10"/>
    </contour>
  </outline>
</glyph>
<glyph name="six" format="2">
  <advance width="424"/>
  <unicode hex="0036"/>
  <outline>
    <contour>
      <point x="194" y="-10" type="curve" smooth="yes"/>
      <point x="312" y="-10"/>
      <point x="372" y="137"/>
      <point x="372" y="260" type="curve" smooth="yes"/>
      <point x="372" y="360"/>
      <point x="332" y="431"/>
      <point x="253" y="431" type="curve" smooth="yes"/>
      <point x="200" y="431"/>
      <point x="148" y="400"/>
      <point x="115" y="361" type="curve"/>
      <point x="154" y="571"/>
      <point x="246" y="714"/>
      <point x="346" y="714" type="curve" smooth="yes"/>
      <point x="402" y="714"/>
      <point x="412" y="668"/>
      <point x="408" y="592" type="curve"/>
      <point x="428" y="592"/>
      <point x="438" y="605"/>
      <point x="438" y="633" type="curve" smooth="yes"/>
      <point x="438" y="682"/>
      <point x="406" y="724"/>
      <point x="343" y="724" type="curve" smooth="yes"/>
      <point x="195" y="724"/>
      <point x="70" y="489"/>
      <point x="70" y="218" type="curve" smooth="yes"/>
      <point x="70" y="52"/>
      <point x="117" y="-10"/>
    </contour>
    <contour>
      <point x="196" y="0" type="curve" smooth="yes"/>
      <point x="129" y="0"/>
      <point x="98" y="63"/>
      <point x="98" y="206" type="curve" smooth="yes"/>
      <point x="98" y="250"/>
      <point x="101" y="304"/>
      <point x="112" y="347" type="curve"/>
      <point x="155" y="399"/>
      <point x="206" y="418"/>
      <point x="246" y="418" type="curve" smooth="yes"/>
      <point x="307" y="418"/>
      <point x="344" y="373"/>
      <point x="344" y="259" type="curve" smooth="yes"/>
      <point x="344" y="118"/>
      <point x="287" y="0"/>
    </contour>
  </outline>
</glyph>
<glyph name="nine" format="2">
  <advance width="424"/>
  <unicode hex="0039"/>
  <outline>
    <contour>
      <point x="141" y="-10" type="curve" smooth="yes"/>
      <point x="316" y="-10"/>
      <point x="406" y="288"/>
      <point x="406" y="520" type="curve" smooth="yes"/>
      <point x="406" y="651"/>
      <point x="359" y="724"/>
      <point x="283" y="724" type="curve" smooth="yes"/>
      <point x="186" y="724"/>
      <point x="105" y="627"/>
      <point x="105" y="456" type="curve" smooth="yes"/>
      <point x="105" y="365"/>
      <point x="146" y="296"/>
      <point x="229" y="296" type="curve" smooth="yes"/>
      <point x="277" y="296"/>
      <point x="328" y="323"/>
      <point x="366" y="376" type="curve"/>
      <point x="328" y="158"/>
      <point x="250" y="0"/>
      <point x="144" y="0" type="curve" smooth="yes"/>
      <point x="70" y="0"/>
      <point x="65" y="52"/>
      <point x="65" y="121" type="curve"/>
      <point x="48" y="121"/>
      <point x="38" y="108"/>
      <point x="38" y="85" type="curve" smooth="yes"/>
      <point x="38" y="41"/>
      <point x="65" y="-10"/>
    </contour>
    <contour>
      <point x="231" y="306" type="curve" smooth="yes"/>
      <point x="156" y="306"/>
      <point x="131" y="383"/>
      <point x="131" y="458" type="curve" smooth="yes"/>
      <point x="131" y="625"/>
      <point x="196" y="714"/>
      <point x="283" y="714" type="curve" smooth="yes"/>
      <point x="351" y="714"/>
      <point x="380" y="641"/>
      <point x="380" y="524" type="curve" smooth="yes"/>
      <point x="380" y="498"/>
      <point x="374" y="427"/>
      <point x="368" y="393" type="curve"/>
      <point x="337" y="348"/>
      <point x="287" y="306"/>
    </contour>
  </outline>
</glyph>
<glyph name="colon" format="2">
  <advance width="158"/>
  <unicode hex="003A"/>
  <outline>
    <contour>
      <point x="21" y="-5" type="curve" smooth="yes"/>
      <point x="41" y="-5"/>
      <point x="49" y="22"/>
      <point x="49" y="44" type="curve" smooth="yes"/>
      <point x="49" y="59"/>
      <point x="43" y="72"/>
      <point x="29" y="72" type="curve" smooth="yes"/>
      <point x="10" y="72"/>
      <point x="2" y="46"/>
      <point x="2" y="23" type="curve" smooth="yes"/>
      <point x="2" y="4"/>
      <point x="10" y="-5"/>
    </contour>
    <contour>
      <point x="121" y="463" type="curve" smooth="yes"/>
      <point x="141" y="463"/>
      <point x="149" y="490"/>
      <point x="149" y="512" type="curve" smooth="yes"/>
      <point x="149" y="527"/>
      <point x="143" y="540"/>
      <point x="129" y="540" type="curve" smooth="yes"/>
      <point x="110" y="540"/>
      <point x="102" y="514"/>
      <point x="102" y="491" type="curve" smooth="yes"/>
      <point x="102" y="472"/>
      <point x="110" y="463"/>
    </contour>
  </outline>
</glyph>
<glyph name="semicolon" format="2">
  <advance width="158"/>
  <unicode hex="003B"/>
  <outline>
    <contour>
      <point x="-47" y="-131" type="curve"/>
      <point x="-46" y="-140" type="line"/>
      <point x="39" y="-113"/>
      <point x="59" y="-38"/>
      <point x="59" y="20" type="curve" smooth="yes"/>
      <point x="59" y="53"/>
      <point x="46" y="73"/>
      <point x="26" y="73" type="curve" smooth="yes"/>
      <point x="6" y="73"/>
      <point x="-3" y="59"/>
      <point x="-3" y="42" type="curve" smooth="yes"/>
      <point x="-3" y="15"/>
      <point x="37" y="8"/>
      <point x="37" y="-17" type="curve" smooth="yes"/>
      <point x="37" y="-38"/>
      <point x="23" y="-110"/>
    </contour>
    <contour>
      <point x="121" y="464" type="curve" smooth="yes"/>
      <point x="141" y="464"/>
      <point x="149" y="491"/>
      <point x="149" y="513" type="curve" smooth="yes"/>
      <point x="149" y="528"/>
      <point x="143" y="541"/>
      <point x="129" y="541" type="curve" smooth="yes"/>
      <point x="110" y="541"/>
      <point x="102" y="515"/>
      <point x="102" y="492" type="curve" smooth="yes"/>
      <point x="102" y="473"/>
      <point x="110" y="464"/>
    </contour>
  </outline>
</glyph>
<glyph name="greater" format="2">
  <advance width="425"/>
  <unicode hex="003E"/>
  <outline>
    <contour>
      <point x="97" y="119" type="line"/>
      <point x="414" y="347" type="line"/>
      <point x="414" y="367" type="line"/>
      <point x="97" y="595" type="line"/>
      <point x="97" y="571" type="line"/>
      <point x="396" y="357" type="line"/>
      <point x="97" y="143" type="line"/>
    </contour>
  </outline>
</glyph>
<glyph name="question" format="2">
  <advance width="355"/>
  <unicode hex="003F"/>
  <outline>
    <contour>
      <point x="141" y="328" type="curve"/>
      <point x="117" y="187" type="line"/>
      <point x="132" y="187" type="line"/>
      <point x="165" y="326" type="line"/>
      <point x="291" y="375"/>
      <point x="368" y="460"/>
      <point x="368" y="581" type="curve" smooth="yes"/>
      <point x="368" y="673"/>
      <point x="321" y="724"/>
      <point x="244" y="724" type="curve" smooth="yes"/>
      <point x="146" y="724"/>
      <point x="108" y="642"/>
      <point x="108" y="582" type="curve" smooth="yes"/>
      <point x="108" y="563"/>
      <point x="112" y="553"/>
      <point x="127" y="553" type="curve"/>
      <point x="137" y="637"/>
      <point x="158" y="714"/>
      <point x="243" y="714" type="curve" smooth="yes"/>
      <point x="304" y="714"/>
      <point x="342" y="675"/>
      <point x="342" y="589" type="curve" smooth="yes"/>
      <point x="342" y="469"/>
      <point x="280" y="373"/>
    </contour>
    <contour>
      <point x="98" y="-5" type="curve" smooth="yes"/>
      <point x="118" y="-5"/>
      <point x="126" y="22"/>
      <point x="126" y="44" type="curve" smooth="yes"/>
      <point x="126" y="59"/>
      <point x="120" y="72"/>
      <point x="106" y="72" type="curve" smooth="yes"/>
      <point x="87" y="72"/>
      <point x="79" y="46"/>
      <point x="79" y="23" type="curve" smooth="yes"/>
      <point x="79" y="4"/>
      <point x="87" y="-5"/>
    </contour>
  </outline>
</glyph>
<glyph name="B" format="2">
  <advance width="491"/>
  <unicode hex="0042"/>
  <anchor x="188" y="0" name="bottom"/>
  <anchor x="340" y="714" name="top"/>
  <anchor x="566" y="714" name="topright"/>
  <outline>
    <contour>
      <point x="-18" y="0" type="line"/>
      <point x="197" y="0" type="line" smooth="yes"/>
      <point x="352" y="0"/>
      <point x="420" y="95"/>
      <point x="420" y="229" type="curve" smooth="yes"/>
      <point x="420" y="320"/>
      <point x="362" y="362"/>
      <point x="297" y="374" type="curve"/>
      <point x="298" y="378" type="line"/>
      <point x="394" y="390"/>
      <point x="469" y="462"/>
      <point x="469" y="579" type="curve" smooth="yes"/>
      <point x="469" y="671"/>
      <point x="419" y="714"/>
      <point x="299" y="714" type="curve" smooth="yes"/>
      <point x="134" y="714" type="line"/>
      <point x="132" y="704" type="line"/>
      <point x="171" y="704" type="line" smooth="yes"/>
      <point x="193" y="704"/>
      <point x="205" y="699"/>
      <point x="205" y="685" type="curve" smooth="yes"/>
      <point x="205" y="681"/>
      <point x="204" y="676"/>
      <point x="203" y="670" type="curve" smooth="yes"/>
      <point x="70" y="42" type="line" smooth="yes"/>
      <point x="64" y="14"/>
      <point x="46" y="10"/>
      <point x="11" y="10" type="curve" smooth="yes"/>
      <point x="-15" y="10" type="line"/>
    </contour>
    <contour>
      <point x="91" y="10" type="line"/>
      <point x="168" y="372" type="line"/>
      <point x="236" y="372" type="line" smooth="yes"/>
      <point x="331" y="372"/>
      <point x="392" y="324"/>
      <point x="392" y="228" type="curve" smooth="yes"/>
      <point x="392" y="102"/>
      <point x="337" y="10"/>
      <point x="196" y="10" type="curve" smooth="yes"/>
    </contour>
    <contour>
      <point x="170" y="382" type="line"/>
      <point x="237" y="704" type="line"/>
      <point x="296" y="704" type="line" smooth="yes"/>
      <point x="393" y="704"/>
      <point x="440" y="666"/>
      <point x="440" y="574" type="curve" smooth="yes"/>
      <point x="440" y="484"/>
      <point x="395" y="382"/>
      <point x="237" y="382" type="curve" smooth="yes"/>
    </contour>
  </outline>
</glyph>
<glyph name="C" format="2">
  <advance width="459"/>
  <unicode hex="0043"/>
  <anchor x="205" y="0" name="bottom"/>
  <anchor x="347" y="714" name="top"/>
  <anchor x="534" y="714" name="topright"/>
  <outline>
    <contour>
      <point x="224" y="-10" type="curve" smooth="yes"/>
      <point x="338" y="-10"/>
      <point x="386" y="56"/>
      <point x="386" y="93" type="curve" smooth="yes"/>
      <point x="386" y="106"/>
      <point x="381" y="115"/>
      <point x="376" y="119" type="curve"/>
      <point x="353" y="41"/>
      <point x="302" y="0"/>
      <point x="226" y="0" type="curve" smooth="yes"/>
      <point x="145" y="0"/>
      <point x="78" y="88"/>
      <point x="78" y="240" type="curve" smooth="yes"/>
      <point x="78" y="494"/>
      <point x="203" y="712"/>
      <point x="355" y="712" type="curve" smooth="yes"/>
      <point x="431" y="712"/>
      <point x="459" y="651"/>
      <point x="459" y="557" type="curve"/>
      <point x="475" y="557"/>
      <point x="486" y="570"/>
      <point x="486" y="590" type="curve" smooth="yes"/>
      <point x="486" y="669"/>
      <point x="435" y="722"/>
      <point x="357" y="722" type="curve" smooth="yes"/>
      <point x="187" y="722"/>
      <point x="50" y="508"/>
      <point x="50" y="240" type="curve" smooth="yes"/>
      <point x="50" y="84"/>
      <point x="121" y="-10"/>
    </contour>
  </outline>
</glyph>
<glyph name="D" format="2">
  <advance width="534"/>
  <unicode hex="0044"/>
  <anchor x="212" y="0" name="bottom"/>
  <anchor x="307" y="357" name="center"/>
  <anchor x="364" y="714" name="top"/>
  <anchor x="610" y="714" name="topright"/>
  <outline>
    <contour>
      <point x="-18" y="0" type="line"/>
      <point x="187" y="0" type="line" smooth="yes"/>
      <point x="409" y="0"/>
      <point x="518" y="226"/>
      <point x="518" y="453" type="curve" smooth="yes"/>
      <point x="518" y="626"/>
      <point x="455" y="714"/>
      <point x="313" y="714" type="curve" smooth="yes"/>
      <point x="135" y="714" type="line"/>
      <point x="132" y="704" type="line"/>
      <point x="171" y="704" type="line" smooth="yes"/>
      <point x="191" y="704"/>
      <point x="205" y="699"/>
      <point x="205" y="684" type="curve" smooth="yes"/>
      <point x="205" y="681"/>
      <point x="205" y="678"/>
      <point x="203" y="668" type="curve" smooth="yes"/>
      <point x="73" y="55" type="line" smooth="yes"/>
      <point x="65" y="16"/>
      <point x="50" y="10"/>
      <point x="12" y="10" type="curve" smooth="yes"/>
      <point x="-15" y="10" type="line"/>
    </contour>
    <contour>
      <point x="90" y="10" type="line"/>
      <point x="237" y="704" type="line"/>
      <point x="313" y="704" type="line" smooth="yes"/>
      <point x="428" y="704"/>
      <point x="490" y="628"/>
      <point x="490" y="450" type="curve" smooth="yes"/>
      <point x="490" y="213"/>
      <point x="380" y="10"/>
      <point x="184" y="10" type="curve" smooth="yes"/>
    </contour>
  </outline>
</glyph>
<glyph name="E" format="2">
  <advance width="471"/>
  <unicode hex="0045"/>
  <anchor x="184" y="0" name="bottom"/>
  <anchor x="337" y="714" name="top"/>
  <anchor x="554" y="714" name="topright"/>
  <outline>
    <contour>
      <point x="-17" y="0" type="line"/>
      <point x="368" y="0" type="line"/>
      <point x="408" y="161" type="line"/>
      <point x="393" y="161" type="line"/>
      <point x="377" y="100" type="line" smooth="yes"/>
      <point x="356" y="18"/>
      <point x="345" y="10"/>
      <point x="296" y="10" type="curve" smooth="yes"/>
      <point x="90" y="10" type="line"/>
      <point x="166" y="370" type="line"/>
      <point x="367" y="370" type="line"/>
      <point x="370" y="380" type="line"/>
      <point x="170" y="380" type="line"/>
      <point x="237" y="704" type="line"/>
      <point x="421" y="704" type="line" smooth="yes"/>
      <point x="452" y="704"/>
      <point x="467" y="692"/>
      <point x="467" y="654" type="curve" smooth="yes"/>
      <point x="467" y="631"/>
      <point x="462" y="600"/>
      <point x="456" y="553" type="curve"/>
      <point x="466" y="553" type="line"/>
      <point x="498" y="714" type="line"/>
      <point x="134" y="714" type="line"/>
      <point x="132" y="704" type="line"/>
      <point x="173" y="704" type="line" smooth="yes"/>
      <point x="195" y="704"/>
      <point x="205" y="697"/>
      <point x="205" y="685" type="curve" smooth="yes"/>
      <point x="205" y="679"/>
      <point x="204" y="673"/>
      <point x="202" y="664" type="curve" smooth="yes"/>
      <point x="70" y="43" type="line" smooth="yes"/>
      <point x="66" y="22"/>
      <point x="53" y="10"/>
      <point x="15" y="10" type="curve" smooth="yes"/>
      <point x="-14" y="10" type="line"/>
    </contour>
  </outline>
</glyph>
<glyph name="F" format="2">
  <advance width="436"/>
  <unicode hex="0046"/>
  <anchor x="78" y="0" name="bottom"/>
  <anchor x="317" y="714" name="top"/>
  <anchor x="515" y="714" name="topright"/>
  <outline>
    <contour>
      <point x="-18" y="0" type="line"/>
      <point x="196" y="0" type="line"/>
      <point x="199" y="10" type="line"/>
      <point x="137" y="10" type="line" smooth="yes"/>
      <point x="111" y="10"/>
      <point x="96" y="12"/>
      <point x="96" y="31" type="curve" smooth="yes"/>
      <point x="96" y="35"/>
      <point x="97" y="40"/>
      <point x="98" y="47" type="curve" smooth="yes"/>
      <point x="161" y="346" type="line"/>
      <point x="356" y="346" type="line"/>
      <point x="358" y="356" type="line"/>
      <point x="164" y="356" type="line"/>
      <point x="237" y="704" type="line"/>
      <point x="414" y="704" type="line" smooth="yes"/>
      <point x="448" y="704"/>
      <point x="460" y="690"/>
      <point x="460" y="661" type="curve" smooth="yes"/>
      <point x="460" y="638"/>
      <point x="454" y="603"/>
      <point x="447" y="553" type="curve"/>
      <point x="457" y="553" type="line"/>
      <point x="488" y="714" type="line"/>
      <point x="135" y="714" type="line"/>
      <point x="132" y="704" type="line"/>
      <point x="168" y="704" type="line" smooth="yes"/>
      <point x="194" y="704"/>
      <point x="205" y="700"/>
      <point x="205" y="686" type="curve" smooth="yes"/>
      <point x="205" y="680"/>
      <point x="204" y="674"/>
      <point x="201" y="660" type="curve" smooth="yes"/>
      <point x="69" y="43" type="line" smooth="yes"/>
      <point x="63" y="14"/>
      <point x="46" y="10"/>
      <point x="13" y="10" type="curve" smooth="yes"/>
      <point x="-15" y="10" type="line"/>
    </contour>
  </outline>
</glyph>
<glyph name="G" format="2">
  <advance width="514"/>
  <unicode hex="0047"/>
  <anchor x="218" y="0" name="bottom"/>
  <anchor x="370" y="714" name="top"/>
  <anchor x="564" y="714" name="topright"/>
  <outline>
    <contour>
      <point x="239" y="-10" type="curve" smooth="yes"/>
      <point x="298" y="-10"/>
      <point x="345" y="5"/>
      <point x="396" y="36" type="curve"/>
      <point x="435" y="214" type="line" smooth="yes"/>
      <point x="453" y="297"/>
      <point x="456" y="301"/>
      <point x="485" y="301" type="curve" smooth="yes"/>
      <point x="506" y="301" type="line"/>
      <point x="508" y="311" type="line"/>
      <point x="355" y="311" type="line"/>
      <point x="353" y="301" type="line"/>
      <point x="386" y="301" type="line" smooth="yes"/>
      <point x="413" y="301"/>
      <point x="418" y="294"/>
      <point x="418" y="278" type="curve" smooth="yes"/>
      <point x="418" y="260"/>
      <point x="412" y="241"/>
      <point x="407" y="217" type="curve" smooth="yes"/>
      <point x="369" y="41" type="line"/>
      <point x="330" y="10"/>
      <point x="284" y="0"/>
      <point x="240" y="0" type="curve" smooth="yes"/>
      <point x="118" y="0"/>
      <point x="76" y="110"/>
      <point x="76" y="234" type="curve" smooth="yes"/>
      <point x="76" y="506"/>
      <point x="220" y="714"/>
      <point x="373" y="714" type="curve" smooth="yes"/>
      <point x="456" y="714"/>
      <point x="487" y="677"/>
      <point x="487" y="578" type="curve"/>
      <point x="503" y="578"/>
      <point x="514" y="591"/>
      <point x="514" y="610" type="curve" smooth="yes"/>
      <point x="514" y="684"/>
      <point x="463" y="722"/>
      <point x="375" y="722" type="curve" smooth="yes"/>
      <point x="201" y="722"/>
      <point x="48" y="514"/>
      <point x="48" y="234" type="curve" smooth="yes"/>
      <point x="48" y="83"/>
      <point x="111" y="-10"/>
    </contour>
  </outline>
</glyph>
<glyph name="H" format="2">
  <advance width="602"/>
  <unicode hex="0048"/>
  <anchor x="249" y="0" name="bottom"/>
  <anchor x="344" y="357" name="center"/>
  <anchor x="401" y="714" name="top"/>
  <anchor x="682" y="714" name="topright"/>
  <outline>
    <contour>
      <point x="-18" y="0" type="line"/>
      <point x="170" y="0" type="line"/>
      <point x="172" y="10" type="line"/>
      <point x="142" y="10" type="line" smooth="yes"/>
      <point x="113" y="10"/>
      <point x="98" y="15"/>
      <point x="98" y="31" type="curve" smooth="yes"/>
      <point x="98" y="37"/>
      <point x="99" y="44"/>
      <point x="100" y="49" type="curve" smooth="yes"/>
      <point x="168" y="369" type="line"/>
      <point x="478" y="369" type="line"/>
      <point x="410" y="52" type="line" smooth="yes"/>
      <point x="403" y="18"/>
      <point x="388" y="10"/>
      <point x="350" y="10" type="curve" smooth="yes"/>
      <point x="320" y="10" type="line"/>
      <point x="318" y="0" type="line"/>
      <point x="506" y="0" type="line"/>
      <point x="508" y="10" type="line"/>
      <point x="480" y="10" type="line" smooth="yes"/>
      <point x="458" y="10"/>
      <point x="438" y="13"/>
      <point x="438" y="38" type="curve" smooth="yes"/>
      <point x="438" y="44"/>
      <point x="439" y="49"/>
      <point x="440" y="56" type="curve" smooth="yes"/>
      <point x="564" y="645" type="line" smooth="yes"/>
      <point x="575" y="696"/>
      <point x="591" y="704"/>
      <point x="629" y="704" type="curve" smooth="yes"/>
      <point x="656" y="704" type="line"/>
      <point x="658" y="714" type="line"/>
      <point x="470" y="714" type="line"/>
      <point x="468" y="704" type="line"/>
      <point x="501" y="704" type="line" smooth="yes"/>
      <point x="529" y="704"/>
      <point x="541" y="698"/>
      <point x="541" y="682" type="curve" smooth="yes"/>
      <point x="541" y="675"/>
      <point x="540" y="667"/>
      <point x="537" y="652" type="curve" smooth="yes"/>
      <point x="480" y="379" type="line"/>
      <point x="169" y="379" type="line"/>
      <point x="230" y="662" type="line" smooth="yes"/>
      <point x="237" y="696"/>
      <point x="253" y="704"/>
      <point x="291" y="704" type="curve" smooth="yes"/>
      <point x="320" y="704" type="line"/>
      <point x="322" y="714" type="line"/>
      <point x="134" y="714" type="line"/>
      <point x="132" y="704" type="line"/>
      <point x="163" y="704" type="line" smooth="yes"/>
      <point x="191" y="704"/>
      <point x="204" y="697"/>
      <point x="204" y="682" type="curve" smooth="yes"/>
      <point x="204" y="678"/>
      <point x="202" y="669"/>
      <point x="200" y="659" type="curve" smooth="yes"/>
      <point x="72" y="49" type="line" smooth="yes"/>
      <point x="65" y="18"/>
      <point x="52" y="10"/>
      <point x="13" y="10" type="curve" smooth="yes"/>
      <point x="-16" y="10" type="line"/>
    </contour>
  </outline>
</glyph>
<glyph name="I" format="2">
  <advance width="264"/>
  <unicode hex="0049"/>
  <anchor x="78" y="0" name="bottom"/>
  <anchor x="224" y="714" name="top"/>
  <anchor x="339" y="714" name="topright"/>
  <outline>
    <contour>
      <point x="-18" y="0" type="line"/>
      <point x="168" y="0" type="line"/>
      <point x="170" y="10" type="line"/>
      <point x="143" y="10" type="line" smooth="yes"/>
      <point x="114" y="10"/>
      <point x="98" y="12"/>
      <point x="98" y="29" type="curve" smooth="yes"/>
      <point x="98" y="36"/>
      <point x="100" y="53"/>
      <point x="103" y="66" type="curve" smooth="yes"/>
      <point x="227" y="649" type="line" smooth="yes"/>
      <point x="237" y="698"/>
      <point x="250" y="704"/>
      <point x="288" y="704" type="curve" smooth="yes"/>
      <point x="318" y="704" type="line"/>
      <point x="320" y="714" type="line"/>
      <point x="134" y="714" type="line"/>
      <point x="132" y="704" type="line"/>
      <point x="161" y="704" type="line" smooth="yes"/>
      <point x="191" y="704"/>
      <point x="204" y="700"/>
      <point x="204" y="684" type="curve" smooth="yes"/>
      <point x="204" y="676"/>
      <point x="203" y="666"/>
      <point x="199" y="647" type="curve" smooth="yes"/>
      <point x="74" y="57" type="line" smooth="yes"/>
      <point x="65" y="14"/>
      <point x="53" y="10"/>
      <point x="14" y="10" type="curve" smooth="yes"/>
      <point x="-16" y="10" type="line"/>
    </contour>
  </outline>
</glyph>
<glyph name="K" format="2">
  <advance width="519"/>
  <unicode hex="004B"/>
  <anchor x="205" y="0" name="bottom"/>
  <anchor x="357" y="714" name="top"/>
  <anchor x="594" y="714" name="topright"/>
  <outline>
    <contour>
      <point x="-18" y="0" type="line"/>
      <point x="168" y="0" type="line"/>
      <point x="170" y="10" type="line"/>
      <point x="143" y="10" type="line" smooth="yes"/>
      <point x="115" y="10"/>
      <point x="102" y="19"/>
      <point x="102" y="38" type="curve" smooth="yes"/>
      <point x="102" y="49"/>
      <point x="105" y="63"/>
      <point x="109" y="83" type="curve" smooth="yes"/>
      <point x="149" y="276" type="line"/>
      <point x="262" y="395" type="line"/>
      <point x="252" y="397" type="line"/>
      <point x="350" y="61" type="line" smooth="yes"/>
      <point x="364" y="13"/>
      <point x="388" y="0"/>
      <point x="434" y="0" type="curve" smooth="yes"/>
      <point x="454" y="0" type="line"/>
      <point x="457" y="10" type="line"/>
      <point x="436" y="10" type="line" smooth="yes"/>
      <point x="405" y="10"/>
      <point x="390" y="27"/>
      <point x="379" y="64" type="curve" smooth="yes"/>
      <point x="274" y="415" type="line"/>
      <point x="266" y="400" type="line"/>
      <point x="450" y="596" type="line" smooth="yes"/>
      <point x="542" y="694"/>
      <point x="545" y="704"/>
      <point x="584" y="704" type="curve"/>
      <point x="586" y="714" type="line"/>
      <point x="453" y="714" type="line"/>
      <point x="451" y="704" type="line"/>
      <point x="485" y="704"/>
      <point x="502" y="702"/>
      <point x="502" y="685" type="curve" smooth="yes"/>
      <point x="502" y="668"/>
      <point x="487" y="653"/>
      <point x="464" y="628" type="curve" smooth="yes"/>
      <point x="152" y="296" type="line"/>
      <point x="228" y="651" type="line" smooth="yes"/>
      <point x="239" y="700"/>
      <point x="253" y="704"/>
      <point x="291" y="704" type="curve" smooth="yes"/>
      <point x="318" y="704" type="line"/>
      <point x="320" y="714" type="line"/>
      <point x="134" y="714" type="line"/>
      <point x="132" y="704" type="line"/>
      <point x="163" y="704" type="line" smooth="yes"/>
      <point x="191" y="704"/>
      <point x="203" y="695"/>
      <point x="203" y="677" type="curve" smooth="yes"/>
      <point x="203" y="671"/>
      <point x="202" y="663"/>
      <point x="200" y="655" type="curve" smooth="yes"/>
      <point x="78" y="77" type="line" smooth="yes"/>
      <point x="66" y="21"/>
      <point x="53" y="10"/>
      <point x="14" y="10" type="curve" smooth="yes"/>
      <point x="-16" y="10" type="line"/>
    </contour>
  </outline>
</glyph>
<glyph name="L" format="2">
  <advance width="455"/>
  <unicode hex="004C"/>
  <anchor x="178" y="0" name="bottom"/>
  <anchor x="273" y="357" name="center"/>
  <anchor x="229" y="714" name="top"/>
  <anchor x="461" y="714" name="topright"/>
  <outline>
    <contour>
      <point x="-18" y="0" type="line"/>
      <point x="362" y="0" type="line"/>
      <point x="412" y="205" type="line"/>
      <point x="401" y="205" type="line"/>
      <point x="377" y="113" type="line" smooth="yes"/>
      <point x="356" y="31"/>
      <point x="343" y="10"/>
      <point x="295" y="10" type="curve" smooth="yes"/>
      <point x="90" y="10" type="line"/>
      <point x="227" y="654" type="line" smooth="yes"/>
      <point x="235" y="694"/>
      <point x="250" y="704"/>
      <point x="288" y="704" type="curve" smooth="yes"/>
      <point x="314" y="704" type="line"/>
      <point x="317" y="714" type="line"/>
      <point x="135" y="714" type="line"/>
      <point x="132" y="704" type="line"/>
      <point x="160" y="704" type="line" smooth="yes"/>
      <point x="185" y="704"/>
      <point x="203" y="701"/>
      <point x="203" y="683" type="curve" smooth="yes"/>
      <point x="203" y="678"/>
      <point x="202" y="666"/>
      <point x="199" y="654" type="curve" smooth="yes"/>
      <point x="78" y="84" type="line" smooth="yes"/>
      <point x="63" y="14"/>
      <point x="54" y="10"/>
      <point x="11" y="10" type="curve" smooth="yes"/>
      <point x="-15" y="10" type="line"/>
    </contour>
  </outline>
</glyph>
<glyph name="M" format="2">
  <advance width="735"/>
  <unicode hex="004D"/>
  <anchor x="311" y="0" name="bottom"/>
  <anchor x="439" y="714" name="top"/>
  <anchor x="807" y="714" name="topright"/>
  <outline>
    <contour>
      <point x="-18" y="0" type="line"/>
      <point x="168" y="0" type="line"/>
      <point x="170" y="10" type="line"/>
      <point x="132" y="10" type="line" smooth="yes"/>
      <point x="103" y="10"/>
      <point x="91" y="19"/>
      <point x="91" y="36" type="curve" smooth="yes"/>
      <point x="91" y="45"/>
      <point x="93" y="54"/>
      <point x="95" y="65" type="curve" smooth="yes"/>
      <point x="227" y="684" type="line"/>
      <point x="298" y="0" type="line"/>
      <point x="318" y="0" type="line"/>
      <point x="681" y="701" type="line"/>
      <point x="553" y="98" type="line" smooth="yes"/>
      <point x="536" y="20"/>
      <point x="526" y="10"/>
      <point x="489" y="10" type="curve" smooth="yes"/>
      <point x="465" y="10" type="line"/>
      <point x="463" y="0" type="line"/>
      <point x="639" y="0" type="line"/>
      <point x="641" y="10" type="line"/>
      <point x="611" y="10" type="line" smooth="yes"/>
      <point x="585" y="10"/>
      <point x="572" y="11"/>
      <point x="572" y="36" type="curve" smooth="yes"/>
      <point x="572" y="47"/>
      <point x="574" y="66"/>
      <point x="580" y="94" type="curve" smooth="yes"/>
      <point x="700" y="660" type="line" smooth="yes"/>
      <point x="708" y="697"/>
      <point x="721" y="704"/>
      <point x="759" y="704" type="curve" smooth="yes"/>
      <point x="781" y="704" type="line"/>
      <point x="783" y="714" type="line"/>
      <point x="676" y="714" type="line"/>
      <point x="323" y="31" type="line"/>
      <point x="252" y="714" type="line"/>
      <point x="135" y="714" type="line"/>
      <point x="133" y="704" type="line"/>
      <point x="171" y="704" type="line" smooth="yes"/>
      <point x="197" y="704"/>
      <point x="212" y="699"/>
      <point x="212" y="676" type="curve" smooth="yes"/>
      <point x="212" y="664"/>
      <point x="209" y="646"/>
      <point x="202" y="616" type="curve" smooth="yes"/>
      <point x="83" y="67" type="line" smooth="yes"/>
      <point x="73" y="21"/>
      <point x="59" y="10"/>
      <point x="22" y="10" type="curve" smooth="yes"/>
      <point x="-16" y="10" type="line"/>
    </contour>
  </outline>
</glyph>
<glyph name="N" format="2">
  <advance width="583"/>
  <unicode hex="004E"/>
  <anchor x="237" y="0" name="bottom"/>
  <anchor x="389" y="714" name="top"/>
  <anchor x="657" y="714" name="topright"/>
  <outline>
    <contour>
      <point x="-18" y="0" type="line"/>
      <point x="165" y="0" type="line"/>
      <point x="167" y="10" type="line"/>
      <point x="126" y="10" type="line" smooth="yes"/>
      <point x="100" y="10"/>
      <point x="89" y="17"/>
      <point x="89" y="32" type="curve" smooth="yes"/>
      <point x="89" y="41"/>
      <point x="92" y="55"/>
      <point x="96" y="75" type="curve" smooth="yes"/>
      <point x="227" y="693" type="line"/>
      <point x="391" y="0" type="line"/>
      <point x="409" y="0" type="line"/>
      <point x="542" y="616" type="line" smooth="yes"/>
      <point x="559" y="693"/>
      <point x="570" y="704"/>
      <point x="610" y="704" type="curve" smooth="yes"/>
      <point x="647" y="704" type="line"/>
      <point x="649" y="714" type="line"/>
      <point x="463" y="714" type="line"/>
      <point x="461" y="704" type="line"/>
      <point x="497" y="704" type="line" smooth="yes"/>
      <point x="524" y="704"/>
      <point x="539" y="696"/>
      <point x="539" y="674" type="curve" smooth="yes"/>
      <point x="539" y="663"/>
      <point x="537" y="649"/>
      <point x="530" y="616" type="curve" smooth="yes"/>
      <point x="406" y="37" type="line"/>
      <point x="247" y="714" type="line"/>
      <point x="134" y="714" type="line"/>
      <point x="132" y="704" type="line"/>
      <point x="181" y="704" type="line" smooth="yes"/>
      <point x="202" y="704"/>
      <point x="212" y="699"/>
      <point x="212" y="684" type="curve" smooth="yes"/>
      <point x="212" y="678"/>
      <point x="211" y="669"/>
      <point x="208" y="653" type="curve" smooth="yes"/>
      <point x="81" y="62" type="line" smooth="yes"/>
      <point x="71" y="16"/>
      <point x="58" y="10"/>
      <point x="20" y="10" type="curve" smooth="yes"/>
      <point x="-16" y="10" type="line"/>
    </contour>
  </outline>
</glyph>
<glyph name="O" format="2">
  <advance width="537"/>
  <unicode hex="004F"/>
  <anchor x="213" y="0" name="bottom"/>
  <anchor x="308" y="357" name="center"/>
  <anchor x="365" y="714" name="top"/>
  <anchor x="613" y="714" name="topright"/>
  <outline>
    <contour>
      <point x="230" y="-11" type="curve" smooth="yes"/>
      <point x="440" y="-11"/>
      <point x="527" y="303"/>
      <point x="527" y="486" type="curve" smooth="yes"/>
      <point x="527" y="661"/>
      <point x="439" y="724"/>
      <point x="345" y="724" type="curve" smooth="yes"/>
      <point x="145" y="724"/>
      <point x="46" y="426"/>
      <point x="46" y="230" type="curve" smooth="yes"/>
      <point x="46" y="62"/>
      <point x="129" y="-11"/>
    </contour>
    <contour>
      <point x="229" y="-1" type="curve" smooth="yes"/>
      <point x="139" y="-1"/>
      <point x="74" y="70"/>
      <point x="74" y="230" type="curve" smooth="yes"/>
      <point x="74" y="414"/>
      <point x="165" y="714"/>
      <point x="345" y="714" type="curve" smooth="yes"/>
      <point x="436" y="714"/>
      <point x="499" y="649"/>
      <point x="499" y="486" type="curve" smooth="yes"/>
      <point x="499" y="313"/>
      <point x="415" y="-1"/>
    </contour>
  </outline>
</glyph>
<glyph name="P" format="2">
  <advance width="452"/>
  <unicode hex="0050"/>
  <anchor x="79" y="0" name="bottom"/>
  <anchor x="325" y="714" name="top"/>
  <anchor x="529" y="714" name="topright"/>
  <outline>
    <contour>
      <point x="-18" y="0" type="line"/>
      <point x="182" y="0" type="line"/>
      <point x="184" y="10" type="line"/>
      <point x="141" y="10" type="line" smooth="yes"/>
      <point x="111" y="10"/>
      <point x="100" y="19"/>
      <point x="100" y="38" type="curve" smooth="yes"/>
      <point x="100" y="44"/>
      <point x="101" y="55"/>
      <point x="104" y="70" type="curve" smooth="yes"/>
      <point x="151" y="292" type="line"/>
      <point x="210" y="292" type="line" smooth="yes"/>
      <point x="429" y="292"/>
      <point x="464" y="461"/>
      <point x="464" y="551" type="curve" smooth="yes"/>
      <point x="464" y="661"/>
      <point x="412" y="714"/>
      <point x="306" y="714" type="curve" smooth="yes"/>
      <point x="134" y="714" type="line"/>
      <point x="132" y="704" type="line"/>
      <point x="158" y="704" type="line" smooth="yes"/>
      <point x="187" y="704"/>
      <point x="202" y="696"/>
      <point x="202" y="675" type="curve" smooth="yes"/>
      <point x="202" y="669"/>
      <point x="201" y="660"/>
      <point x="199" y="650" type="curve" smooth="yes"/>
      <point x="77" y="74" type="line" smooth="yes"/>
      <point x="66" y="22"/>
      <point x="51" y="10"/>
      <point x="13" y="10" type="curve" smooth="yes"/>
      <point x="-16" y="10" type="line"/>
    </contour>
    <contour>
      <point x="206" y="302" type="curve" smooth="yes"/>
      <point x="154" y="302" type="line"/>
      <point x="239" y="704" type="line"/>
      <point x="299" y="704" type="line" smooth="yes"/>
      <point x="398" y="704"/>
      <point x="436" y="656"/>
      <point x="436" y="552" type="curve" smooth="yes"/>
      <point x="436" y="407"/>
      <point x="362" y="302"/>
    </contour>
  </outline>
</glyph>
<glyph name="Q" format="2">
  <advance width="540"/>
  <unicode hex="0051"/>
  <anchor x="158" y="-209" name="bottom"/>
  <anchor x="308" y="357" name="center"/>
  <anchor x="354" y="714" name="top"/>
  <anchor x="572" y="714" name="topright"/>
  <outline>
    <contour>
      <point x="318" y="-208" type="curve" smooth="yes"/>
      <point x="347" y="-208"/>
      <point x="372" y="-202"/>
      <point x="400" y="-192" type="curve"/>
      <point x="397" y="-182" type="line"/>
      <point x="371" y="-190"/>
      <point x="345" y="-194"/>
      <point x="325" y="-194" type="curve" smooth="yes"/>
      <point x="262" y="-194"/>
      <point x="225" y="-146"/>
      <point x="224" y="-11" type="curve"/>
      <point x="405" y="-11"/>
      <point x="527" y="216"/>
      <point x="527" y="486" type="curve" smooth="yes"/>
      <point x="527" y="661"/>
      <point x="439" y="724"/>
      <point x="345" y="724" type="curve" smooth="yes"/>
      <point x="145" y="724"/>
      <point x="46" y="426"/>
      <point x="46" y="230" type="curve" smooth="yes"/>
      <point x="46" y="80"/>
      <point x="113" y="5"/>
      <point x="199" y="-9" type="curve"/>
      <point x="202" y="-147"/>
      <point x="234" y="-208"/>
    </contour>
    <contour>
      <point x="229" y="-1" type="curve" smooth="yes"/>
      <point x="139" y="-1"/>
      <point x="74" y="70"/>
      <point x="74" y="230" type="curve" smooth="yes"/>
      <point x="74" y="414"/>
      <point x="165" y="714"/>
      <point x="345" y="714" type="curve" smooth="yes"/>
      <point x="436" y="714"/>
      <point x="499" y="649"/>
      <point x="499" y="486" type="curve" smooth="yes"/>
      <point x="499" y="313"/>
      <point x="415" y="-1"/>
    </contour>
  </outline>
</glyph>
<glyph name="R" format="2">
  <advance width="474"/>
  <unicode hex="0052"/>
  <anchor x="190" y="0" name="bottom"/>
  <anchor x="322" y="714" name="top"/>
  <anchor x="562" y="714" name="topright"/>
  <outline>
    <contour>
      <point x="-18" y="0" type="line"/>
      <point x="182" y="0" type="line"/>
      <point x="184" y="10" type="line"/>
      <point x="142" y="10" type="line" smooth="yes"/>
      <point x="109" y="10"/>
      <point x="100" y="23"/>
      <point x="100" y="42" type="curve" smooth="yes"/>
      <point x="100" y="48"/>
      <point x="101" y="59"/>
      <point x="104" y="71" type="curve" smooth="yes"/>
      <point x="160" y="332" type="line"/>
      <point x="255" y="332" type="line"/>
      <point x="307" y="90" type="line" smooth="yes"/>
      <point x="324" y="13"/>
      <point x="335" y="0"/>
      <point x="382" y="0" type="curve" smooth="yes"/>
      <point x="402" y="0" type="line"/>
      <point x="404" y="10" type="line"/>
      <point x="393" y="10" type="line" smooth="yes"/>
      <point x="358" y="10"/>
      <point x="349" y="27"/>
      <point x="334" y="96" type="curve" smooth="yes"/>
      <point x="282" y="333" type="line"/>
      <point x="407" y="346"/>
      <point x="464" y="463"/>
      <point x="464" y="559" type="curve" smooth="yes"/>
      <point x="464" y="657"/>
      <point x="412" y="714"/>
      <point x="313" y="714" type="curve" smooth="yes"/>
      <point x="134" y="714" type="line"/>
      <point x="132" y="704" type="line"/>
      <point x="165" y="704" type="line" smooth="yes"/>
      <point x="190" y="704"/>
      <point x="202" y="700"/>
      <point x="202" y="681" type="curve" smooth="yes"/>
      <point x="202" y="675"/>
      <point x="201" y="660"/>
      <point x="198" y="646" type="curve" smooth="yes"/>
      <point x="77" y="75" type="line" smooth="yes"/>
      <point x="66" y="21"/>
      <point x="52" y="10"/>
      <point x="14" y="10" type="curve" smooth="yes"/>
      <point x="-16" y="10" type="line"/>
    </contour>
    <contour>
      <point x="163" y="342" type="line"/>
      <point x="239" y="704" type="line"/>
      <point x="313" y="704" type="line" smooth="yes"/>
      <point x="397" y="704"/>
      <point x="436" y="650"/>
      <point x="436" y="557" type="curve" smooth="yes"/>
      <point x="436" y="430"/>
      <point x="357" y="342"/>
      <point x="249" y="342" type="curve" smooth="yes"/>
    </contour>
  </outline>
</glyph>
<glyph name="S" format="2">
  <advance width="390"/>
  <unicode hex="0053"/>
  <anchor x="139" y="0" name="bottom"/>
  <anchor x="291" y="714" name="top"/>
  <anchor x="465" y="714" name="topright"/>
  <outline>
    <contour>
      <point x="148" y="-10" type="curve" smooth="yes"/>
      <point x="257" y="-10"/>
      <point x="338" y="52"/>
      <point x="338" y="185" type="curve" smooth="yes"/>
      <point x="338" y="254"/>
      <point x="316" y="289"/>
      <point x="221" y="377" type="curve" smooth="yes"/>
      <point x="158" y="435"/>
      <point x="128" y="465"/>
      <point x="128" y="539" type="curve" smooth="yes"/>
      <point x="128" y="643"/>
      <point x="188" y="714"/>
      <point x="279" y="714" type="curve" smooth="yes"/>
      <point x="365" y="714"/>
      <point x="381" y="652"/>
      <point x="376" y="575" type="curve"/>
      <point x="394" y="575"/>
      <point x="403" y="586"/>
      <point x="403" y="612" type="curve" smooth="yes"/>
      <point x="403" y="662"/>
      <point x="370" y="724"/>
      <point x="278" y="724" type="curve" smooth="yes"/>
      <point x="170" y="724"/>
      <point x="104" y="638"/>
      <point x="104" y="528" type="curve" smooth="yes"/>
      <point x="104" y="446"/>
      <point x="141" y="412"/>
      <point x="203" y="356" type="curve" smooth="yes"/>
      <point x="286" y="281"/>
      <point x="312" y="251"/>
      <point x="312" y="179" type="curve" smooth="yes"/>
      <point x="312" y="61"/>
      <point x="243" y="0"/>
      <point x="144" y="0" type="curve" smooth="yes"/>
      <point x="46" y="0"/>
      <point x="9" y="59"/>
      <point x="14" y="188" type="curve"/>
      <point x="0" y="186"/>
      <point x="-13" y="179"/>
      <point x="-13" y="137" type="curve" smooth="yes"/>
      <point x="-13" y="58"/>
      <point x="33" y="-10"/>
    </contour>
  </outline>
</glyph>
<glyph name="T" format="2">
  <advance width="446"/>
  <unicode hex="0054"/>
  <anchor x="171" y="0" name="bottom"/>
  <anchor x="266" y="357" name="center"/>
  <anchor x="323" y="714" name="top"/>
  <anchor x="526" y="714" name="topright"/>
  <outline>
    <contour>
      <point x="71" y="0" type="line"/>
      <point x="257" y="0" type="line"/>
      <point x="259" y="10" type="line"/>
      <point x="248" y="10" type="line" smooth="yes"/>
      <point x="211" y="10"/>
      <point x="189" y="12"/>
      <point x="189" y="37" type="curve" smooth="yes"/>
      <point x="189" y="52"/>
      <point x="192" y="67"/>
      <point x="196" y="85" type="curve" smooth="yes"/>
      <point x="327" y="703" type="line"/>
      <point x="437" y="703" type="line" smooth="yes"/>
      <point x="474" y="703"/>
      <point x="486" y="696"/>
      <point x="486" y="661" type="curve" smooth="yes"/>
      <point x="486" y="640"/>
      <point x="482" y="617"/>
      <point x="474" y="570" type="curve"/>
      <point x="485" y="570" type="line"/>
      <point x="513" y="714" type="line"/>
      <point x="124" y="714" type="line"/>
      <point x="89" y="570" type="line"/>
      <point x="100" y="570" type="line"/>
      <point x="114" y="626" type="line" smooth="yes"/>
      <point x="132" y="699"/>
      <point x="151" y="703"/>
      <point x="211" y="703" type="curve" smooth="yes"/>
      <point x="299" y="703" type="line"/>
      <point x="168" y="85" type="line" smooth="yes"/>
      <point x="153" y="12"/>
      <point x="136" y="10"/>
      <point x="86" y="10" type="curve" smooth="yes"/>
      <point x="72" y="10" type="line"/>
    </contour>
  </outline>
</glyph>
<glyph name="U" format="2">
  <advance width="560"/>
  <unicode hex="0055"/>
  <anchor x="223" y="0" name="bottom"/>
  <anchor x="375" y="714" name="top"/>
  <anchor x="668" y="714" name="topright"/>
  <outline>
    <contour>
      <point x="244" y="-10" type="curve" smooth="yes"/>
      <point x="369" y="-10"/>
      <point x="418" y="73"/>
      <point x="446" y="204" type="curve" smooth="yes"/>
      <point x="534" y="616" type="line" smooth="yes"/>
      <point x="551" y="698"/>
      <point x="564" y="704"/>
      <point x="602" y="704" type="curve" smooth="yes"/>
      <point x="638" y="704" type="line"/>
      <point x="640" y="714" type="line"/>
      <point x="452" y="714" type="line"/>
      <point x="450" y="704" type="line"/>
      <point x="482" y="704" type="line" smooth="yes"/>
      <point x="511" y="704"/>
      <point x="529" y="699"/>
      <point x="529" y="662" type="curve" smooth="yes"/>
      <point x="529" y="650"/>
      <point x="527" y="638"/>
      <point x="522" y="616" type="curve" smooth="yes"/>
      <point x="434" y="209" type="line" smooth="yes"/>
      <point x="412" y="107"/>
      <point x="369" y="4"/>
      <point x="248" y="4" type="curve" smooth="yes"/>
      <point x="162" y="4"/>
      <point x="117" y="57"/>
      <point x="117" y="146" type="curve" smooth="yes"/>
      <point x="117" y="169"/>
      <point x="120" y="211"/>
      <point x="132" y="268" type="curve" smooth="yes"/>
      <point x="206" y="616" type="line" smooth="yes"/>
      <point x="222" y="693"/>
      <point x="236" y="704"/>
      <point x="274" y="704" type="curve" smooth="yes"/>
      <point x="306" y="704" type="line"/>
      <point x="308" y="714" type="line"/>
      <point x="120" y="714" type="line"/>
      <point x="118" y="704" type="line"/>
      <point x="146" y="704" type="line" smooth="yes"/>
      <point x="174" y="704"/>
      <point x="186" y="696"/>
      <point x="186" y="673" type="curve" smooth="yes"/>
      <point x="186" y="664"/>
      <point x="184" y="644"/>
      <point x="178" y="616" type="curve" smooth="yes"/>
      <point x="104" y="267" type="line" smooth="yes"/>
      <point x="93" y="216"/>
      <point x="88" y="176"/>
      <point x="88" y="146" type="curve" smooth="yes"/>
      <point x="88" y="47"/>
      <point x="141" y="-10"/>
    </contour>
  </outline>
</glyph>
<glyph name="X" format="2">
  <advance width="453"/>
  <unicode hex="0058"/>
  <anchor x="169" y="0" name="bottom"/>
  <anchor x="321" y="714" name="top"/>
  <anchor x="558" y="714" name="topright"/>
  <outline>
    <contour>
      <point x="-49" y="0" type="line"/>
      <point x="110" y="0" type="line"/>
      <point x="113" y="10" type="line"/>
      <point x="91" y="10" type="line" smooth="yes"/>
      <point x="61" y="10"/>
      <point x="48" y="14"/>
      <point x="48" y="27" type="curve" smooth="yes"/>
      <point x="48" y="48"/>
      <point x="61" y="70"/>
      <point x="90" y="117" type="curve" smooth="yes"/>
      <point x="246" y="369" type="line"/>
      <point x="237" y="361" type="line"/>
      <point x="306" y="64" type="line" smooth="yes"/>
      <point x="308" y="54"/>
      <point x="310" y="45"/>
      <point x="310" y="35" type="curve" smooth="yes"/>
      <point x="310" y="16"/>
      <point x="294" y="10"/>
      <point x="264" y="10" type="curve" smooth="yes"/>
      <point x="234" y="10" type="line"/>
      <point x="232" y="0" type="line"/>
      <point x="391" y="0" type="line"/>
      <point x="393" y="10" type="line"/>
      <point x="378" y="10" type="line" smooth="yes"/>
      <point x="359" y="10"/>
      <point x="350" y="13"/>
      <point x="339" y="55" type="curve" smooth="yes"/>
      <point x="256" y="386" type="line"/>
      <point x="250" y="369" type="line"/>
      <point x="414" y="623" type="line" smooth="yes"/>
      <point x="463" y="698"/>
      <point x="473" y="704"/>
      <point x="509" y="704" type="curve" smooth="yes"/>
      <point x="520" y="704" type="line"/>
      <point x="522" y="714" type="line"/>
      <point x="374" y="714" type="line"/>
      <point x="372" y="704" type="line"/>
      <point x="387" y="704" type="line" smooth="yes"/>
      <point x="416" y="704"/>
      <point x="433" y="700"/>
      <point x="433" y="683" type="curve" smooth="yes"/>
      <point x="433" y="673"/>
      <point x="423" y="658"/>
      <point x="409" y="636" type="curve" smooth="yes"/>
      <point x="246" y="379" type="line"/>
      <point x="256" y="387" type="line"/>
      <point x="197" y="642" type="line" smooth="yes"/>
      <point x="193" y="659"/>
      <point x="190" y="673"/>
      <point x="190" y="683" type="curve" smooth="yes"/>
      <point x="190" y="697"/>
      <point x="196" y="704"/>
      <point x="217" y="704" type="curve" smooth="yes"/>
      <point x="255" y="704" type="line"/>
      <point x="257" y="714" type="line"/>
      <point x="100" y="714" type="line"/>
      <point x="98" y="704" type="line"/>
      <point x="117" y="704" type="line" smooth="yes"/>
      <point x="145" y="704"/>
      <point x="155" y="697"/>
      <point x="165" y="657" type="curve" smooth="yes"/>
      <point x="236" y="363" type="line"/>
      <point x="240" y="376" type="line"/>
      <point x="55" y="82" type="line" smooth="yes"/>
      <point x="15" y="19"/>
      <point x="0" y="10"/>
      <point x="-36" y="10" type="curve" smooth="yes"/>
      <point x="-46" y="10" type="line"/>
    </contour>
  </outline>
</glyph>
<glyph name="Y" format="2">
  <advance width="429"/>
  <unicode hex="0059"/>
  <anchor x="169" y="0" name="bottom"/>
  <anchor x="282" y="714" name="top"/>
  <anchor x="565" y="714" name="topright"/>
  <outline>
    <contour>
      <point x="58" y="0" type="line"/>
      <point x="244" y="0" type="line"/>
      <point x="246" y="10" type="line"/>
      <point x="217" y="10" type="line" smooth="yes"/>
      <point x="188" y="10"/>
      <point x="175" y="18"/>
      <point x="175" y="35" type="curve" smooth="yes"/>
      <point x="175" y="46"/>
      <point x="176" y="52"/>
      <point x="179" y="66" type="curve" smooth="yes"/>
      <point x="234" y="344" type="line"/>
      <point x="441" y="653" type="line" smooth="yes"/>
      <point x="472" y="699"/>
      <point x="480" y="704"/>
      <point x="506" y="704" type="curve" smooth="yes"/>
      <point x="531" y="704" type="line"/>
      <point x="534" y="714" type="line"/>
      <point x="362" y="714" type="line"/>
      <point x="359" y="704" type="line"/>
      <point x="414" y="704" type="line" smooth="yes"/>
      <point x="437" y="704"/>
      <point x="444" y="698"/>
      <point x="444" y="687" type="curve" smooth="yes"/>
      <point x="444" y="676"/>
      <point x="433" y="657"/>
      <point x="418" y="635" type="curve" smooth="yes"/>
      <point x="294" y="449" type="line" smooth="yes"/>
      <point x="266" y="406"/>
      <point x="245" y="377"/>
      <point x="229" y="354" type="curve"/>
      <point x="224" y="383"/>
      <point x="208" y="450"/>
      <point x="199" y="487" type="curve" smooth="yes"/>
      <point x="159" y="647" type="line" smooth="yes"/>
      <point x="155" y="661"/>
      <point x="153" y="673"/>
      <point x="153" y="682" type="curve" smooth="yes"/>
      <point x="153" y="699"/>
      <point x="163" y="704"/>
      <point x="185" y="704" type="curve" smooth="yes"/>
      <point x="239" y="704" type="line"/>
      <point x="242" y="714" type="line"/>
      <point x="85" y="714" type="line"/>
      <point x="83" y="704" type="line"/>
      <point x="93" y="704" type="line" smooth="yes"/>
      <point x="115" y="704"/>
      <point x="117" y="701"/>
      <point x="126" y="665" type="curve" smooth="yes"/>
      <point x="210" y="343" type="line"/>
      <point x="151" y="66" type="line" smooth="yes"/>
      <point x="142" y="22"/>
      <point x="127" y="10"/>
      <point x="89" y="10" type="curve" smooth="yes"/>
      <point x="60" y="10" type="line"/>
    </contour>
  </outline>
</glyph>
<glyph name="Z" format="2">
  <advance width="419"/>
  <unicode hex="005A"/>
  <anchor x="152" y="0" name="bottom"/>
  <anchor x="264" y="714" name="top"/>
  <anchor x="493" y="714" name="topright"/>
  <outline>
    <contour>
      <point x="-49" y="0" type="line"/>
      <point x="350" y="0" type="line"/>
      <point x="383" y="134" type="line"/>
      <point x="372" y="134" type="line"/>
      <point x="356" y="72" type="line" smooth="yes"/>
      <point x="345" y="31"/>
      <point x="332" y="10"/>
      <point x="292" y="10" type="curve" smooth="yes"/>
      <point x="-17" y="10" type="line"/>
      <point x="465" y="705" type="line"/>
      <point x="467" y="714" type="line"/>
      <point x="118" y="714" type="line"/>
      <point x="86" y="591" type="line"/>
      <point x="96" y="591" type="line"/>
      <point x="115" y="661" type="line" smooth="yes"/>
      <point x="125" y="699"/>
      <point x="145" y="704"/>
      <point x="192" y="704" type="curve" smooth="yes"/>
      <point x="435" y="704" type="line"/>
      <point x="-46" y="13" type="line"/>
    </contour>
  </outline>
</glyph>
<glyph name="backslash" format="2">
  <advance width="256"/>
  <unicode hex="005C"/>
  <outline>
    <contour>
      <point x="162" y="-121" type="line"/>
      <point x="173" y="-121" type="line"/>
      <point x="116" y="760" type="line"/>
      <point x="105" y="760" type="line"/>
    </contour>
  </outline>
</glyph>
<glyph name="bracketright" format="2">
  <advance width="220"/>
  <unicode hex="005D"/>
  <outline>
    <contour>
      <point x="-53" y="-128" type="line"/>
      <point x="76" y="-128" type="line"/>
      <point x="264" y="760" type="line"/>
      <point x="135" y="760" type="line"/>
      <point x="133" y="750" type="line"/>
      <point x="185" y="750" type="line" smooth="yes"/>
      <point x="217" y="750"/>
      <point x="229" y="748"/>
      <point x="229" y="731" type="curve" smooth="yes"/>
      <point x="229" y="724"/>
      <point x="228" y="719"/>
      <point x="226" y="711" type="curve" smooth="yes"/>
      <point x="64" y="-52" type="line" smooth="yes"/>
      <point x="51" y="-115"/>
      <point x="41" y="-118"/>
      <point x="-2" y="-118" type="curve" smooth="yes"/>
      <point x="-51" y="-118" type="line"/>
    </contour>
  </outline>
</glyph>
<glyph name="b" format="2">
  <advance width="389"/>
  <unicode hex="0062"/>
  <anchor x="140" y="0" name="bottom"/>
  <anchor x="302" y="760" name="top"/>
  <anchor x="474" y="760" name="topright"/>
  <outline>
    <contour>
      <point x="138" y="-10" type="curve" smooth="yes"/>
      <point x="270" y="-10"/>
      <point x="364" y="217"/>
      <point x="364" y="399" type="curve" smooth="yes"/>
      <point x="364" y="498"/>
      <point x="336" y="546"/>
      <point x="285" y="546" type="curve" smooth="yes"/>
      <point x="222" y="546"/>
      <point x="169" y="475"/>
      <point x="134" y="394" type="curve"/>
      <point x="130" y="394" type="line"/>
      <point x="137" y="423"/>
      <point x="143" y="439"/>
      <point x="155" y="496" type="curve" smooth="yes"/>
      <point x="211" y="760" type="line"/>
      <point x="115" y="760" type="line"/>
      <point x="112" y="750" type="line"/>
      <point x="138" y="750" type="line" smooth="yes"/>
      <point x="164" y="750"/>
      <point x="174" y="746"/>
      <point x="174" y="730" type="curve" smooth="yes"/>
      <point x="174" y="722"/>
      <point x="172" y="712"/>
      <point x="169" y="698" type="curve" smooth="yes"/>
      <point x="21" y="-3" type="line"/>
      <point x="29" y="-3" type="line"/>
      <point x="52" y="34" type="line"/>
      <point x="67" y="14"/>
      <point x="95" y="-10"/>
    </contour>
    <contour>
      <point x="134" y="0" type="curve" smooth="yes"/>
      <point x="98" y="0"/>
      <point x="73" y="21"/>
      <point x="59" y="46" type="curve"/>
      <point x="107" y="280" type="line" smooth="yes"/>
      <point x="135" y="416"/>
      <point x="209" y="530"/>
      <point x="279" y="530" type="curve" smooth="yes"/>
      <point x="308" y="530"/>
      <point x="336" y="509"/>
      <point x="336" y="409" type="curve" smooth="yes"/>
      <point x="336" y="242"/>
      <point x="258" y="0"/>
    </contour>
  </outline>
</glyph>
<glyph name="c" format="2">
  <advance width="346"/>
  <unicode hex="0063"/>
  <anchor x="136" y="0" name="bottom"/>
  <anchor x="248" y="536" name="top"/>
  <anchor x="382" y="536" name="topright"/>
  <outline>
    <contour>
      <point x="156" y="-10" type="curve" smooth="yes"/>
      <point x="232" y="-10"/>
      <point x="272" y="39"/>
      <point x="272" y="79" type="curve" smooth="yes"/>
      <point x="272" y="89"/>
      <point x="269" y="94"/>
      <point x="265" y="96" type="curve"/>
      <point x="245" y="34"/>
      <point x="209" y="0"/>
      <point x="157" y="0" type="curve" smooth="yes"/>
      <point x="100" y="0"/>
      <point x="60" y="62"/>
      <point x="60" y="177" type="curve" smooth="yes"/>
      <point x="60" y="344"/>
      <point x="140" y="536"/>
      <point x="251" y="536" type="curve" smooth="yes"/>
      <point x="297" y="536"/>
      <point x="323" y="512"/>
      <point x="327" y="448" type="curve" smooth="yes"/>
      <point x="328" y="437"/>
      <point x="328" y="425"/>
      <point x="327" y="411" type="curve"/>
      <point x="342" y="411"/>
      <point x="352" y="419"/>
      <point x="352" y="444" type="curve" smooth="yes"/>
      <point x="352" y="494"/>
      <point x="320" y="546"/>
      <point x="254" y="546" type="curve" smooth="yes"/>
      <point x="123" y="546"/>
      <point x="32" y="346"/>
      <point x="32" y="179" type="curve" smooth="yes"/>
      <point x="32" y="53"/>
      <point x="85" y="-10"/>
    </contour>
  </outline>
</glyph>
<glyph name="d" format="2">
  <advance width="396"/>
  <unicode hex="0064"/>
  <anchor x="129" y="0" name="bottom"/>
  <anchor x="243" y="268" name="center"/>
  <anchor x="291" y="760" name="top"/>
  <anchor x="473" y="760" name="topright"/>
  <outline>
    <contour>
      <point x="102" y="-10" type="curve" smooth="yes"/>
      <point x="151" y="-10"/>
      <point x="204" y="32"/>
      <point x="257" y="163" type="curve"/>
      <point x="260" y="163" type="line"/>
      <point x="253" y="124"/>
      <point x="248" y="94"/>
      <point x="248" y="67" type="curve" smooth="yes"/>
      <point x="248" y="16"/>
      <point x="263" y="-10"/>
      <point x="301" y="-10" type="curve" smooth="yes"/>
      <point x="330" y="-10"/>
      <point x="353" y="8"/>
      <point x="371" y="33" type="curve"/>
      <point x="365" y="40" type="line"/>
      <point x="344" y="14"/>
      <point x="327" y="0"/>
      <point x="306" y="0" type="curve" smooth="yes"/>
      <point x="283" y="0"/>
      <point x="270" y="15"/>
      <point x="270" y="62" type="curve" smooth="yes"/>
      <point x="270" y="97"/>
      <point x="281" y="157"/>
      <point x="290" y="200" type="curve" smooth="yes"/>
      <point x="409" y="760" type="line"/>
      <point x="309" y="760" type="line"/>
      <point x="306" y="750" type="line"/>
      <point x="335" y="750" type="line" smooth="yes"/>
      <point x="366" y="750"/>
      <point x="373" y="741"/>
      <point x="373" y="726" type="curve" smooth="yes"/>
      <point x="373" y="720"/>
      <point x="371" y="711"/>
      <point x="369" y="699" type="curve" smooth="yes"/>
      <point x="347" y="594" type="line" smooth="yes"/>
      <point x="343" y="575"/>
      <point x="335" y="538"/>
      <point x="330" y="507" type="curve"/>
      <point x="313" y="531"/>
      <point x="289" y="546"/>
      <point x="254" y="546" type="curve" smooth="yes"/>
      <point x="115" y="546"/>
      <point x="24" y="305"/>
      <point x="24" y="132" type="curve" smooth="yes"/>
      <point x="24" y="51"/>
      <point x="44" y="-10"/>
    </contour>
    <contour>
      <point x="109" y="4" type="curve" smooth="yes"/>
      <point x="74" y="4"/>
      <point x="52" y="41"/>
      <point x="52" y="125" type="curve" smooth="yes"/>
      <point x="52" y="286"/>
      <point x="133" y="536"/>
      <point x="254" y="536" type="curve" smooth="yes"/>
      <point x="283" y="536"/>
      <point x="313" y="521"/>
      <point x="325" y="492" type="curve"/>
      <point x="273" y="251" type="line" smooth="yes"/>
      <point x="255" y="167"/>
      <point x="182" y="4"/>
    </contour>
  </outline>
</glyph>
<glyph name="e" format="2">
  <advance width="340"/>
  <unicode hex="0065"/>
  <anchor x="128" y="0" name="bottom"/>
  <anchor x="242" y="536" name="top"/>
  <anchor x="375" y="536" name="topright"/>
  <outline>
    <contour>
      <point x="154" y="-10" type="curve" smooth="yes"/>
      <point x="222" y="-10"/>
      <point x="270" y="47"/>
      <point x="270" y="85" type="curve" smooth="yes"/>
      <point x="270" y="95"/>
      <point x="267" y="98"/>
      <point x="265" y="100" type="curve"/>
      <point x="246" y="47"/>
      <point x="205" y="0"/>
      <point x="156" y="0" type="curve" smooth="yes"/>
      <point x="96" y="0"/>
      <point x="60" y="70"/>
      <point x="60" y="169" type="curve" smooth="yes"/>
      <point x="60" y="202"/>
      <point x="64" y="240"/>
      <point x="66" y="248" type="curve"/>
      <point x="104" y="248" type="line" smooth="yes"/>
      <point x="228" y="248"/>
      <point x="329" y="319"/>
      <point x="329" y="441" type="curve" smooth="yes"/>
      <point x="329" y="508"/>
      <point x="299" y="546"/>
      <point x="244" y="546" type="curve" smooth="yes"/>
      <point x="113" y="546"/>
      <point x="32" y="328"/>
      <point x="32" y="174" type="curve" smooth="yes"/>
      <point x="32" y="54"/>
      <point x="81" y="-10"/>
    </contour>
    <contour>
      <point x="68" y="258" type="line"/>
      <point x="98" y="416"/>
      <point x="159" y="536"/>
      <point x="243" y="536" type="curve" smooth="yes"/>
      <point x="281" y="536"/>
      <point x="301" y="512"/>
      <point x="301" y="453" type="curve" smooth="yes"/>
      <point x="301" y="330"/>
      <point x="215" y="258"/>
      <point x="100" y="258" type="curve" smooth="yes"/>
    </contour>
  </outline>
</glyph>
<glyph name="g" format="2">
  <advance width="388"/>
  <unicode hex="0067"/>
  <anchor x="76" y="-240" name="bottom"/>
  <anchor x="241" y="536" name="top"/>
  <anchor x="458" y="536" name="topright"/>
  <outline>
    <contour>
      <point x="104" y="-240" type="curve" smooth="yes"/>
      <point x="241" y="-240"/>
      <point x="294" y="-148"/>
      <point x="294" y="-57" type="curve" smooth="yes"/>
      <point x="294" y="18"/>
      <point x="258" y="61"/>
      <point x="184" y="70" type="curve" smooth="yes"/>
      <point x="128" y="77" type="line" smooth="yes"/>
      <point x="94" y="81"/>
      <point x="72" y="92"/>
      <point x="72" y="121" type="curve" smooth="yes"/>
      <point x="72" y="150"/>
      <point x="94" y="173"/>
      <point x="136" y="194" type="curve"/>
      <point x="143" y="192"/>
      <point x="157" y="187"/>
      <point x="180" y="187" type="curve" smooth="yes"/>
      <point x="303" y="187"/>
      <point x="346" y="336"/>
      <point x="346" y="416" type="curve" smooth="yes"/>
      <point x="346" y="458"/>
      <point x="334" y="492"/>
      <point x="325" y="508" type="curve"/>
      <point x="347" y="537"/>
      <point x="365" y="556"/>
      <point x="381" y="556" type="curve" smooth="yes"/>
      <point x="394" y="556"/>
      <point x="398" y="542"/>
      <point x="398" y="508" type="curve"/>
      <point x="414" y="508"/>
      <point x="420" y="517"/>
      <point x="420" y="532" type="curve" smooth="yes"/>
      <point x="420" y="552"/>
      <point x="410" y="566"/>
      <point x="389" y="566" type="curve" smooth="yes"/>
      <point x="363" y="566"/>
      <point x="344" y="545"/>
      <point x="319" y="515" type="curve"/>
      <point x="303" y="536"/>
      <point x="280" y="546"/>
      <point x="248" y="546" type="curve" smooth="yes"/>
      <point x="128" y="546"/>
      <point x="77" y="404"/>
      <point x="77" y="313" type="curve" smooth="yes"/>
      <point x="77" y="253"/>
      <point x="99" y="218"/>
      <point x="127" y="199" type="curve"/>
      <point x="70" y="173"/>
      <point x="55" y="145"/>
      <point x="55" y="117" type="curve" smooth="yes"/>
      <point x="55" y="94"/>
      <point x="66" y="72"/>
      <point x="97" y="60" type="curve"/>
      <point x="21" y="44"/>
      <point x="-46" y="-13"/>
      <point x="-46" y="-109" type="curve" smooth="yes"/>
      <point x="-46" y="-198"/>
      <point x="12" y="-240"/>
    </contour>
    <contour>
      <point x="107" y="-230" type="curve" smooth="yes"/>
      <point x="15" y="-230"/>
      <point x="-22" y="-178"/>
      <point x="-22" y="-107" type="curve" smooth="yes"/>
      <point x="-22" y="-28"/>
      <point x="25" y="33"/>
      <point x="111" y="55" type="curve"/>
      <point x="183" y="45" type="line" smooth="yes"/>
      <point x="239" y="37"/>
      <point x="269" y="1"/>
      <point x="269" y="-64" type="curve" smooth="yes"/>
      <point x="269" y="-142"/>
      <point x="227" y="-230"/>
    </contour>
    <contour>
      <point x="181" y="197" type="curve" smooth="yes"/>
      <point x="130" y="197"/>
      <point x="105" y="233"/>
      <point x="105" y="309" type="curve" smooth="yes"/>
      <point x="105" y="394"/>
      <point x="137" y="536"/>
      <point x="244" y="536" type="curve" smooth="yes"/>
      <point x="287" y="536"/>
      <point x="318" y="514"/>
      <point x="318" y="429" type="curve" smooth="yes"/>
      <point x="318" y="338"/>
      <point x="282" y="197"/>
    </contour>
  </outline>
</glyph>
<glyph name="h" format="2">
  <advance width="395"/>
  <unicode hex="0068"/>
  <anchor x="147" y="0" name="bottom"/>
  <anchor x="261" y="268" name="center"/>
  <anchor x="309" y="760" name="top"/>
  <anchor x="419" y="760" name="topright"/>
  <outline>
    <contour>
      <point x="302" y="-10" type="curve" smooth="yes"/>
      <point x="330" y="-10"/>
      <point x="348" y="5"/>
      <point x="370" y="31" type="curve"/>
      <point x="363" y="38" type="line"/>
      <point x="344" y="13"/>
      <point x="326" y="0"/>
      <point x="308" y="0" type="curve" smooth="yes"/>
      <point x="283" y="0"/>
      <point x="274" y="22"/>
      <point x="274" y="53" type="curve" smooth="yes"/>
      <point x="274" y="83"/>
      <point x="283" y="141"/>
      <point x="296" y="200" type="curve" smooth="yes"/>
      <point x="325" y="332" type="line" smooth="yes"/>
      <point x="332" y="366"/>
      <point x="344" y="413"/>
      <point x="344" y="454" type="curve" smooth="yes"/>
      <point x="344" y="501"/>
      <point x="328" y="543"/>
      <point x="279" y="543" type="curve" smooth="yes"/>
      <point x="227" y="543"/>
      <point x="178" y="496"/>
      <point x="130" y="396" type="curve"/>
      <point x="128" y="396" type="line"/>
      <point x="136" y="426"/>
      <point x="150" y="490"/>
      <point x="154" y="509" type="curve" smooth="yes"/>
      <point x="206" y="760" type="line"/>
      <point x="115" y="760" type="line"/>
      <point x="113" y="750" type="line"/>
      <point x="125" y="750" type="line" smooth="yes"/>
      <point x="155" y="750"/>
      <point x="169" y="745"/>
      <point x="169" y="725" type="curve" smooth="yes"/>
      <point x="169" y="718"/>
      <point x="167" y="708"/>
      <point x="164" y="694" type="curve" smooth="yes"/>
      <point x="16" y="0" type="line"/>
      <point x="44" y="0" type="line"/>
      <point x="120" y="351" type="line" smooth="yes"/>
      <point x="129" y="391"/>
      <point x="199" y="528"/>
      <point x="274" y="528" type="curve" smooth="yes"/>
      <point x="308" y="528"/>
      <point x="317" y="500"/>
      <point x="317" y="461" type="curve" smooth="yes"/>
      <point x="317" y="420"/>
      <point x="307" y="378"/>
      <point x="297" y="332" type="curve" smooth="yes"/>
      <point x="268" y="200" type="line" smooth="yes"/>
      <point x="257" y="150"/>
      <point x="247" y="95"/>
      <point x="247" y="61" type="curve" smooth="yes"/>
      <point x="247" y="17"/>
      <point x="264" y="-10"/>
    </contour>
  </outline>
</glyph>
<glyph name="j" format="2">
  <advance width="186"/>
  <unicode hex="006A"/>
  <anchor x="-96" y="-240" name="bottom"/>
  <anchor x="193" y="742" name="top"/>
  <anchor x="266" y="742" name="topright"/>
  <outline>
    <contour>
      <point x="-96" y="-240" type="curve" smooth="yes"/>
      <point x="-22" y="-240"/>
      <point x="10" y="-189"/>
      <point x="47" y="-14" type="curve" smooth="yes"/>
      <point x="164" y="536" type="line"/>
      <point x="65" y="536" type="line"/>
      <point x="62" y="526" type="line"/>
      <point x="76" y="526" type="line" smooth="yes"/>
      <point x="110" y="526"/>
      <point x="123" y="521"/>
      <point x="123" y="493" type="curve" smooth="yes"/>
      <point x="123" y="478"/>
      <point x="120" y="463"/>
      <point x="116" y="442" type="curve" smooth="yes"/>
      <point x="16" y="-26" type="line" smooth="yes"/>
      <point x="-16" y="-177"/>
      <point x="-37" y="-230"/>
      <point x="-96" y="-230" type="curve" smooth="yes"/>
      <point x="-108" y="-230"/>
      <point x="-121" y="-228"/>
      <point x="-130" y="-225" type="curve"/>
      <point x="-133" y="-235" type="line"/>
      <point x="-124" y="-238"/>
      <point x="-113" y="-240"/>
    </contour>
    <contour>
      <point x="177" y="681" type="curve" smooth="yes"/>
      <point x="189" y="681"/>
      <point x="202" y="691"/>
      <point x="202" y="716" type="curve" smooth="yes"/>
      <point x="202" y="732"/>
      <point x="193" y="741"/>
      <point x="180" y="741" type="curve" smooth="yes"/>
      <point x="164" y="741"/>
      <point x="154" y="726"/>
      <point x="154" y="705" type="curve" smooth="yes"/>
      <point x="154" y="689"/>
      <point x="164" y="681"/>
    </contour>
  </outline>
</glyph>
<glyph name="k" format="2">
  <advance width="415"/>
  <unicode hex="006B"/>
  <anchor x="162" y="0" name="bottom"/>
  <anchor x="324" y="760" name="top"/>
  <anchor x="453" y="760" name="topright"/>
  <outline>
    <contour>
      <point x="351" y="-7" type="curve" smooth="yes"/>
      <point x="362" y="-7" type="line"/>
      <point x="364" y="3" type="line"/>
      <point x="311" y="3"/>
      <point x="301" y="16"/>
      <point x="286" y="69" type="curve" smooth="yes"/>
      <point x="215" y="323" type="line"/>
      <point x="211" y="316" type="line"/>
      <point x="371" y="475" type="line" smooth="yes"/>
      <point x="405" y="509"/>
      <point x="419" y="526"/>
      <point x="453" y="526" type="curve"/>
      <point x="455" y="536" type="line"/>
      <point x="308" y="536" type="line"/>
      <point x="306" y="526" type="line"/>
      <point x="361" y="526"/>
      <point x="377" y="525"/>
      <point x="377" y="507" type="curve" smooth="yes"/>
      <point x="377" y="497"/>
      <point x="366" y="484"/>
      <point x="342" y="461" type="curve" smooth="yes"/>
      <point x="95" y="219" type="line"/>
      <point x="122" y="333"/>
      <point x="148" y="458"/>
      <point x="172" y="567" type="curve" smooth="yes"/>
      <point x="214" y="760" type="line"/>
      <point x="115" y="760" type="line"/>
      <point x="112" y="750" type="line"/>
      <point x="142" y="750" type="line" smooth="yes"/>
      <point x="163" y="750"/>
      <point x="176" y="743"/>
      <point x="176" y="725" type="curve" smooth="yes"/>
      <point x="176" y="714"/>
      <point x="174" y="703"/>
      <point x="172" y="694" type="curve" smooth="yes"/>
      <point x="24" y="0" type="line"/>
      <point x="53" y="0" type="line"/>
      <point x="93" y="205" type="line"/>
      <point x="208" y="315" type="line"/>
      <point x="193" y="309" type="line"/>
      <point x="257" y="77" type="line" smooth="yes"/>
      <point x="277" y="3"/>
      <point x="293" y="-7"/>
    </contour>
  </outline>
</glyph>
<glyph name="o" format="2">
  <advance width="408"/>
  <unicode hex="006F"/>
  <anchor x="147" y="0" name="bottom"/>
  <anchor x="261" y="268" name="center"/>
  <anchor x="261" y="536" name="top"/>
  <anchor x="447" y="536" name="topright"/>
  <outline>
    <contour>
      <point x="153" y="-10" type="curve" smooth="yes"/>
      <point x="303" y="-10"/>
      <point x="377" y="219"/>
      <point x="377" y="362" type="curve" smooth="yes"/>
      <point x="377" y="493"/>
      <point x="324" y="546"/>
      <point x="253" y="546" type="curve" smooth="yes"/>
      <point x="108" y="546"/>
      <point x="31" y="315"/>
      <point x="31" y="172" type="curve" smooth="yes"/>
      <point x="31" y="48"/>
      <point x="81" y="-10"/>
    </contour>
    <contour>
      <point x="155" y="0" type="curve" smooth="yes"/>
      <point x="96" y="0"/>
      <point x="59" y="45"/>
      <point x="59" y="166" type="curve" smooth="yes"/>
      <point x="59" y="328"/>
      <point x="129" y="536"/>
      <point x="251" y="536" type="curve" smooth="yes"/>
      <point x="313" y="536"/>
      <point x="349" y="484"/>
      <point x="349" y="368" type="curve" smooth="yes"/>
      <point x="349" y="214"/>
      <point x="282" y="0"/>
    </contour>
  </outline>
</glyph>
<glyph name="p" format="2">
  <advance width="394"/>
  <unicode hex="0070"/>
  <anchor x="9" y="-240" name="bottom"/>
  <anchor x="274" y="536" name="top"/>
  <anchor x="429" y="536" name="topright"/>
  <outline>
    <contour>
      <point x="-24" y="-240" type="line"/>
      <point x="77" y="-240" type="line"/>
      <point x="80" y="-230" type="line"/>
      <point x="67" y="-230" type="line" smooth="yes"/>
      <point x="30" y="-230"/>
      <point x="15" y="-228"/>
      <point x="15" y="-207" type="curve" smooth="yes"/>
      <point x="15" y="-201"/>
      <point x="16" y="-190"/>
      <point x="19" y="-175" type="curve" smooth="yes"/>
      <point x="48" y="-35" type="line" smooth="yes"/>
      <point x="51" y="-22"/>
      <point x="53" y="-12"/>
      <point x="58" y="14" type="curve"/>
      <point x="76" y="0"/>
      <point x="98" y="-10"/>
      <point x="129" y="-10" type="curve" smooth="yes"/>
      <point x="284" y="-10"/>
      <point x="370" y="241"/>
      <point x="370" y="400" type="curve" smooth="yes"/>
      <point x="370" y="491"/>
      <point x="346" y="546"/>
      <point x="288" y="546" type="curve" smooth="yes"/>
      <point x="227" y="546"/>
      <point x="175" y="477"/>
      <point x="139" y="393" type="curve"/>
      <point x="137" y="393" type="line"/>
      <point x="166" y="536" type="line"/>
      <point x="73" y="536" type="line"/>
      <point x="70" y="526" type="line"/>
      <point x="80" y="526" type="line" smooth="yes"/>
      <point x="114" y="526"/>
      <point x="130" y="523"/>
      <point x="130" y="498" type="curve" smooth="yes"/>
      <point x="130" y="485"/>
      <point x="125" y="461"/>
      <point x="118" y="428" type="curve" smooth="yes"/>
    </contour>
    <contour>
      <point x="128" y="0" type="curve" smooth="yes"/>
      <point x="95" y="0"/>
      <point x="71" y="16"/>
      <point x="62" y="27" type="curve"/>
      <point x="117" y="288" type="line" smooth="yes"/>
      <point x="139" y="393"/>
      <point x="202" y="530"/>
      <point x="283" y="530" type="curve" smooth="yes"/>
      <point x="323" y="530"/>
      <point x="342" y="502"/>
      <point x="342" y="415" type="curve" smooth="yes"/>
      <point x="342" y="247"/>
      <point x="255" y="0"/>
    </contour>
  </outline>
</glyph>
<glyph name="q" format="2">
  <advance width="379"/>
  <unicode hex="0071"/>
  <anchor x="78" y="-240" name="bottom"/>
  <anchor x="243" y="536" name="top"/>
  <anchor x="410" y="536" name="topright"/>
  <outline>
    <contour>
      <point x="170" y="-240" type="line"/>
      <point x="271" y="-240" type="line"/>
      <point x="273" y="-230" type="line"/>
      <point x="256" y="-230" type="line" smooth="yes"/>
      <point x="223" y="-230"/>
      <point x="208" y="-229"/>
      <point x="208" y="-206" type="curve" smooth="yes"/>
      <point x="208" y="-196"/>
      <point x="211" y="-185"/>
      <point x="215" y="-164" type="curve" smooth="yes"/>
      <point x="364" y="546" type="line"/>
      <point x="356" y="546" type="line"/>
      <point x="332" y="512" type="line"/>
      <point x="313" y="537"/>
      <point x="292" y="546"/>
      <point x="263" y="546" type="curve" smooth="yes"/>
      <point x="114" y="546"/>
      <point x="25" y="303"/>
      <point x="25" y="142" type="curve" smooth="yes"/>
      <point x="25" y="47"/>
      <point x="56" y="-10"/>
      <point x="113" y="-10" type="curve" smooth="yes"/>
      <point x="182" y="-10"/>
      <point x="227" y="73"/>
      <point x="259" y="158" type="curve"/>
      <point x="262" y="158" type="line"/>
      <point x="250" y="109"/>
      <point x="236" y="63"/>
      <point x="226" y="18" type="curve" smooth="yes"/>
    </contour>
    <contour>
      <point x="121" y="3" type="curve" smooth="yes"/>
      <point x="79" y="3"/>
      <point x="53" y="53"/>
      <point x="53" y="137" type="curve" smooth="yes"/>
      <point x="53" y="283"/>
      <point x="132" y="536"/>
      <point x="262" y="536" type="curve" smooth="yes"/>
      <point x="295" y="536"/>
      <point x="319" y="520"/>
      <point x="327" y="499" type="curve"/>
      <point x="282" y="272" type="line" smooth="yes"/>
      <point x="254" y="131"/>
      <point x="188" y="3"/>
    </contour>
  </outline>
</glyph>
<glyph name="s" format="2">
  <advance width="317"/>
  <unicode hex="0073"/>
  <anchor x="102" y="0" name="bottom"/>
  <anchor x="216" y="536" name="top"/>
  <anchor x="354" y="536" name="topright"/>
  <outline>
    <contour>
      <point x="127" y="-10" type="curve" smooth="yes"/>
      <point x="207" y="-10"/>
      <point x="257" y="54"/>
      <point x="257" y="143" type="curve" smooth="yes"/>
      <point x="257" y="217"/>
      <point x="222" y="252"/>
      <point x="177" y="290" type="curve" smooth="yes"/>
      <point x="130" y="330"/>
      <point x="101" y="355"/>
      <point x="101" y="416" type="curve" smooth="yes"/>
      <point x="101" y="491"/>
      <point x="146" y="537"/>
      <point x="204" y="537" type="curve" smooth="yes"/>
      <point x="259" y="537"/>
      <point x="273" y="496"/>
      <point x="276" y="431" type="curve" smooth="yes"/>
      <point x="276" y="422"/>
      <point x="276" y="413"/>
      <point x="276" y="404" type="curve"/>
      <point x="292" y="404"/>
      <point x="301" y="416"/>
      <point x="301" y="444" type="curve" smooth="yes"/>
      <point x="301" y="494"/>
      <point x="272" y="547"/>
      <point x="205" y="547" type="curve" smooth="yes"/>
      <point x="139" y="547"/>
      <point x="78" y="495"/>
      <point x="78" y="408" type="curve" smooth="yes"/>
      <point x="78" y="336"/>
      <point x="120" y="302"/>
      <point x="165" y="265" type="curve" smooth="yes"/>
      <point x="217" y="222"/>
      <point x="233" y="182"/>
      <point x="233" y="132" type="curve" smooth="yes"/>
      <point x="233" y="50"/>
      <point x="191" y="0"/>
      <point x="130" y="0" type="curve" smooth="yes"/>
      <point x="67" y="0"/>
      <point x="44" y="51"/>
      <point x="40" y="122" type="curve" smooth="yes"/>
      <point x="39" y="131"/>
      <point x="39" y="140"/>
      <point x="39" y="149" type="curve"/>
      <point x="29" y="149"/>
      <point x="14" y="139"/>
      <point x="14" y="104" type="curve" smooth="yes"/>
      <point x="14" y="53"/>
      <point x="47" y="-10"/>
    </contour>
  </outline>
</glyph>
<glyph name="t" format="2">
  <advance width="245"/>
  <unicode hex="0074"/>
  <anchor x="65" y="0" name="bottom"/>
  <anchor x="179" y="268" name="center"/>
  <anchor x="205" y="659" name="top"/>
  <anchor x="308" y="659" name="topright"/>
  <outline>
    <contour>
      <point x="119" y="-10" type="curve" smooth="yes"/>
      <point x="137" y="-10"/>
      <point x="163" y="-3"/>
      <point x="191" y="13" type="curve"/>
      <point x="188" y="22" type="line"/>
      <point x="163" y="8"/>
      <point x="144" y="0"/>
      <point x="119" y="0" type="curve" smooth="yes"/>
      <point x="90" y="0"/>
      <point x="81" y="19"/>
      <point x="81" y="59" type="curve" smooth="yes"/>
      <point x="81" y="75"/>
      <point x="81" y="96"/>
      <point x="98" y="177" type="curve" smooth="yes"/>
      <point x="170" y="526" type="line"/>
      <point x="251" y="526" type="line"/>
      <point x="253" y="536" type="line"/>
      <point x="172" y="536" type="line"/>
      <point x="198" y="659" type="line"/>
      <point x="188" y="659" type="line"/>
      <point x="161" y="536"/>
      <point x="130" y="531"/>
      <point x="75" y="531" type="curve"/>
      <point x="74" y="526" type="line"/>
      <point x="142" y="526" type="line"/>
      <point x="73" y="192" type="line" smooth="yes"/>
      <point x="57" y="114"/>
      <point x="55" y="94"/>
      <point x="55" y="63" type="curve" smooth="yes"/>
      <point x="55" y="24"/>
      <point x="69" y="-10"/>
    </contour>
  </outline>
</glyph>
<glyph name="v" format="2">
  <advance width="370"/>
  <unicode hex="0076"/>
  <anchor x="133" y="0" name="bottom"/>
  <anchor x="247" y="536" name="top"/>
  <anchor x="416" y="536" name="topright"/>
  <outline>
    <contour>
      <point x="116" y="-9" type="line"/>
      <point x="144" y="1" type="line"/>
      <point x="277" y="198"/>
      <point x="356" y="337"/>
      <point x="356" y="476" type="curve" smooth="yes"/>
      <point x="356" y="523"/>
      <point x="345" y="546"/>
      <point x="327" y="546" type="curve" smooth="yes"/>
      <point x="314" y="546"/>
      <point x="302" y="541"/>
      <point x="301" y="522" type="curve"/>
      <point x="319" y="522"/>
      <point x="335" y="507"/>
      <point x="335" y="462" type="curve" smooth="yes"/>
      <point x="335" y="333"/>
      <point x="268" y="199"/>
      <point x="141" y="14" type="curve"/>
      <point x="139" y="14" type="line"/>
      <point x="136" y="78"/>
      <point x="130" y="173"/>
      <point x="125" y="240" type="curve" smooth="yes"/>
      <point x="103" y="536" type="line"/>
      <point x="28" y="536" type="line"/>
      <point x="26" y="526" type="line"/>
      <point x="38" y="526" type="line" smooth="yes"/>
      <point x="72" y="526"/>
      <point x="78" y="523"/>
      <point x="82" y="465" type="curve" smooth="yes"/>
    </contour>
  </outline>
</glyph>
<glyph name="x" format="2">
  <advance width="372"/>
  <unicode hex="0078"/>
  <anchor x="129" y="0" name="bottom"/>
  <anchor x="243" y="536" name="top"/>
  <anchor x="410" y="536" name="topright"/>
  <outline>
    <contour>
      <point x="-20" y="0" type="line"/>
      <point x="42" y="0" type="line"/>
      <point x="180" y="258" type="line"/>
      <point x="252" y="0" type="line"/>
      <point x="314" y="0" type="line"/>
      <point x="317" y="10" type="line"/>
      <point x="309" y="10" type="line" smooth="yes"/>
      <point x="278" y="10"/>
      <point x="279" y="16"/>
      <point x="269" y="52" type="curve" smooth="yes"/>
      <point x="201" y="290" type="line"/>
      <point x="301" y="478" type="line" smooth="yes"/>
      <point x="326" y="524"/>
      <point x="336" y="526"/>
      <point x="366" y="526" type="curve" smooth="yes"/>
      <point x="384" y="526" type="line"/>
      <point x="386" y="536" type="line"/>
      <point x="322" y="536" type="line"/>
      <point x="198" y="303" type="line"/>
      <point x="132" y="536" type="line"/>
      <point x="72" y="536" type="line"/>
      <point x="70" y="526" type="line"/>
      <point x="81" y="526" type="line" smooth="yes"/>
      <point x="106" y="526"/>
      <point x="106" y="522"/>
      <point x="120" y="472" type="curve" smooth="yes"/>
      <point x="176" y="271" type="line"/>
      <point x="65" y="62" type="line" smooth="yes"/>
      <point x="39" y="14"/>
      <point x="30" y="10"/>
      <point x="-2" y="10" type="curve" smooth="yes"/>
      <point x="-17" y="10" type="line"/>
    </contour>
  </outline>
</glyph>
<glyph name="braceleft" format="2">
  <advance width="329"/>
  <unicode hex="007B"/>
  <outline>
    <contour>
      <point x="171" y="-132" type="curve" smooth="yes"/>
      <point x="193" y="-132" type="line"/>
      <point x="196" y="-122" type="line"/>
      <point x="178" y="-122" type="line" smooth="yes"/>
      <point x="141" y="-122"/>
      <point x="125" y="-108"/>
      <point x="125" y="-68" type="curve" smooth="yes"/>
      <point x="125" y="-42"/>
      <point x="131" y="-17"/>
      <point x="135" y="2" type="curve" smooth="yes"/>
      <point x="169" y="165" type="line" smooth="yes"/>
      <point x="174" y="191"/>
      <point x="178" y="212"/>
      <point x="178" y="232" type="curve" smooth="yes"/>
      <point x="178" y="270"/>
      <point x="161" y="308"/>
      <point x="113" y="312" type="curve"/>
      <point x="113" y="314" type="line"/>
      <point x="178" y="321"/>
      <point x="212" y="367"/>
      <point x="225" y="427" type="curve" smooth="yes"/>
      <point x="269" y="631" type="line" smooth="yes"/>
      <point x="289" y="726"/>
      <point x="306" y="750"/>
      <point x="368" y="750" type="curve" smooth="yes"/>
      <point x="380" y="750" type="line"/>
      <point x="383" y="760" type="line"/>
      <point x="365" y="760" type="line" smooth="yes"/>
      <point x="290" y="760"/>
      <point x="264" y="736"/>
      <point x="239" y="620" type="curve" smooth="yes"/>
      <point x="196" y="420" type="line" smooth="yes"/>
      <point x="182" y="353"/>
      <point x="150" y="324"/>
      <point x="81" y="319" type="curve"/>
      <point x="79" y="308" type="line"/>
      <point x="141" y="303"/>
      <point x="152" y="283"/>
      <point x="152" y="242" type="curve" smooth="yes"/>
      <point x="152" y="233"/>
      <point x="150" y="203"/>
      <point x="143" y="172" type="curve" smooth="yes"/>
      <point x="110" y="17" type="line" smooth="yes"/>
      <point x="105" y="-6"/>
      <point x="100" y="-31"/>
      <point x="100" y="-53" type="curve" smooth="yes"/>
      <point x="100" y="-107"/>
      <point x="124" y="-132"/>
    </contour>
  </outline>
</glyph>
<glyph name="braceright" format="2">
  <advance width="328"/>
  <unicode hex="007D"/>
  <outline>
    <contour>
      <point x="-35" y="-132" type="line"/>
      <point x="-16" y="-132" type="line" smooth="yes"/>
      <point x="58" y="-132"/>
      <point x="84" y="-108"/>
      <point x="109" y="8" type="curve" smooth="yes"/>
      <point x="152" y="208" type="line" smooth="yes"/>
      <point x="166" y="275"/>
      <point x="198" y="304"/>
      <point x="267" y="309" type="curve"/>
      <point x="269" y="320" type="line"/>
      <point x="207" y="325"/>
      <point x="196" y="345"/>
      <point x="196" y="386" type="curve" smooth="yes"/>
      <point x="196" y="395"/>
      <point x="198" y="425"/>
      <point x="205" y="456" type="curve" smooth="yes"/>
      <point x="238" y="611" type="line" smooth="yes"/>
      <point x="243" y="634"/>
      <point x="248" y="659"/>
      <point x="248" y="681" type="curve" smooth="yes"/>
      <point x="248" y="735"/>
      <point x="224" y="760"/>
      <point x="177" y="760" type="curve" smooth="yes"/>
      <point x="155" y="760" type="line"/>
      <point x="152" y="750" type="line"/>
      <point x="170" y="750" type="line" smooth="yes"/>
      <point x="207" y="750"/>
      <point x="223" y="736"/>
      <point x="223" y="696" type="curve" smooth="yes"/>
      <point x="223" y="670"/>
      <point x="217" y="645"/>
      <point x="213" y="626" type="curve" smooth="yes"/>
      <point x="179" y="463" type="line" smooth="yes"/>
      <point x="174" y="437"/>
      <point x="170" y="416"/>
      <point x="170" y="396" type="curve" smooth="yes"/>
      <point x="170" y="358"/>
      <point x="187" y="320"/>
      <point x="235" y="316" type="curve"/>
      <point x="235" y="314" type="line"/>
      <point x="170" y="307"/>
      <point x="136" y="261"/>
      <point x="123" y="201" type="curve" smooth="yes"/>
      <point x="79" y="-3" type="line" smooth="yes"/>
      <point x="59" y="-98"/>
      <point x="42" y="-122"/>
      <point x="-19" y="-122" type="curve" smooth="yes"/>
      <point x="-32" y="-122" type="line"/>
    </contour>
  </outline>
</glyph>
<glyph name="cent" format="2">
  <advance width="436"/>
  <unicode hex="00A2"/>
  <anchor x="192" y="91" name="bottom"/>
  <anchor x="304" y="627" name="top"/>
  <anchor x="438" y="627" name="topright"/>
  <outline>
    <contour>
      <point x="174" y="0" type="line"/>
      <point x="184" y="0" type="line"/>
      <point x="334" y="714" type="line"/>
      <point x="324" y="714" type="line"/>
    </contour>
    <component base="c" xOffset="56" yOffset="91"/>
  </outline>
</glyph>
<glyph name="yen" format="2">
  <advance width="428"/>
  <unicode hex="00A5"/>
  <outline>
    <contour>
      <point x="62" y="0" type="line"/>
      <point x="248" y="0" type="line"/>
      <point x="250" y="10" type="line"/>
      <point x="221" y="10" type="line" smooth="yes"/>
      <point x="192" y="10"/>
      <point x="179" y="18"/>
      <point x="179" y="35" type="curve" smooth="yes"/>
      <point x="179" y="46"/>
      <point x="180" y="52"/>
      <point x="183" y="66" type="curve" smooth="yes"/>
      <point x="212" y="211" type="line"/>
      <point x="324" y="211" type="line"/>
      <point x="326" y="221" type="line"/>
      <point x="214" y="221" type="line"/>
      <point x="237" y="331" type="line"/>
      <point x="349" y="331" type="line"/>
      <point x="352" y="340" type="line"/>
      <point x="238" y="340" type="line"/>
      <point x="435" y="653" type="line" smooth="yes"/>
      <point x="465" y="700"/>
      <point x="474" y="704"/>
      <point x="500" y="704" type="curve" smooth="yes"/>
      <point x="525" y="704" type="line"/>
      <point x="528" y="714" type="line"/>
      <point x="356" y="714" type="line"/>
      <point x="353" y="704" type="line"/>
      <point x="408" y="704" type="line" smooth="yes"/>
      <point x="431" y="704"/>
      <point x="438" y="698"/>
      <point x="438" y="687" type="curve" smooth="yes"/>
      <point x="438" y="676"/>
      <point x="427" y="658"/>
      <point x="412" y="635" type="curve" smooth="yes"/>
      <point x="293" y="449" type="line" smooth="yes"/>
      <point x="265" y="405"/>
      <point x="249" y="377"/>
      <point x="233" y="354" type="curve"/>
      <point x="228" y="383"/>
      <point x="214" y="450"/>
      <point x="206" y="487" type="curve" smooth="yes"/>
      <point x="173" y="647" type="line" smooth="yes"/>
      <point x="170" y="661"/>
      <point x="167" y="673"/>
      <point x="167" y="682" type="curve" smooth="yes"/>
      <point x="167" y="699"/>
      <point x="177" y="704"/>
      <point x="199" y="704" type="curve" smooth="yes"/>
      <point x="253" y="704" type="line"/>
      <point x="256" y="714" type="line"/>
      <point x="99" y="714" type="line"/>
      <point x="97" y="704" type="line"/>
      <point x="107" y="704" type="line" smooth="yes"/>
      <point x="129" y="704"/>
      <point x="132" y="701"/>
      <point x="140" y="665" type="curve" smooth="yes"/>
      <point x="212" y="340" type="line"/>
      <point x="100" y="340" type="line"/>
      <point x="97" y="331" type="line"/>
      <point x="211" y="331" type="line"/>
      <point x="188" y="221" type="line"/>
      <point x="74" y="221" type="line"/>
      <point x="72" y="211" type="line"/>
      <point x="186" y="211" type="line"/>
      <point x="155" y="66" type="line" smooth="yes"/>
      <point x="146" y="22"/>
      <point x="131" y="10"/>
      <point x="93" y="10" type="curve" smooth="yes"/>
      <point x="64" y="10" type="line"/>
    </contour>
  </outline>
</glyph>
<glyph name="section" format="2">
  <advance width="429"/>
  <unicode hex="00A7"/>
  <outline>
    <contour>
      <point x="152" y="-115" type="curve" smooth="yes"/>
      <point x="247" y="-115"/>
      <point x="303" y="-48"/>
      <point x="303" y="53" type="curve" smooth="yes"/>
      <point x="303" y="94"/>
      <point x="293" y="123"/>
      <point x="275" y="148" type="curve"/>
      <point x="335" y="203"/>
      <point x="359" y="250"/>
      <point x="359" y="305" type="curve" smooth="yes"/>
      <point x="359" y="375"/>
      <point x="328" y="406"/>
      <point x="264" y="464" type="curve" smooth="yes"/>
      <point x="207" y="515"/>
      <point x="178" y="538"/>
      <point x="178" y="613" type="curve" smooth="yes"/>
      <point x="178" y="680"/>
      <point x="215" y="746"/>
      <point x="289" y="746" type="curve" smooth="yes"/>
      <point x="365" y="746"/>
      <point x="380" y="694"/>
      <point x="380" y="607" type="curve"/>
      <point x="402" y="607"/>
      <point x="411" y="619"/>
      <point x="411" y="645" type="curve" smooth="yes"/>
      <point x="411" y="694"/>
      <point x="376" y="756"/>
      <point x="288" y="756" type="curve" smooth="yes"/>
      <point x="210" y="756"/>
      <point x="150" y="696"/>
      <point x="150" y="608" type="curve" smooth="yes"/>
      <point x="150" y="567"/>
      <point x="160" y="539"/>
      <point x="177" y="514" type="curve"/>
      <point x="132" y="481"/>
      <point x="95" y="436"/>
      <point x="95" y="364" type="curve" smooth="yes"/>
      <point x="95" y="284"/>
      <point x="141" y="245"/>
      <point x="182" y="206" type="curve" smooth="yes"/>
      <point x="256" y="136"/>
      <point x="275" y="112"/>
      <point x="275" y="53" type="curve" smooth="yes"/>
      <point x="275" y="-46"/>
      <point x="229" y="-105"/>
      <point x="149" y="-105" type="curve" smooth="yes"/>
      <point x="64" y="-105"/>
      <point x="39" y="-38"/>
      <point x="39" y="63" type="curve"/>
      <point x="26" y="61"/>
      <point x="13" y="55"/>
      <point x="13" y="21" type="curve" smooth="yes"/>
      <point x="13" y="-36"/>
      <point x="49" y="-115"/>
    </contour>
    <contour>
      <point x="268" y="157" type="curve"/>
      <point x="251" y="179"/>
      <point x="227" y="200"/>
      <point x="200" y="225" type="curve" smooth="yes"/>
      <point x="148" y="273"/>
      <point x="122" y="301"/>
      <point x="122" y="372" type="curve" smooth="yes"/>
      <point x="122" y="437"/>
      <point x="144" y="466"/>
      <point x="183" y="505" type="curve"/>
      <point x="200" y="485"/>
      <point x="221" y="467"/>
      <point x="248" y="444" type="curve" smooth="yes"/>
      <point x="321" y="381"/>
      <point x="331" y="348"/>
      <point x="331" y="303" type="curve" smooth="yes"/>
      <point x="331" y="247"/>
      <point x="308" y="202"/>
    </contour>
  </outline>
</glyph>
<glyph name="dieresis" format="2">
  <advance width="453"/>
  <unicode hex="00A8"/>
  <outline>
    <contour>
      <point x="369" y="638" type="curve" smooth="yes"/>
      <point x="393" y="638"/>
      <point x="403" y="670"/>
      <point x="403" y="692" type="curve" smooth="yes"/>
      <point x="403" y="713"/>
      <point x="396" y="718"/>
      <point x="384" y="718" type="curve" smooth="yes"/>
      <point x="360" y="718"/>
      <point x="350" y="682"/>
      <point x="350" y="664" type="curve" smooth="yes"/>
      <point x="350" y="642"/>
      <point x="358" y="638"/>
    </contour>
    <contour>
      <point x="243" y="638" type="curve" smooth="yes"/>
      <point x="267" y="638"/>
      <point x="277" y="670"/>
      <point x="277" y="694" type="curve" smooth="yes"/>
      <point x="277" y="713"/>
      <point x="270" y="718"/>
      <point x="258" y="718" type="curve" smooth="yes"/>
      <point x="234" y="718"/>
      <point x="224" y="682"/>
      <point x="224" y="664" type="curve" smooth="yes"/>
      <point x="224" y="642"/>
      <point x="232" y="638"/>
    </contour>
  </outline>
</glyph>
<glyph name="copyright" format="2">
  <advance width="642"/>
  <unicode hex="00A9"/>
  <outline>
    <contour>
      <point x="341" y="-10" type="curve" smooth="yes"/>
      <point x="520" y="-10"/>
      <point x="624" y="151"/>
      <point x="624" y="358" type="curve" smooth="yes"/>
      <point x="624" y="563"/>
      <point x="522" y="725"/>
      <point x="342" y="725" type="curve" smooth="yes"/>
      <point x="162" y="725"/>
      <point x="56" y="563"/>
      <point x="56" y="358" type="curve" smooth="yes"/>
      <point x="56" y="156"/>
      <point x="159" y="-10"/>
    </contour>
    <contour>
      <point x="347" y="113" type="curve" smooth="yes"/>
      <point x="423" y="113"/>
      <point x="463" y="166"/>
      <point x="463" y="208" type="curve" smooth="yes"/>
      <point x="463" y="221"/>
      <point x="459" y="228"/>
      <point x="446" y="234" type="curve"/>
      <point x="434" y="166"/>
      <point x="407" y="123"/>
      <point x="348" y="123" type="curve" smooth="yes"/>
      <point x="268" y="123"/>
      <point x="218" y="202"/>
      <point x="218" y="367" type="curve" smooth="yes"/>
      <point x="218" y="511"/>
      <point x="256" y="591"/>
      <point x="347" y="591" type="curve" smooth="yes"/>
      <point x="424" y="591"/>
      <point x="438" y="535"/>
      <point x="438" y="458" type="curve"/>
      <point x="449" y="458"/>
      <point x="464" y="474"/>
      <point x="464" y="504" type="curve" smooth="yes"/>
      <point x="464" y="550"/>
      <point x="430" y="601"/>
      <point x="348" y="601" type="curve" smooth="yes"/>
      <point x="241" y="601"/>
      <point x="190" y="513"/>
      <point x="190" y="363" type="curve" smooth="yes"/>
      <point x="190" y="200"/>
      <point x="250" y="113"/>
    </contour>
    <contour>
      <point x="344" y="0" type="curve" smooth="yes"/>
      <point x="173" y="0"/>
      <point x="68" y="151"/>
      <point x="68" y="359" type="curve" smooth="yes"/>
      <point x="68" y="563"/>
      <point x="170" y="715"/>
      <point x="342" y="715" type="curve" smooth="yes"/>
      <point x="513" y="715"/>
      <point x="612" y="566"/>
      <point x="612" y="358" type="curve" smooth="yes"/>
      <point x="612" y="151"/>
      <point x="514" y="0"/>
    </contour>
  </outline>
</glyph>
<glyph name="ordfeminine" format="2">
  <advance width="279"/>
  <unicode hex="00AA"/>
  <anchor x="162" y="381" name="bottom"/>
  <anchor x="234" y="722" name="top"/>
  <outline>
    <contour>
      <point x="139" y="388" type="curve" smooth="yes"/>
      <point x="178" y="388"/>
      <point x="206" y="428"/>
      <point x="231" y="478" type="curve"/>
      <point x="233" y="478" type="line"/>
      <point x="229" y="466"/>
      <point x="227" y="446"/>
      <point x="227" y="436" type="curve" smooth="yes"/>
      <point x="227" y="410"/>
      <point x="239" y="390"/>
      <point x="262" y="390" type="curve" smooth="yes"/>
      <point x="281" y="390"/>
      <point x="296" y="399"/>
      <point x="310" y="415" type="curve"/>
      <point x="305" y="422" type="line"/>
      <point x="293" y="410"/>
      <point x="282" y="400"/>
      <point x="268" y="400" type="curve" smooth="yes"/>
      <point x="258" y="400"/>
      <point x="248" y="407"/>
      <point x="248" y="435" type="curve" smooth="yes"/>
      <point x="248" y="456"/>
      <point x="254" y="485"/>
      <point x="264" y="522" type="curve" smooth="yes"/>
      <point x="316" y="714" type="line"/>
      <point x="308" y="714" type="line"/>
      <point x="294" y="700" type="line"/>
      <point x="279" y="713"/>
      <point x="260" y="721"/>
      <point x="237" y="721" type="curve" smooth="yes"/>
      <point x="151" y="721"/>
      <point x="83" y="588"/>
      <point x="83" y="482" type="curve" smooth="yes"/>
      <point x="83" y="426"/>
      <point x="100" y="388"/>
    </contour>
    <contour>
      <point x="147" y="399" type="curve" smooth="yes"/>
      <point x="124" y="399"/>
      <point x="110" y="423"/>
      <point x="110" y="480" type="curve" smooth="yes"/>
      <point x="110" y="591"/>
      <point x="167" y="711"/>
      <point x="238" y="711" type="curve" smooth="yes"/>
      <point x="257" y="711"/>
      <point x="274" y="703"/>
      <point x="282" y="690" type="curve"/>
      <point x="242" y="539" type="line" smooth="yes"/>
      <point x="221" y="459"/>
      <point x="182" y="399"/>
    </contour>
  </outline>
</glyph>
<glyph name="registered" format="2">
  <advance width="642"/>
  <unicode hex="00AE"/>
  <outline>
    <contour>
      <point x="343" y="-10" type="curve" smooth="yes"/>
      <point x="503" y="-10"/>
      <point x="620" y="144"/>
      <point x="620" y="357" type="curve" smooth="yes"/>
      <point x="620" y="571"/>
      <point x="503" y="725"/>
      <point x="343" y="725" type="curve" smooth="yes"/>
      <point x="178" y="725"/>
      <point x="59" y="570"/>
      <point x="59" y="358" type="curve" smooth="yes"/>
      <point x="59" y="144"/>
      <point x="178" y="-10"/>
    </contour>
    <contour>
      <point x="345" y="0" type="curve" smooth="yes"/>
      <point x="191" y="0"/>
      <point x="70" y="146"/>
      <point x="70" y="358" type="curve" smooth="yes"/>
      <point x="70" y="565"/>
      <point x="185" y="715"/>
      <point x="343" y="715" type="curve" smooth="yes"/>
      <point x="496" y="715"/>
      <point x="609" y="564"/>
      <point x="609" y="358" type="curve" smooth="yes"/>
      <point x="609" y="151"/>
      <point x="496" y="0"/>
    </contour>
    <contour>
      <point x="205" y="141" type="line"/>
      <point x="325" y="141" type="line"/>
      <point x="325" y="151" type="line"/>
      <point x="311" y="151" type="line" smooth="yes"/>
      <point x="294" y="151"/>
      <point x="279" y="155"/>
      <point x="279" y="172" type="curve" smooth="yes"/>
      <point x="279" y="337" type="line"/>
      <point x="344" y="337" type="line"/>
      <point x="434" y="141" type="line"/>
      <point x="498" y="141" type="line"/>
      <point x="498" y="151" type="line"/>
      <point x="468" y="151"/>
      <point x="459" y="154"/>
      <point x="455" y="163" type="curve" smooth="yes"/>
      <point x="374" y="344" type="line"/>
      <point x="417" y="358"/>
      <point x="454" y="390"/>
      <point x="454" y="456" type="curve" smooth="yes"/>
      <point x="454" y="529"/>
      <point x="414" y="573"/>
      <point x="329" y="573" type="curve" smooth="yes"/>
      <point x="205" y="573" type="line"/>
      <point x="205" y="563" type="line"/>
      <point x="218" y="563" type="line" smooth="yes"/>
      <point x="236" y="563"/>
      <point x="251" y="559"/>
      <point x="251" y="543" type="curve" smooth="yes"/>
      <point x="251" y="172" type="line" smooth="yes"/>
      <point x="251" y="155"/>
      <point x="236" y="151"/>
      <point x="218" y="151" type="curve" smooth="yes"/>
      <point x="205" y="151" type="line"/>
    </contour>
    <contour>
      <point x="322" y="347" type="curve" smooth="yes"/>
      <point x="279" y="347" type="line"/>
      <point x="279" y="563" type="line"/>
      <point x="336" y="563" type="line" smooth="yes"/>
      <point x="389" y="563"/>
      <point x="426" y="532"/>
      <point x="426" y="458" type="curve" smooth="yes"/>
      <point x="426" y="390"/>
      <point x="389" y="347"/>
    </contour>
  </outline>
</glyph>
<glyph name="overscore" format="2">
  <advance width="362"/>
  <unicode hex="00AF"/>
  <outline>
    <contour>
      <point x="102" y="773" type="line"/>
      <point x="474" y="773" type="line"/>
      <point x="478" y="793" type="line"/>
      <point x="107" y="793" type="line"/>
    </contour>
  </outline>
</glyph>
<glyph name="degree" format="2">
  <advance width="303"/>
  <unicode hex="00B0"/>
  <outline>
    <contour>
      <point x="218" y="441" type="curve" smooth="yes"/>
      <point x="287" y="441"/>
      <point x="330" y="495"/>
      <point x="330" y="582" type="curve" smooth="yes"/>
      <point x="330" y="670"/>
      <point x="287" y="724"/>
      <point x="218" y="724" type="curve" smooth="yes"/>
      <point x="149" y="724"/>
      <point x="107" y="670"/>
      <point x="107" y="582" type="curve" smooth="yes"/>
      <point x="107" y="495"/>
      <point x="149" y="441"/>
    </contour>
    <contour>
      <point x="220" y="461" type="curve" smooth="yes"/>
      <point x="162" y="461"/>
      <point x="127" y="508"/>
      <point x="127" y="584" type="curve" smooth="yes"/>
      <point x="127" y="658"/>
      <point x="162" y="704"/>
      <point x="220" y="704" type="curve" smooth="yes"/>
      <point x="276" y="704"/>
      <point x="310" y="658"/>
      <point x="310" y="584" type="curve" smooth="yes"/>
      <point x="310" y="508"/>
      <point x="276" y="461"/>
    </contour>
  </outline>
</glyph>
<glyph name="twosuperior" format="2">
  <advance width="300"/>
  <unicode hex="00B2"/>
  <outline>
    <contour>
      <point x="80" y="387" type="line"/>
      <point x="283" y="387" type="line"/>
      <point x="310" y="480" type="line"/>
      <point x="297" y="480" type="line"/>
      <point x="293" y="467" type="line" smooth="yes"/>
      <point x="277" y="416"/>
      <point x="270" y="412"/>
      <point x="231" y="412" type="curve" smooth="yes"/>
      <point x="104" y="412" type="line"/>
      <point x="200" y="509" type="line" smooth="yes"/>
      <point x="316" y="627"/>
      <point x="346" y="662"/>
      <point x="346" y="723" type="curve" smooth="yes"/>
      <point x="346" y="790"/>
      <point x="309" y="825"/>
      <point x="256" y="825" type="curve" smooth="yes"/>
      <point x="171" y="825"/>
      <point x="131" y="756"/>
      <point x="131" y="708" type="curve" smooth="yes"/>
      <point x="131" y="689"/>
      <point x="139" y="682"/>
      <point x="153" y="682" type="curve"/>
      <point x="153" y="756"/>
      <point x="188" y="815"/>
      <point x="252" y="815" type="curve" smooth="yes"/>
      <point x="291" y="815"/>
      <point x="319" y="784"/>
      <point x="319" y="728" type="curve" smooth="yes"/>
      <point x="319" y="670"/>
      <point x="290" y="620"/>
      <point x="195" y="520" type="curve" smooth="yes"/>
      <point x="84" y="404" type="line"/>
    </contour>
  </outline>
</glyph>
<glyph name="threesuperior" format="2">
  <advance width="300"/>
  <unicode hex="00B3"/>
  <outline>
    <contour>
      <point x="181" y="380" type="curve" smooth="yes"/>
      <point x="265" y="380"/>
      <point x="324" y="438"/>
      <point x="324" y="519" type="curve" smooth="yes"/>
      <point x="324" y="574"/>
      <point x="297" y="600"/>
      <point x="261" y="612" type="curve"/>
      <point x="261" y="615" type="line"/>
      <point x="313" y="626"/>
      <point x="356" y="676"/>
      <point x="356" y="734" type="curve" smooth="yes"/>
      <point x="356" y="785"/>
      <point x="323" y="824"/>
      <point x="261" y="824" type="curve" smooth="yes"/>
      <point x="184" y="824"/>
      <point x="139" y="763"/>
      <point x="139" y="721" type="curve" smooth="yes"/>
      <point x="139" y="702"/>
      <point x="148" y="699"/>
      <point x="159" y="699" type="curve"/>
      <point x="171" y="775"/>
      <point x="209" y="814"/>
      <point x="257" y="814" type="curve" smooth="yes"/>
      <point x="302" y="814"/>
      <point x="327" y="781"/>
      <point x="327" y="737" type="curve" smooth="yes"/>
      <point x="327" y="675"/>
      <point x="279" y="619"/>
      <point x="205" y="619" type="curve" smooth="yes"/>
      <point x="179" y="619" type="line"/>
      <point x="177" y="609" type="line"/>
      <point x="203" y="609" type="line" smooth="yes"/>
      <point x="269" y="609"/>
      <point x="296" y="574"/>
      <point x="296" y="517" type="curve" smooth="yes"/>
      <point x="296" y="441"/>
      <point x="248" y="390"/>
      <point x="183" y="390" type="curve" smooth="yes"/>
      <point x="122" y="390"/>
      <point x="107" y="436"/>
      <point x="116" y="508" type="curve"/>
      <point x="97" y="508"/>
      <point x="86" y="482"/>
      <point x="86" y="456" type="curve" smooth="yes"/>
      <point x="86" y="411"/>
      <point x="120" y="380"/>
    </contour>
  </outline>
</glyph>
<glyph name="acute" format="2">
  <advance width="170"/>
  <unicode hex="00B4"/>
  <outline>
    <contour>
      <point x="113" y="606" type="line"/>
      <point x="121" y="606" type="line"/>
      <point x="163" y="649"/>
      <point x="209" y="714"/>
      <point x="234" y="758" type="curve"/>
      <point x="234" y="766" type="line"/>
      <point x="204" y="766" type="line"/>
      <point x="178" y="711"/>
      <point x="147" y="656"/>
      <point x="114" y="614" type="curve"/>
    </contour>
  </outline>
</glyph>
<glyph name="micro" format="2">
  <advance width="415"/>
  <unicode hex="00B5"/>
  <outline>
    <contour>
      <point x="8" y="-240" type="curve" smooth="yes"/>
      <point x="25" y="-240"/>
      <point x="35" y="-229"/>
      <point x="39" y="-210" type="curve"/>
      <point x="19" y="-209"/>
      <point x="1" y="-196"/>
      <point x="1" y="-158" type="curve" smooth="yes"/>
      <point x="1" y="-118"/>
      <point x="18" y="-56"/>
      <point x="48" y="86" type="curve"/>
      <point x="54" y="37"/>
      <point x="73" y="-9"/>
      <point x="129" y="-9" type="curve" smooth="yes"/>
      <point x="189" y="-9"/>
      <point x="231" y="37"/>
      <point x="271" y="136" type="curve"/>
      <point x="273" y="136" type="line"/>
      <point x="273" y="26"/>
      <point x="280" y="-10"/>
      <point x="327" y="-10" type="curve" smooth="yes"/>
      <point x="344" y="-10"/>
      <point x="357" y="-6"/>
      <point x="370" y="1" type="curve"/>
      <point x="366" y="11" type="line"/>
      <point x="357" y="5"/>
      <point x="351" y="3"/>
      <point x="339" y="3" type="curve" smooth="yes"/>
      <point x="312" y="3"/>
      <point x="302" y="34"/>
      <point x="302" y="102" type="curve" smooth="yes"/>
      <point x="302" y="151"/>
      <point x="308" y="187"/>
      <point x="323" y="257" type="curve" smooth="yes"/>
      <point x="384" y="536" type="line"/>
      <point x="355" y="536" type="line"/>
      <point x="288" y="221" type="line" smooth="yes"/>
      <point x="268" y="129"/>
      <point x="209" y="1"/>
      <point x="133" y="1" type="curve" smooth="yes"/>
      <point x="96" y="1"/>
      <point x="76" y="33"/>
      <point x="76" y="85" type="curve" smooth="yes"/>
      <point x="76" y="119"/>
      <point x="89" y="173"/>
      <point x="102" y="230" type="curve" smooth="yes"/>
      <point x="171" y="536" type="line"/>
      <point x="143" y="536" type="line"/>
      <point x="73" y="231" type="line" smooth="yes"/>
      <point x="25" y="24"/>
      <point x="-20" y="-144"/>
      <point x="-20" y="-202" type="curve" smooth="yes"/>
      <point x="-20" y="-223"/>
      <point x="-12" y="-240"/>
    </contour>
  </outline>
</glyph>
<glyph name="paragraph" format="2">
  <advance width="451"/>
  <unicode hex="00B6"/>
  <outline>
    <contour>
      <point x="148" y="-111" type="line"/>
      <point x="248" y="-111" type="line"/>
      <point x="248" y="750" type="line"/>
      <point x="328" y="750" type="line"/>
      <point x="328" y="-111" type="line"/>
      <point x="428" y="-111" type="line"/>
      <point x="428" y="-101" type="line"/>
      <point x="417" y="-101" type="line" smooth="yes"/>
      <point x="371" y="-101"/>
      <point x="356" y="-97"/>
      <point x="356" y="-48" type="curve" smooth="yes"/>
      <point x="356" y="686" type="line" smooth="yes"/>
      <point x="356" y="741"/>
      <point x="366" y="750"/>
      <point x="418" y="750" type="curve" smooth="yes"/>
      <point x="428" y="750" type="line"/>
      <point x="428" y="760" type="line"/>
      <point x="196" y="760" type="line" smooth="yes"/>
      <point x="83" y="760"/>
      <point x="50" y="689"/>
      <point x="50" y="582" type="curve" smooth="yes"/>
      <point x="50" y="478"/>
      <point x="77" y="386"/>
      <point x="194" y="386" type="curve" smooth="yes"/>
      <point x="220" y="386" type="line"/>
      <point x="220" y="-55" type="line" smooth="yes"/>
      <point x="220" y="-98"/>
      <point x="206" y="-101"/>
      <point x="163" y="-101" type="curve" smooth="yes"/>
      <point x="148" y="-101" type="line"/>
    </contour>
  </outline>
</glyph>
<glyph name="periodcentered" format="2">
  <advance width="208"/>
  <unicode hex="00B7"/>
  <outline>
    <contour>
      <point x="119" y="321" type="curve" smooth="yes"/>
      <point x="139" y="321"/>
      <point x="147" y="348"/>
      <point x="147" y="370" type="curve" smooth="yes"/>
      <point x="147" y="385"/>
      <point x="141" y="398"/>
      <point x="127" y="398" type="curve" smooth="yes"/>
      <point x="108" y="398"/>
      <point x="100" y="372"/>
      <point x="100" y="349" type="curve" smooth="yes"/>
      <point x="100" y="330"/>
      <point x="108" y="321"/>
    </contour>
  </outline>
</glyph>
<glyph name="cedilla" format="2">
  <advance width="263"/>
  <unicode hex="00B8"/>
  <outline>
    <contour>
      <point x="86" y="-224" type="curve" smooth="yes"/>
      <point x="147" y="-224"/>
      <point x="187" y="-185"/>
      <point x="187" y="-127" type="curve" smooth="yes"/>
      <point x="187" y="-83"/>
      <point x="164" y="-55"/>
      <point x="121" y="-52" type="curve"/>
      <point x="148" y="9" type="line"/>
      <point x="138" y="9" type="line"/>
      <point x="108" y="-60" type="line"/>
      <point x="153" y="-63"/>
      <point x="163" y="-90"/>
      <point x="163" y="-122" type="curve" smooth="yes"/>
      <point x="163" y="-176"/>
      <point x="135" y="-214"/>
      <point x="85" y="-214" type="curve" smooth="yes"/>
      <point x="73" y="-214"/>
      <point x="54" y="-212"/>
      <point x="35" y="-205" type="curve"/>
      <point x="31" y="-214" type="line"/>
      <point x="53" y="-221"/>
      <point x="69" y="-224"/>
    </contour>
  </outline>
</glyph>
<glyph name="onesuperior" format="2">
  <advance width="300"/>
  <unicode hex="00B9"/>
  <outline>
    <contour>
      <point x="88" y="387" type="line"/>
      <point x="274" y="387" type="line"/>
      <point x="277" y="397" type="line"/>
      <point x="226" y="397" type="line" smooth="yes"/>
      <point x="209" y="397"/>
      <point x="197" y="398"/>
      <point x="197" y="412" type="curve" smooth="yes"/>
      <point x="197" y="417"/>
      <point x="198" y="423"/>
      <point x="200" y="431" type="curve" smooth="yes"/>
      <point x="283" y="819" type="line"/>
      <point x="273" y="819" type="line"/>
      <point x="229" y="774"/>
      <point x="175" y="745"/>
      <point x="131" y="745" type="curve"/>
      <point x="131" y="730"/>
      <point x="138" y="724"/>
      <point x="150" y="724" type="curve" smooth="yes"/>
      <point x="177" y="724"/>
      <point x="223" y="758"/>
      <point x="249" y="789" type="curve"/>
      <point x="251" y="789" type="line"/>
      <point x="173" y="428" type="line" smooth="yes"/>
      <point x="167" y="400"/>
      <point x="154" y="397"/>
      <point x="137" y="397" type="curve" smooth="yes"/>
      <point x="91" y="397" type="line"/>
    </contour>
  </outline>
</glyph>
<glyph name="ordmasculine" format="2">
  <advance width="288"/>
  <unicode hex="00BA"/>
  <anchor x="167" y="388" name="bottom"/>
  <anchor x="243" y="724" name="top"/>
  <outline>
    <contour>
      <point x="176" y="388" type="curve" smooth="yes"/>
      <point x="275" y="388"/>
      <point x="325" y="522"/>
      <point x="325" y="610" type="curve" smooth="yes"/>
      <point x="325" y="687"/>
      <point x="286" y="721"/>
      <point x="236" y="721" type="curve" smooth="yes"/>
      <point x="140" y="721"/>
      <point x="88" y="593"/>
      <point x="88" y="502" type="curve" smooth="yes"/>
      <point x="88" y="429"/>
      <point x="121" y="388"/>
    </contour>
    <contour>
      <point x="182" y="398" type="curve" smooth="yes"/>
      <point x="141" y="398"/>
      <point x="114" y="436"/>
      <point x="114" y="504" type="curve" smooth="yes"/>
      <point x="114" y="587"/>
      <point x="154" y="711"/>
      <point x="233" y="711" type="curve" smooth="yes"/>
      <point x="273" y="711"/>
      <point x="298" y="679"/>
      <point x="298" y="610" type="curve" smooth="yes"/>
      <point x="298" y="521"/>
      <point x="255" y="398"/>
    </contour>
  </outline>
</glyph>
<glyph name="Aring" format="2">
  <advance width="507"/>
  <unicode hex="00C5"/>
  <anchor x="195" y="0" name="bottom"/>
  <anchor x="350" y="871" name="top"/>
  <anchor x="582" y="714" name="topright"/>
  <outline>
    <contour>
      <point x="-62" y="0" type="line"/>
      <point x="102" y="0" type="line"/>
      <point x="105" y="10" type="line"/>
      <point x="74" y="10" type="line" smooth="yes"/>
      <point x="40" y="10"/>
      <point x="28" y="12"/>
      <point x="28" y="30" type="curve" smooth="yes"/>
      <point x="28" y="50"/>
      <point x="41" y="75"/>
      <point x="54" y="102" type="curve" smooth="yes"/>
      <point x="248" y="512" type="line" smooth="yes"/>
      <point x="299" y="619"/>
      <point x="306" y="635"/>
      <point x="328" y="685" type="curve"/>
      <point x="329" y="634"/>
      <point x="334" y="543"/>
      <point x="338" y="484" type="curve" smooth="yes"/>
      <point x="367" y="101" type="line" smooth="yes"/>
      <point x="368" y="85"/>
      <point x="369" y="73"/>
      <point x="369" y="59" type="curve" smooth="yes"/>
      <point x="369" y="18"/>
      <point x="358" y="10"/>
      <point x="319" y="10" type="curve" smooth="yes"/>
      <point x="293" y="10" type="line"/>
      <point x="290" y="0" type="line"/>
      <point x="444" y="0" type="line"/>
      <point x="447" y="10" type="line"/>
      <point x="438" y="10" type="line" smooth="yes"/>
      <point x="409" y="10"/>
      <point x="402" y="16"/>
      <point x="396" y="99" type="curve" smooth="yes"/>
      <point x="348" y="714" type="line"/>
      <point x="342" y="713" type="line"/>
      <point x="340" y="713" type="line"/>
      <point x="333" y="714" type="line"/>
      <point x="46" y="109" type="line" smooth="yes"/>
      <point x="1" y="15"/>
      <point x="-8" y="10"/>
      <point x="-46" y="10" type="curve" smooth="yes"/>
      <point x="-59" y="10" type="line"/>
    </contour>
    <contour>
      <point x="121" y="258" type="line"/>
      <point x="372" y="258" type="line"/>
      <point x="371" y="268" type="line"/>
      <point x="125" y="268" type="line"/>
    </contour>
    <component base="ring" xOffset="126" yOffset="94"/>
  </outline>
</glyph>
<glyph name="AE" format="2">
  <advance width="720"/>
  <unicode hex="00C6"/>
  <anchor x="314" y="0" name="bottom"/>
  <anchor x="546" y="714" name="top"/>
  <outline>
    <contour>
      <point x="-57" y="0" type="line"/>
      <point x="157" y="0" type="line"/>
      <point x="159" y="10" type="line"/>
      <point x="117" y="10" type="line" smooth="yes"/>
      <point x="66" y="10"/>
      <point x="46" y="17"/>
      <point x="46" y="32" type="curve" smooth="yes"/>
      <point x="46" y="44"/>
      <point x="55" y="56"/>
      <point x="66" y="75" type="curve" smooth="yes"/>
      <point x="174" y="259" type="line"/>
      <point x="365" y="259" type="line"/>
      <point x="320" y="50" type="line" smooth="yes"/>
      <point x="312" y="15"/>
      <point x="306" y="10"/>
      <point x="247" y="10" type="curve" smooth="yes"/>
      <point x="214" y="10" type="line"/>
      <point x="211" y="0" type="line"/>
      <point x="617" y="0" type="line"/>
      <point x="657" y="161" type="line"/>
      <point x="647" y="161" type="line"/>
      <point x="633" y="113" type="line" smooth="yes"/>
      <point x="605" y="17"/>
      <point x="597" y="10"/>
      <point x="534" y="10" type="curve" smooth="yes"/>
      <point x="340" y="10" type="line"/>
      <point x="416" y="371" type="line"/>
      <point x="615" y="371" type="line"/>
      <point x="616" y="381" type="line"/>
      <point x="419" y="381" type="line"/>
      <point x="487" y="704" type="line"/>
      <point x="672" y="704" type="line" smooth="yes"/>
      <point x="711" y="704"/>
      <point x="713" y="690"/>
      <point x="713" y="652" type="curve" smooth="yes"/>
      <point x="713" y="626"/>
      <point x="706" y="573"/>
      <point x="703" y="553" type="curve"/>
      <point x="713" y="553" type="line"/>
      <point x="743" y="714" type="line"/>
      <point x="326" y="714" type="line"/>
      <point x="324" y="704" type="line"/>
      <point x="420" y="704" type="line"/>
      <point x="63" y="88" type="line" smooth="yes"/>
      <point x="18" y="10"/>
      <point x="-1" y="10"/>
      <point x="-38" y="10" type="curve" smooth="yes"/>
      <point x="-55" y="10" type="line"/>
    </contour>
    <contour>
      <point x="179" y="269" type="line"/>
      <point x="325" y="518" type="line" smooth="yes"/>
      <point x="361" y="580"/>
      <point x="395" y="642"/>
      <point x="431" y="704" type="curve"/>
      <point x="460" y="704" type="line"/>
      <point x="367" y="269" type="line"/>
    </contour>
  </outline>
</glyph>
<glyph name="Eth" format="2">
  <advance width="531"/>
  <unicode hex="00D0"/>
  <anchor x="208" y="0" name="bottom"/>
  <anchor x="360" y="714" name="top"/>
  <anchor x="307" y="357" name="center"/>
  <anchor x="610" y="714" name="topright"/>
  <outline>
    <contour>
      <point x="51" y="370" type="line"/>
      <point x="323" y="370" type="line"/>
      <point x="325" y="380" type="line"/>
      <point x="53" y="380" type="line"/>
    </contour>
    <component base="D"/>
  </outline>
</glyph>
<glyph name="Oslash" format="2">
  <advance width="537"/>
  <unicode hex="00D8"/>
  <anchor x="212" y="0" name="bottom"/>
  <anchor x="364" y="714" name="top"/>
  <anchor x="308" y="357" name="center"/>
  <anchor x="613" y="714" name="topright"/>
  <outline>
    <contour>
      <point x="40" y="-50" type="line"/>
      <point x="52" y="-50" type="line"/>
      <point x="527" y="765" type="line"/>
      <point x="515" y="765" type="line"/>
    </contour>
    <component base="O"/>
  </outline>
</glyph>
<glyph name="Thorn" format="2">
  <advance width="449"/>
  <unicode hex="00DE"/>
  <anchor x="165" y="0" name="bottom"/>
  <anchor x="317" y="714" name="top"/>
  <outline>
    <contour>
      <point x="-24" y="0" type="line"/>
      <point x="178" y="0" type="line"/>
      <point x="180" y="10" type="line"/>
      <point x="141" y="10" type="line" smooth="yes"/>
      <point x="105" y="10"/>
      <point x="94" y="18"/>
      <point x="94" y="34" type="curve" smooth="yes"/>
      <point x="94" y="41"/>
      <point x="96" y="54"/>
      <point x="99" y="69" type="curve" smooth="yes"/>
      <point x="120" y="175" type="line"/>
      <point x="149" y="175" type="line" smooth="yes"/>
      <point x="391" y="175"/>
      <point x="436" y="316"/>
      <point x="436" y="416" type="curve" smooth="yes"/>
      <point x="436" y="539"/>
      <point x="368" y="590"/>
      <point x="254" y="590" type="curve" smooth="yes"/>
      <point x="210" y="590" type="line"/>
      <point x="223" y="651" type="line" smooth="yes"/>
      <point x="232" y="691"/>
      <point x="248" y="704"/>
      <point x="290" y="704" type="curve" smooth="yes"/>
      <point x="315" y="704" type="line"/>
      <point x="317" y="714" type="line"/>
      <point x="130" y="714" type="line"/>
      <point x="128" y="704" type="line"/>
      <point x="150" y="704" type="line" smooth="yes"/>
      <point x="184" y="704"/>
      <point x="196" y="699"/>
      <point x="196" y="672" type="curve" smooth="yes"/>
      <point x="196" y="659"/>
      <point x="193" y="643"/>
      <point x="187" y="616" type="curve" smooth="yes"/>
      <point x="70" y="68" type="line" smooth="yes"/>
      <point x="61" y="24"/>
      <point x="44" y="10"/>
      <point x="1" y="10" type="curve" smooth="yes"/>
      <point x="-22" y="10" type="line"/>
    </contour>
    <contour>
      <point x="123" y="185" type="line"/>
      <point x="208" y="580" type="line"/>
      <point x="253" y="580" type="line" smooth="yes"/>
      <point x="360" y="580"/>
      <point x="408" y="526"/>
      <point x="408" y="417" type="curve" smooth="yes"/>
      <point x="408" y="281"/>
      <point x="334" y="185"/>
      <point x="149" y="185" type="curve" smooth="yes"/>
    </contour>
  </outline>
</glyph>
<glyph name="germandbls" format="2">
  <advance width="417"/>
  <unicode hex="00DF"/>
  <anchor x="219" y="-10" name="bottom"/>
  <anchor x="320" y="757" name="top"/>
  <outline>
    <contour>
      <point x="-89" y="-240" type="curve" smooth="yes"/>
      <point x="-14" y="-240"/>
      <point x="13" y="-171"/>
      <point x="48" y="-8" type="curve" smooth="yes"/>
      <point x="178" y="603" type="line" smooth="yes"/>
      <point x="196" y="687"/>
      <point x="235" y="747"/>
      <point x="304" y="747" type="curve" smooth="yes"/>
      <point x="364" y="747"/>
      <point x="395" y="708"/>
      <point x="395" y="623" type="curve" smooth="yes"/>
      <point x="395" y="604"/>
      <point x="391" y="570"/>
      <point x="385" y="540" type="curve"/>
      <point x="241" y="540"/>
      <point x="195" y="466"/>
      <point x="195" y="390" type="curve" smooth="yes"/>
      <point x="195" y="337"/>
      <point x="216" y="311"/>
      <point x="268" y="265" type="curve" smooth="yes"/>
      <point x="319" y="220"/>
      <point x="336" y="182"/>
      <point x="336" y="132" type="curve" smooth="yes"/>
      <point x="336" y="50"/>
      <point x="294" y="0"/>
      <point x="233" y="0" type="curve" smooth="yes"/>
      <point x="162" y="0"/>
      <point x="142" y="65"/>
      <point x="142" y="149" type="curve"/>
      <point x="132" y="149"/>
      <point x="117" y="139"/>
      <point x="117" y="104" type="curve" smooth="yes"/>
      <point x="117" y="53"/>
      <point x="150" y="-10"/>
      <point x="230" y="-10" type="curve" smooth="yes"/>
      <point x="310" y="-10"/>
      <point x="358" y="54"/>
      <point x="358" y="143" type="curve" smooth="yes"/>
      <point x="358" y="217"/>
      <point x="326" y="252"/>
      <point x="280" y="290" type="curve" smooth="yes"/>
      <point x="229" y="332"/>
      <point x="222" y="362"/>
      <point x="222" y="398" type="curve" smooth="yes"/>
      <point x="222" y="464"/>
      <point x="258" y="530"/>
      <point x="379" y="530" type="curve" smooth="yes"/>
      <point x="410" y="530" type="line"/>
      <point x="417" y="568"/>
      <point x="420" y="592"/>
      <point x="420" y="621" type="curve" smooth="yes"/>
      <point x="420" y="701"/>
      <point x="387" y="757"/>
      <point x="304" y="757" type="curve" smooth="yes"/>
      <point x="251" y="757"/>
      <point x="178" y="736"/>
      <point x="145" y="583" type="curve" smooth="yes"/>
      <point x="135" y="536" type="line"/>
      <point x="85" y="536" type="line"/>
      <point x="82" y="526" type="line"/>
      <point x="133" y="526" type="line"/>
      <point x="16" y="-24" type="line" smooth="yes"/>
      <point x="-15" y="-171"/>
      <point x="-34" y="-229"/>
      <point x="-90" y="-229" type="curve" smooth="yes"/>
      <point x="-101" y="-229"/>
      <point x="-114" y="-226"/>
      <point x="-123" y="-222" type="curve"/>
      <point x="-127" y="-232" type="line"/>
      <point x="-115" y="-237"/>
      <point x="-101" y="-240"/>
    </contour>
  </outline>
</glyph>
<glyph name="ae" format="2">
  <advance width="578"/>
  <unicode hex="00E6"/>
  <anchor x="253" y="0" name="bottom"/>
  <anchor x="367" y="536" name="top"/>
  <anchor x="600" y="536" name="topright"/>
  <outline>
    <contour>
      <point x="145" y="-10" type="curve" smooth="yes"/>
      <point x="204" y="-10"/>
      <point x="244" y="47"/>
      <point x="282" y="119" type="curve"/>
      <point x="284" y="119" type="line"/>
      <point x="297" y="25"/>
      <point x="340" y="-10"/>
      <point x="399" y="-10" type="curve" smooth="yes"/>
      <point x="454" y="-10"/>
      <point x="510" y="36"/>
      <point x="510" y="80" type="curve" smooth="yes"/>
      <point x="510" y="90"/>
      <point x="506" y="96"/>
      <point x="500" y="100" type="curve"/>
      <point x="479" y="34"/>
      <point x="441" y="0"/>
      <point x="398" y="0" type="curve" smooth="yes"/>
      <point x="338" y="0"/>
      <point x="305" y="66"/>
      <point x="305" y="172" type="curve" smooth="yes"/>
      <point x="305" y="207"/>
      <point x="308" y="227"/>
      <point x="310" y="248" type="curve"/>
      <point x="335" y="248" type="line" smooth="yes"/>
      <point x="482" y="248"/>
      <point x="568" y="334"/>
      <point x="568" y="443" type="curve" smooth="yes"/>
      <point x="568" y="509"/>
      <point x="537" y="546"/>
      <point x="486" y="546" type="curve" smooth="yes"/>
      <point x="441" y="546"/>
      <point x="402" y="517"/>
      <point x="375" y="482" type="curve"/>
      <point x="340" y="534"/>
      <point x="303" y="546"/>
      <point x="268" y="546" type="curve" smooth="yes"/>
      <point x="113" y="546"/>
      <point x="47" y="311"/>
      <point x="47" y="162" type="curve" smooth="yes"/>
      <point x="47" y="27"/>
      <point x="101" y="-10"/>
    </contour>
    <contour>
      <point x="149" y="0" type="curve" smooth="yes"/>
      <point x="104" y="0"/>
      <point x="75" y="55"/>
      <point x="75" y="154" type="curve" smooth="yes"/>
      <point x="75" y="302"/>
      <point x="139" y="533"/>
      <point x="269" y="533" type="curve" smooth="yes"/>
      <point x="310" y="533"/>
      <point x="342" y="520"/>
      <point x="369" y="475" type="curve"/>
      <point x="315" y="404"/>
      <point x="280" y="281"/>
      <point x="280" y="182" type="curve" smooth="yes"/>
      <point x="280" y="161"/>
      <point x="280" y="150"/>
      <point x="281" y="134" type="curve"/>
      <point x="239" y="47"/>
      <point x="199" y="0"/>
    </contour>
    <contour>
      <point x="325" y="258" type="curve" smooth="yes"/>
      <point x="312" y="258" type="line"/>
      <point x="333" y="403"/>
      <point x="403" y="536"/>
      <point x="487" y="536" type="curve" smooth="yes"/>
      <point x="516" y="536"/>
      <point x="541" y="519"/>
      <point x="541" y="455" type="curve" smooth="yes"/>
      <point x="541" y="351"/>
      <point x="475" y="258"/>
    </contour>
  </outline>
</glyph>
<glyph name="eth" format="2">
  <advance width="415"/>
  <unicode hex="00F0"/>
  <anchor x="151" y="0" name="bottom"/>
  <anchor x="312" y="760" name="top"/>
  <outline>
    <contour>
      <point x="160" y="-10" type="curve" smooth="yes"/>
      <point x="290" y="-10"/>
      <point x="376" y="150"/>
      <point x="376" y="370" type="curve" smooth="yes"/>
      <point x="376" y="504"/>
      <point x="344" y="697"/>
      <point x="201" y="753" type="curve"/>
      <point x="197" y="742" type="line"/>
      <point x="303" y="699"/>
      <point x="347" y="530"/>
      <point x="347" y="402" type="curve"/>
      <point x="329" y="480"/>
      <point x="292" y="497"/>
      <point x="249" y="497" type="curve" smooth="yes"/>
      <point x="99" y="497"/>
      <point x="32" y="293"/>
      <point x="32" y="162" type="curve" smooth="yes"/>
      <point x="32" y="51"/>
      <point x="80" y="-10"/>
    </contour>
    <contour>
      <point x="162" y="0" type="curve" smooth="yes"/>
      <point x="103" y="0"/>
      <point x="62" y="44"/>
      <point x="62" y="151" type="curve" smooth="yes"/>
      <point x="62" y="276"/>
      <point x="117" y="487"/>
      <point x="247" y="487" type="curve" smooth="yes"/>
      <point x="312" y="487"/>
      <point x="346" y="434"/>
      <point x="346" y="325" type="curve" smooth="yes"/>
      <point x="346" y="170"/>
      <point x="277" y="0"/>
    </contour>
    <contour>
      <point x="189" y="571" type="line"/>
      <point x="421" y="738" type="line"/>
      <point x="424" y="751" type="line"/>
      <point x="192" y="585" type="line"/>
    </contour>
  </outline>
</glyph>
<glyph name="thorn" format="2">
  <advance width="386"/>
  <unicode hex="00FE"/>
  <anchor x="85" y="-240" name="bottom"/>
  <anchor x="298" y="760" name="top"/>
  <outline>
    <contour>
      <point x="158" y="666" type="curve" smooth="yes"/>
      <point x="-33" y="-240" type="line"/>
      <point x="66" y="-240" type="line"/>
      <point x="69" y="-230" type="line"/>
      <point x="56" y="-230" type="line" smooth="yes"/>
      <point x="19" y="-230"/>
      <point x="4" y="-228"/>
      <point x="4" y="-207" type="curve" smooth="yes"/>
      <point x="4" y="-201"/>
      <point x="5" y="-190"/>
      <point x="8" y="-175" type="curve" smooth="yes"/>
      <point x="37" y="-35" type="line" smooth="yes"/>
      <point x="40" y="-22"/>
      <point x="42" y="-12"/>
      <point x="47" y="14" type="curve"/>
      <point x="65" y="0"/>
      <point x="87" y="-10"/>
      <point x="118" y="-10" type="curve" smooth="yes"/>
      <point x="273" y="-10"/>
      <point x="359" y="241"/>
      <point x="359" y="400" type="curve" smooth="yes"/>
      <point x="359" y="491"/>
      <point x="335" y="546"/>
      <point x="277" y="546" type="curve" smooth="yes"/>
      <point x="216" y="546"/>
      <point x="164" y="477"/>
      <point x="128" y="393" type="curve"/>
      <point x="126" y="393" type="line"/>
      <point x="134" y="425"/>
      <point x="142" y="457"/>
      <point x="149" y="488" type="curve" smooth="yes"/>
      <point x="206" y="760" type="line"/>
      <point x="105" y="760" type="line"/>
      <point x="101" y="750" type="line"/>
      <point x="130" y="750" type="line" smooth="yes"/>
      <point x="154" y="750"/>
      <point x="168" y="745"/>
      <point x="168" y="725" type="curve" smooth="yes"/>
      <point x="168" y="714"/>
      <point x="164" y="695"/>
    </contour>
    <contour>
      <point x="117" y="0" type="curve" smooth="yes"/>
      <point x="84" y="0"/>
      <point x="60" y="16"/>
      <point x="51" y="27" type="curve"/>
      <point x="106" y="288" type="line" smooth="yes"/>
      <point x="128" y="393"/>
      <point x="191" y="530"/>
      <point x="272" y="530" type="curve" smooth="yes"/>
      <point x="312" y="530"/>
      <point x="331" y="502"/>
      <point x="331" y="415" type="curve" smooth="yes"/>
      <point x="331" y="239"/>
      <point x="250" y="0"/>
    </contour>
  </outline>
</glyph>
<glyph name="dcroat" format="2">
  <advance width="396"/>
  <unicode hex="0111"/>
  <anchor x="130" y="0" name="bottom"/>
  <anchor x="292" y="760" name="top"/>
  <anchor x="243" y="268" name="center"/>
  <anchor x="473" y="760" name="topright"/>
  <outline>
    <contour>
      <point x="235" y="630" type="line"/>
      <point x="463" y="630" type="line"/>
      <point x="465" y="640" type="line"/>
      <point x="237" y="640" type="line"/>
    </contour>
    <component base="d"/>
  </outline>
</glyph>
<glyph name="hbar" format="2">
  <advance width="395"/>
  <unicode hex="0127"/>
  <anchor x="147" y="0" name="bottom"/>
  <anchor x="309" y="760" name="top"/>
  <anchor x="261" y="268" name="center"/>
  <anchor x="419" y="760" name="topright"/>
  <outline>
    <contour>
      <point x="82" y="630" type="line"/>
      <point x="310" y="630" type="line"/>
      <point x="312" y="640" type="line"/>
      <point x="84" y="640" type="line"/>
    </contour>
    <component base="h"/>
  </outline>
</glyph>
<glyph name="kgreenlandic" format="2">
  <advance width="413"/>
  <unicode hex="0138"/>
  <anchor x="169" y="0" name="bottom"/>
  <anchor x="267" y="536" name="top"/>
  <outline>
    <contour>
      <point x="349" y="-7" type="curve" smooth="yes"/>
      <point x="360" y="-7" type="line"/>
      <point x="362" y="3" type="line"/>
      <point x="309" y="3"/>
      <point x="299" y="16"/>
      <point x="284" y="69" type="curve" smooth="yes"/>
      <point x="213" y="323" type="line"/>
      <point x="209" y="316" type="line"/>
      <point x="369" y="475" type="line" smooth="yes"/>
      <point x="403" y="509"/>
      <point x="417" y="526"/>
      <point x="451" y="526" type="curve"/>
      <point x="453" y="536" type="line"/>
      <point x="306" y="536" type="line"/>
      <point x="304" y="526" type="line"/>
      <point x="359" y="526"/>
      <point x="375" y="525"/>
      <point x="375" y="507" type="curve" smooth="yes"/>
      <point x="375" y="497"/>
      <point x="364" y="484"/>
      <point x="340" y="461" type="curve" smooth="yes"/>
      <point x="94" y="219" type="line"/>
      <point x="120" y="335"/>
      <point x="129" y="379"/>
      <point x="135" y="408" type="curve" smooth="yes"/>
      <point x="163" y="536" type="line"/>
      <point x="64" y="536" type="line"/>
      <point x="61" y="526" type="line"/>
      <point x="91" y="526" type="line" smooth="yes"/>
      <point x="112" y="526"/>
      <point x="124" y="519"/>
      <point x="124" y="501" type="curve" smooth="yes"/>
      <point x="124" y="490"/>
      <point x="123" y="479"/>
      <point x="119" y="461" type="curve" smooth="yes"/>
      <point x="22" y="0" type="line"/>
      <point x="50" y="0" type="line"/>
      <point x="93" y="205" type="line"/>
      <point x="206" y="314" type="line"/>
      <point x="191" y="309" type="line"/>
      <point x="255" y="77" type="line" smooth="yes"/>
      <point x="275" y="3"/>
      <point x="291" y="-7"/>
    </contour>
  </outline>
</glyph>
<glyph name="Lslash" format="2">
  <advance width="462"/>
  <unicode hex="0141"/>
  <anchor x="174" y="0" name="bottom"/>
  <anchor x="326" y="714" name="top"/>
  <anchor x="273" y="357" name="center"/>
  <anchor x="461" y="714" name="topright"/>
  <outline>
    <contour>
      <point x="16" y="252" type="line"/>
      <point x="311" y="405" type="line"/>
      <point x="313" y="418" type="line"/>
      <point x="18" y="264" type="line"/>
    </contour>
    <component base="L"/>
  </outline>
</glyph>
<glyph name="lslash" format="2">
  <advance width="196"/>
  <unicode hex="0142"/>
  <anchor x="40" y="0" name="bottom"/>
  <anchor x="202" y="760" name="top"/>
  <anchor x="168" y="268" name="center"/>
  <anchor x="291" y="760" name="topright"/>
  <outline>
    <contour>
      <point x="-4" y="260" type="line"/>
      <point x="196" y="362" type="line"/>
      <point x="199" y="376" type="line"/>
      <point x="-1" y="274" type="line"/>
    </contour>
    <component base="l"/>
  </outline>
</glyph>
<glyph name="Eng" format="2">
  <advance width="583"/>
  <unicode hex="014A"/>
  <anchor x="197" y="-240" name="bottom"/>
  <anchor x="400" y="714" name="top"/>
  <outline>
    <contour>
      <point x="265" y="-240" type="curve" smooth="yes"/>
      <point x="339" y="-240"/>
      <point x="372" y="-171"/>
      <point x="407" y="0" type="curve" smooth="yes"/>
      <point x="540" y="616" type="line" smooth="yes"/>
      <point x="557" y="693"/>
      <point x="568" y="704"/>
      <point x="608" y="704" type="curve" smooth="yes"/>
      <point x="645" y="704" type="line"/>
      <point x="647" y="714" type="line"/>
      <point x="461" y="714" type="line"/>
      <point x="459" y="704" type="line"/>
      <point x="495" y="704" type="line" smooth="yes"/>
      <point x="522" y="704"/>
      <point x="537" y="696"/>
      <point x="537" y="674" type="curve" smooth="yes"/>
      <point x="537" y="663"/>
      <point x="535" y="649"/>
      <point x="528" y="616" type="curve" smooth="yes"/>
      <point x="407" y="51" type="line"/>
      <point x="245" y="714" type="line"/>
      <point x="132" y="714" type="line"/>
      <point x="130" y="704" type="line"/>
      <point x="179" y="704" type="line" smooth="yes"/>
      <point x="200" y="704"/>
      <point x="210" y="699"/>
      <point x="210" y="684" type="curve" smooth="yes"/>
      <point x="210" y="678"/>
      <point x="209" y="669"/>
      <point x="206" y="653" type="curve" smooth="yes"/>
      <point x="79" y="62" type="line" smooth="yes"/>
      <point x="69" y="16"/>
      <point x="56" y="10"/>
      <point x="18" y="10" type="curve" smooth="yes"/>
      <point x="-18" y="10" type="line"/>
      <point x="-20" y="0" type="line"/>
      <point x="163" y="0" type="line"/>
      <point x="165" y="10" type="line"/>
      <point x="124" y="10" type="line" smooth="yes"/>
      <point x="98" y="10"/>
      <point x="87" y="17"/>
      <point x="87" y="32" type="curve" smooth="yes"/>
      <point x="87" y="41"/>
      <point x="90" y="55"/>
      <point x="94" y="75" type="curve" smooth="yes"/>
      <point x="225" y="693" type="line"/>
      <point x="395" y="0" type="line"/>
      <point x="358" y="-190"/>
      <point x="317" y="-230"/>
      <point x="264" y="-230" type="curve" smooth="yes"/>
      <point x="247" y="-230"/>
      <point x="224" y="-225"/>
      <point x="212" y="-219" type="curve"/>
      <point x="209" y="-229" type="line"/>
      <point x="226" y="-236"/>
      <point x="238" y="-240"/>
    </contour>
  </outline>
</glyph>
<glyph name="oe" format="2">
  <advance width="612"/>
  <unicode hex="0153"/>
  <anchor x="240" y="0" name="bottom"/>
  <anchor x="354" y="536" name="top"/>
  <outline>
    <contour>
      <point x="148" y="-10" type="curve" smooth="yes"/>
      <point x="225" y="-10"/>
      <point x="279" y="62"/>
      <point x="315" y="154" type="curve"/>
      <point x="325" y="40"/>
      <point x="370" y="-10"/>
      <point x="431" y="-10" type="curve" smooth="yes"/>
      <point x="496" y="-10"/>
      <point x="542" y="45"/>
      <point x="542" y="86" type="curve" smooth="yes"/>
      <point x="542" y="94"/>
      <point x="540" y="98"/>
      <point x="535" y="100" type="curve"/>
      <point x="512" y="26"/>
      <point x="472" y="0"/>
      <point x="436" y="0" type="curve" smooth="yes"/>
      <point x="377" y="0"/>
      <point x="342" y="67"/>
      <point x="342" y="168" type="curve" smooth="yes"/>
      <point x="342" y="202"/>
      <point x="346" y="240"/>
      <point x="347" y="248" type="curve"/>
      <point x="356" y="248"/>
      <point x="369" y="248"/>
      <point x="387" y="248" type="curve" smooth="yes"/>
      <point x="501" y="248"/>
      <point x="602" y="319"/>
      <point x="602" y="441" type="curve" smooth="yes"/>
      <point x="602" y="508"/>
      <point x="572" y="546"/>
      <point x="521" y="546" type="curve" smooth="yes"/>
      <point x="447" y="546"/>
      <point x="392" y="466"/>
      <point x="358" y="378" type="curve"/>
      <point x="352" y="497"/>
      <point x="309" y="546"/>
      <point x="244" y="546" type="curve" smooth="yes"/>
      <point x="105" y="546"/>
      <point x="31" y="321"/>
      <point x="31" y="169" type="curve" smooth="yes"/>
      <point x="31" y="48"/>
      <point x="78" y="-10"/>
    </contour>
    <contour>
      <point x="150" y="0" type="curve" smooth="yes"/>
      <point x="95" y="0"/>
      <point x="59" y="43"/>
      <point x="59" y="164" type="curve" smooth="yes"/>
      <point x="59" y="331"/>
      <point x="128" y="536"/>
      <point x="240" y="536" type="curve" smooth="yes"/>
      <point x="303" y="536"/>
      <point x="329" y="472"/>
      <point x="329" y="367" type="curve" smooth="yes"/>
      <point x="329" y="211"/>
      <point x="273" y="0"/>
    </contour>
    <contour>
      <point x="350" y="258" type="line"/>
      <point x="373" y="393"/>
      <point x="435" y="536"/>
      <point x="520" y="536" type="curve" smooth="yes"/>
      <point x="556" y="536"/>
      <point x="574" y="510"/>
      <point x="574" y="454" type="curve" smooth="yes"/>
      <point x="574" y="328"/>
      <point x="485" y="258"/>
      <point x="389" y="258" type="curve" smooth="yes"/>
    </contour>
  </outline>
</glyph>
<glyph name="Tbar" format="2">
  <advance width="448"/>
  <unicode hex="0166"/>
  <anchor x="168" y="0" name="bottom"/>
  <anchor x="320" y="714" name="top"/>
  <anchor x="268" y="357" name="center"/>
  <anchor x="528" y="714" name="topright"/>
  <outline>
    <contour>
      <point x="97" y="355" type="line"/>
      <point x="388" y="355" type="line"/>
      <point x="390" y="365" type="line"/>
      <point x="99" y="365" type="line"/>
    </contour>
    <component base="T" xOffset="2"/>
  </outline>
</glyph>
<glyph name="tbar" format="2">
  <advance width="250"/>
  <unicode hex="0167"/>
  <anchor x="65" y="0" name="bottom"/>
  <anchor x="205" y="659" name="top"/>
  <anchor x="179" y="268" name="center"/>
  <anchor x="308" y="659" name="topright"/>
  <outline>
    <contour>
      <point x="21" y="299" type="line"/>
      <point x="196" y="299" type="line"/>
      <point x="198" y="309" type="line"/>
      <point x="23" y="309" type="line"/>
    </contour>
    <component base="t"/>
  </outline>
</glyph>
<glyph name="longs" format="2">
  <advance width="176"/>
  <unicode hex="017F"/>
  <anchor x="-81" y="-240" name="bottom"/>
  <anchor x="272" y="770" name="top"/>
  <outline>
    <contour>
      <point x="-89" y="-240" type="curve" smooth="yes"/>
      <point x="-24" y="-240"/>
      <point x="1" y="-204"/>
      <point x="35" y="-43" type="curve" smooth="yes"/>
      <point x="177" y="628" type="line" smooth="yes"/>
      <point x="198" y="726"/>
      <point x="217" y="760"/>
      <point x="260" y="760" type="curve" smooth="yes"/>
      <point x="300" y="760"/>
      <point x="310" y="731"/>
      <point x="306" y="653" type="curve"/>
      <point x="323" y="653"/>
      <point x="334" y="666"/>
      <point x="334" y="688" type="curve" smooth="yes"/>
      <point x="334" y="734"/>
      <point x="311" y="770"/>
      <point x="261" y="770" type="curve" smooth="yes"/>
      <point x="199" y="770"/>
      <point x="167" y="710"/>
      <point x="146" y="613" type="curve" smooth="yes"/>
      <point x="3" y="-58" type="line" smooth="yes"/>
      <point x="-25" y="-190"/>
      <point x="-49" y="-230"/>
      <point x="-91" y="-230" type="curve" smooth="yes"/>
      <point x="-104" y="-230"/>
      <point x="-118" y="-227"/>
      <point x="-127" y="-222" type="curve"/>
      <point x="-130" y="-232" type="line"/>
      <point x="-119" y="-237"/>
      <point x="-103" y="-240"/>
    </contour>
  </outline>
</glyph>
<glyph name="uni0191" format="2">
  <advance width="518"/>
  <unicode hex="0191"/>
  <anchor x="77" y="-10" name="bottom"/>
  <anchor x="413" y="714" name="top"/>
  <outline>
    <contour>
      <point x="77" y="-10" type="curve" smooth="yes"/>
      <point x="157" y="-10"/>
      <point x="194" y="51"/>
      <point x="214" y="146" type="curve" smooth="yes"/>
      <point x="261" y="366" type="line"/>
      <point x="456" y="366" type="line"/>
      <point x="458" y="376" type="line"/>
      <point x="263" y="376" type="line"/>
      <point x="333" y="704" type="line"/>
      <point x="510" y="704" type="line" smooth="yes"/>
      <point x="544" y="704"/>
      <point x="556" y="690"/>
      <point x="556" y="661" type="curve" smooth="yes"/>
      <point x="556" y="638"/>
      <point x="550" y="603"/>
      <point x="543" y="553" type="curve"/>
      <point x="553" y="553" type="line"/>
      <point x="584" y="714" type="line"/>
      <point x="231" y="714" type="line"/>
      <point x="228" y="704" type="line"/>
      <point x="264" y="704" type="line" smooth="yes"/>
      <point x="290" y="704"/>
      <point x="301" y="700"/>
      <point x="301" y="686" type="curve" smooth="yes"/>
      <point x="301" y="680"/>
      <point x="300" y="674"/>
      <point x="297" y="660" type="curve" smooth="yes"/>
      <point x="184" y="131" type="line" smooth="yes"/>
      <point x="166" y="48"/>
      <point x="141" y="0"/>
      <point x="80" y="0" type="curve" smooth="yes"/>
      <point x="17" y="0"/>
      <point x="-2" y="51"/>
      <point x="-10" y="122" type="curve" smooth="yes"/>
      <point x="-11" y="131"/>
      <point x="-11" y="140"/>
      <point x="-11" y="149" type="curve"/>
      <point x="-21" y="149"/>
      <point x="-36" y="139"/>
      <point x="-36" y="104" type="curve" smooth="yes"/>
      <point x="-36" y="53"/>
      <point x="-3" y="-10"/>
    </contour>
  </outline>
</glyph>
<glyph name="florin" format="2">
  <advance width="254"/>
  <unicode hex="0192"/>
  <anchor x="24" y="-15" name="bottom"/>
  <anchor x="330" y="770" name="top"/>
  <anchor x="445" y="770" name="topright"/>
  <outline>
    <contour>
      <point x="24" y="-15" type="curve" smooth="yes"/>
      <point x="82" y="-15"/>
      <point x="115" y="36"/>
      <point x="134" y="125" type="curve" smooth="yes"/>
      <point x="219" y="526" type="line"/>
      <point x="291" y="526" type="line"/>
      <point x="293" y="536" type="line"/>
      <point x="221" y="536" type="line"/>
      <point x="245" y="646" type="line" smooth="yes"/>
      <point x="259" y="708"/>
      <point x="280" y="760"/>
      <point x="328" y="760" type="curve" smooth="yes"/>
      <point x="362" y="760"/>
      <point x="374" y="734"/>
      <point x="371" y="658" type="curve"/>
      <point x="387" y="658"/>
      <point x="398" y="670"/>
      <point x="398" y="697" type="curve" smooth="yes"/>
      <point x="398" y="737"/>
      <point x="376" y="770"/>
      <point x="328" y="770" type="curve" smooth="yes"/>
      <point x="266" y="770"/>
      <point x="233" y="715"/>
      <point x="214" y="630" type="curve" smooth="yes"/>
      <point x="193" y="536" type="line"/>
      <point x="124" y="531" type="line"/>
      <point x="123" y="526" type="line"/>
      <point x="191" y="526" type="line"/>
      <point x="103" y="111" type="line" smooth="yes"/>
      <point x="88" y="42"/>
      <point x="68" y="-5"/>
      <point x="24" y="-5" type="curve" smooth="yes"/>
      <point x="-14" y="-5"/>
      <point x="-26" y="21"/>
      <point x="-23" y="97" type="curve"/>
      <point x="-39" y="97"/>
      <point x="-50" y="85"/>
      <point x="-50" y="58" type="curve" smooth="yes"/>
      <point x="-50" y="18"/>
      <point x="-28" y="-15"/>
    </contour>
  </outline>
</glyph>
<glyph name="Ohorn" format="2">
  <advance width="559"/>
  <unicode hex="01A0"/>
  <anchor x="216" y="0" name="bottom"/>
  <anchor x="368" y="714" name="top"/>
  <outline>
    <contour>
      <point x="226" y="-11" type="curve" smooth="yes"/>
      <point x="436" y="-11"/>
      <point x="523" y="303"/>
      <point x="523" y="486" type="curve" smooth="yes"/>
      <point x="523" y="519"/>
      <point x="520" y="549"/>
      <point x="514" y="574" type="curve"/>
      <point x="577" y="607"/>
      <point x="614" y="683"/>
      <point x="614" y="738" type="curve" smooth="yes"/>
      <point x="614" y="758"/>
      <point x="605" y="770"/>
      <point x="590" y="770" type="curve" smooth="yes"/>
      <point x="576" y="770"/>
      <point x="561" y="760"/>
      <point x="561" y="738" type="curve" smooth="yes"/>
      <point x="561" y="708"/>
      <point x="580" y="703"/>
      <point x="580" y="682" type="curve" smooth="yes"/>
      <point x="580" y="650"/>
      <point x="553" y="606"/>
      <point x="511" y="584" type="curve"/>
      <point x="485" y="685"/>
      <point x="415" y="724"/>
      <point x="341" y="724" type="curve" smooth="yes"/>
      <point x="141" y="724"/>
      <point x="42" y="426"/>
      <point x="42" y="230" type="curve" smooth="yes"/>
      <point x="42" y="62"/>
      <point x="125" y="-11"/>
    </contour>
    <contour>
      <point x="225" y="-1" type="curve" smooth="yes"/>
      <point x="135" y="-1"/>
      <point x="70" y="70"/>
      <point x="70" y="230" type="curve" smooth="yes"/>
      <point x="70" y="414"/>
      <point x="161" y="714"/>
      <point x="341" y="714" type="curve" smooth="yes"/>
      <point x="432" y="714"/>
      <point x="495" y="649"/>
      <point x="495" y="486" type="curve" smooth="yes"/>
      <point x="495" y="313"/>
      <point x="411" y="-1"/>
    </contour>
  </outline>
</glyph>
<glyph name="ohorn" format="2">
  <advance width="416"/>
  <unicode hex="01A1"/>
  <anchor x="163" y="0" name="bottom"/>
  <anchor x="277" y="536" name="top"/>
  <outline>
    <contour>
      <point x="164" y="-10" type="curve" smooth="yes"/>
      <point x="314" y="-10"/>
      <point x="388" y="219"/>
      <point x="388" y="362" type="curve" smooth="yes"/>
      <point x="388" y="388"/>
      <point x="386" y="412"/>
      <point x="382" y="432" type="curve"/>
      <point x="440" y="464"/>
      <point x="487" y="525"/>
      <point x="487" y="596" type="curve" smooth="yes"/>
      <point x="487" y="616"/>
      <point x="477" y="628"/>
      <point x="463" y="628" type="curve" smooth="yes"/>
      <point x="447" y="628"/>
      <point x="433" y="616"/>
      <point x="433" y="590" type="curve" smooth="yes"/>
      <point x="433" y="569"/>
      <point x="449" y="560"/>
      <point x="449" y="541" type="curve" smooth="yes"/>
      <point x="449" y="504"/>
      <point x="417" y="460"/>
      <point x="380" y="442" type="curve"/>
      <point x="362" y="515"/>
      <point x="318" y="546"/>
      <point x="264" y="546" type="curve" smooth="yes"/>
      <point x="119" y="546"/>
      <point x="42" y="315"/>
      <point x="42" y="172" type="curve" smooth="yes"/>
      <point x="42" y="48"/>
      <point x="92" y="-10"/>
    </contour>
    <contour>
      <point x="166" y="0" type="curve" smooth="yes"/>
      <point x="107" y="0"/>
      <point x="70" y="45"/>
      <point x="70" y="166" type="curve" smooth="yes"/>
      <point x="70" y="328"/>
      <point x="140" y="536"/>
      <point x="262" y="536" type="curve" smooth="yes"/>
      <point x="324" y="536"/>
      <point x="360" y="484"/>
      <point x="360" y="368" type="curve" smooth="yes"/>
      <point x="360" y="214"/>
      <point x="293" y="0"/>
    </contour>
  </outline>
</glyph>
<glyph name="Uhorn" format="2">
  <advance width="532"/>
  <unicode hex="01AF"/>
  <anchor x="200" y="0" name="bottom"/>
  <anchor x="352" y="714" name="top"/>
  <outline>
    <contour>
      <point x="229" y="-10" type="curve" smooth="yes"/>
      <point x="354" y="-10"/>
      <point x="403" y="73"/>
      <point x="431" y="204" type="curve" smooth="yes"/>
      <point x="508" y="569" type="line"/>
      <point x="579" y="598"/>
      <point x="620" y="680"/>
      <point x="620" y="738" type="curve" smooth="yes"/>
      <point x="620" y="758"/>
      <point x="611" y="770"/>
      <point x="596" y="770" type="curve" smooth="yes"/>
      <point x="582" y="770"/>
      <point x="567" y="760"/>
      <point x="567" y="738" type="curve" smooth="yes"/>
      <point x="567" y="708"/>
      <point x="586" y="703"/>
      <point x="586" y="682" type="curve" smooth="yes"/>
      <point x="586" y="648"/>
      <point x="556" y="601"/>
      <point x="511" y="581" type="curve"/>
      <point x="539" y="714" type="line"/>
      <point x="437" y="714" type="line"/>
      <point x="435" y="704" type="line"/>
      <point x="467" y="704" type="line" smooth="yes"/>
      <point x="496" y="704"/>
      <point x="514" y="699"/>
      <point x="514" y="662" type="curve" smooth="yes"/>
      <point x="514" y="650"/>
      <point x="512" y="638"/>
      <point x="507" y="616" type="curve" smooth="yes"/>
      <point x="419" y="209" type="line" smooth="yes"/>
      <point x="397" y="107"/>
      <point x="354" y="4"/>
      <point x="233" y="4" type="curve" smooth="yes"/>
      <point x="147" y="4"/>
      <point x="102" y="57"/>
      <point x="102" y="146" type="curve" smooth="yes"/>
      <point x="102" y="169"/>
      <point x="105" y="211"/>
      <point x="117" y="268" type="curve" smooth="yes"/>
      <point x="191" y="616" type="line" smooth="yes"/>
      <point x="207" y="693"/>
      <point x="221" y="704"/>
      <point x="259" y="704" type="curve" smooth="yes"/>
      <point x="291" y="704" type="line"/>
      <point x="293" y="714" type="line"/>
      <point x="105" y="714" type="line"/>
      <point x="103" y="704" type="line"/>
      <point x="131" y="704" type="line" smooth="yes"/>
      <point x="159" y="704"/>
      <point x="171" y="696"/>
      <point x="171" y="673" type="curve" smooth="yes"/>
      <point x="171" y="664"/>
      <point x="169" y="644"/>
      <point x="163" y="616" type="curve" smooth="yes"/>
      <point x="89" y="267" type="line" smooth="yes"/>
      <point x="78" y="216"/>
      <point x="73" y="176"/>
      <point x="73" y="146" type="curve" smooth="yes"/>
      <point x="73" y="47"/>
      <point x="126" y="-10"/>
    </contour>
  </outline>
</glyph>
<glyph name="uni01B5" format="2">
  <advance width="453"/>
  <unicode hex="01B5"/>
  <anchor x="162" y="0" name="bottom"/>
  <anchor x="314" y="714" name="top"/>
  <anchor x="502" y="714" name="topright"/>
  <outline>
    <contour>
      <point x="98" y="369" type="line"/>
      <point x="368" y="369" type="line"/>
      <point x="370" y="379" type="line"/>
      <point x="100" y="379" type="line"/>
    </contour>
    <component base="Z" xOffset="9"/>
  </outline>
</glyph>
<glyph name="uni01B6" format="2">
  <advance width="349"/>
  <unicode hex="01B6"/>
  <anchor x="132" y="0" name="bottom"/>
  <anchor x="246" y="536" name="top"/>
  <anchor x="404" y="536" name="topright"/>
  <outline>
    <contour>
      <point x="85" y="267" type="line"/>
      <point x="271" y="267" type="line"/>
      <point x="273" y="277" type="line"/>
      <point x="87" y="277" type="line"/>
    </contour>
    <component base="z" xOffset="10"/>
  </outline>
</glyph>
<glyph name="uni01E4" format="2">
  <advance width="512"/>
  <unicode hex="01E4"/>
  <anchor x="183" y="0" name="bottom"/>
  <anchor x="335" y="714" name="top"/>
  <anchor x="560" y="714" name="topright"/>
  <outline>
    <contour>
      <point x="275" y="179" type="line"/>
      <point x="474" y="179" type="line"/>
      <point x="476" y="189" type="line"/>
      <point x="277" y="189" type="line"/>
    </contour>
    <component base="G" xOffset="-4"/>
  </outline>
</glyph>
<glyph name="Aringacute" format="2">
  <advance width="507"/>
  <unicode hex="01FA"/>
  <anchor x="194" y="0" name="bottom"/>
  <anchor x="383" y="929" name="top"/>
  <outline>
    <contour>
      <point x="-62" y="0" type="line"/>
      <point x="102" y="0" type="line"/>
      <point x="105" y="9" type="line"/>
      <point x="74" y="9" type="line" smooth="yes"/>
      <point x="40" y="9"/>
      <point x="28" y="10"/>
      <point x="28" y="26" type="curve" smooth="yes"/>
      <point x="28" y="43"/>
      <point x="41" y="65"/>
      <point x="54" y="88" type="curve" smooth="yes"/>
      <point x="145" y="253" type="line"/>
      <point x="352" y="253" type="line"/>
      <point x="367" y="87" type="line" smooth="yes"/>
      <point x="368" y="73"/>
      <point x="369" y="63"/>
      <point x="369" y="51" type="curve" smooth="yes"/>
      <point x="369" y="15"/>
      <point x="358" y="9"/>
      <point x="319" y="9" type="curve" smooth="yes"/>
      <point x="293" y="9" type="line"/>
      <point x="290" y="0" type="line"/>
      <point x="444" y="0" type="line"/>
      <point x="447" y="9" type="line"/>
      <point x="438" y="9" type="line" smooth="yes"/>
      <point x="409" y="9"/>
      <point x="402" y="14"/>
      <point x="396" y="85" type="curve" smooth="yes"/>
      <point x="349" y="608" type="line"/>
      <point x="399" y="608"/>
      <point x="439" y="642"/>
      <point x="439" y="698" type="curve" smooth="yes"/>
      <point x="439" y="758"/>
      <point x="399" y="790"/>
      <point x="347" y="790" type="curve" smooth="yes"/>
      <point x="295" y="790"/>
      <point x="255" y="755"/>
      <point x="255" y="699" type="curve" smooth="yes"/>
      <point x="255" y="650"/>
      <point x="286" y="617"/>
      <point x="330" y="609" type="curve"/>
      <point x="46" y="94" type="line" smooth="yes"/>
      <point x="1" y="13"/>
      <point x="-8" y="9"/>
      <point x="-46" y="9" type="curve" smooth="yes"/>
      <point x="-59" y="9" type="line"/>
    </contour>
    <contour>
      <point x="150" y="262" type="line"/>
      <point x="248" y="441" type="line" smooth="yes"/>
      <point x="299" y="533"/>
      <point x="306" y="547"/>
      <point x="328" y="590" type="curve"/>
      <point x="329" y="546"/>
      <point x="334" y="468"/>
      <point x="338" y="417" type="curve" smooth="yes"/>
      <point x="352" y="262" type="line"/>
    </contour>
    <contour>
      <point x="348" y="618" type="curve" smooth="yes"/>
      <point x="304" y="618"/>
      <point x="266" y="645"/>
      <point x="266" y="699" type="curve" smooth="yes"/>
      <point x="266" y="752"/>
      <point x="301" y="780"/>
      <point x="347" y="780" type="curve" smooth="yes"/>
      <point x="393" y="780"/>
      <point x="428" y="751"/>
      <point x="428" y="698" type="curve" smooth="yes"/>
      <point x="428" y="646"/>
      <point x="393" y="618"/>
    </contour>
    <contour>
      <point x="330" y="829" type="line"/>
      <point x="335" y="829" type="line"/>
      <point x="375" y="850"/>
      <point x="416" y="891"/>
      <point x="446" y="918" type="curve"/>
      <point x="448" y="925" type="line"/>
      <point x="404" y="925" type="line"/>
      <point x="385" y="893"/>
      <point x="360" y="859"/>
      <point x="332" y="835" type="curve"/>
    </contour>
  </outline>
</glyph>
<glyph name="uni023D" format="2">
  <advance width="434"/>
  <unicode hex="023D"/>
  <anchor x="173" y="0" name="bottom"/>
  <anchor x="325" y="714" name="top"/>
  <anchor x="272" y="357" name="center"/>
  <anchor x="460" y="714" name="topright"/>
  <outline>
    <contour>
      <point x="63" y="370" type="line"/>
      <point x="265" y="370" type="line"/>
      <point x="267" y="380" type="line"/>
      <point x="65" y="380" type="line"/>
    </contour>
    <component base="L" xOffset="-1"/>
  </outline>
</glyph>
<glyph name="uni023E" format="2">
  <advance width="411"/>
  <unicode hex="023E"/>
  <anchor x="167" y="0" name="bottom"/>
  <anchor x="319" y="714" name="top"/>
  <anchor x="267" y="357" name="center"/>
  <anchor x="527" y="714" name="topright"/>
  <outline>
    <contour>
      <point x="-16" y="-71" type="line"/>
      <point x="-4" y="-71" type="line"/>
      <point x="505" y="760" type="line"/>
      <point x="493" y="760" type="line"/>
    </contour>
    <component base="T" xOffset="1"/>
  </outline>
</glyph>
<glyph name="schwahook" format="2">
  <advance width="472"/>
  <unicode hex="025A"/>
  <anchor x="136" y="0" name="bottom"/>
  <anchor x="222" y="536" name="top"/>
  <outline>
    <contour>
      <point x="102" y="-10" type="curve" smooth="yes"/>
      <point x="219" y="-10"/>
      <point x="299" y="131"/>
      <point x="314" y="295" type="curve"/>
      <point x="367" y="315" type="line"/>
      <point x="375" y="289" type="line" smooth="yes"/>
      <point x="387" y="250"/>
      <point x="402" y="230"/>
      <point x="429" y="230" type="curve" smooth="yes"/>
      <point x="450" y="230"/>
      <point x="464" y="243"/>
      <point x="464" y="260" type="curve" smooth="yes"/>
      <point x="464" y="270"/>
      <point x="459" y="278"/>
      <point x="453" y="282" type="curve"/>
      <point x="450" y="269"/>
      <point x="440" y="256"/>
      <point x="423" y="256" type="curve" smooth="yes"/>
      <point x="399" y="256"/>
      <point x="387" y="274"/>
      <point x="379" y="302" type="curve" smooth="yes"/>
      <point x="373" y="324" type="line"/>
      <point x="314" y="303" type="line"/>
      <point x="314" y="454"/>
      <point x="297" y="546"/>
      <point x="196" y="546" type="curve" smooth="yes"/>
      <point x="120" y="546"/>
      <point x="80" y="480"/>
      <point x="80" y="451" type="curve" smooth="yes"/>
      <point x="80" y="442"/>
      <point x="84" y="436"/>
      <point x="89" y="436" type="curve"/>
      <point x="110" y="487"/>
      <point x="147" y="536"/>
      <point x="197" y="536" type="curve" smooth="yes"/>
      <point x="264" y="536"/>
      <point x="284" y="455"/>
      <point x="284" y="337" type="curve" smooth="yes"/>
      <point x="284" y="322"/>
      <point x="284" y="307"/>
      <point x="283" y="292" type="curve"/>
      <point x="90" y="224"/>
      <point x="21" y="170"/>
      <point x="21" y="79" type="curve" smooth="yes"/>
      <point x="21" y="18"/>
      <point x="52" y="-10"/>
    </contour>
    <contour>
      <point x="107" y="0" type="curve" smooth="yes"/>
      <point x="75" y="0"/>
      <point x="49" y="25"/>
      <point x="49" y="82" type="curve" smooth="yes"/>
      <point x="49" y="166"/>
      <point x="109" y="224"/>
      <point x="282" y="284" type="curve"/>
      <point x="273" y="156"/>
      <point x="194" y="0"/>
    </contour>
  </outline>
</glyph>
<glyph name="eopenreversedhook" format="2">
  <advance width="446"/>
  <unicode hex="025D"/>
  <anchor x="129" y="0" name="bottom"/>
  <anchor x="203" y="536" name="top"/>
  <outline>
    <contour>
      <point x="421" y="318" type="curve" smooth="yes"/>
      <point x="442" y="318"/>
      <point x="456" y="331"/>
      <point x="456" y="348" type="curve" smooth="yes"/>
      <point x="456" y="358"/>
      <point x="451" y="366"/>
      <point x="445" y="370" type="curve"/>
      <point x="442" y="357"/>
      <point x="432" y="344"/>
      <point x="415" y="344" type="curve" smooth="yes"/>
      <point x="391" y="344"/>
      <point x="379" y="362"/>
      <point x="371" y="390" type="curve" smooth="yes"/>
      <point x="365" y="412" type="line"/>
      <point x="292" y="383" type="line"/>
      <point x="292" y="375" type="line"/>
      <point x="359" y="403" type="line"/>
      <point x="367" y="377" type="line" smooth="yes"/>
      <point x="379" y="338"/>
      <point x="394" y="318"/>
    </contour>
    <component base="afii10073"/>
  </outline>
</glyph>
<glyph name="rlongleg" format="2">
  <advance width="300"/>
  <unicode hex="027C"/>
  <anchor x="23" y="-240" name="bottom"/>
  <anchor x="188" y="536" name="top"/>
  <outline>
    <contour>
      <point x="-34" y="-240" type="line"/>
      <point x="-6" y="-240" type="line"/>
      <point x="113" y="318" type="line" smooth="yes"/>
      <point x="134" y="415"/>
      <point x="191" y="534"/>
      <point x="256" y="534" type="curve" smooth="yes"/>
      <point x="292" y="534"/>
      <point x="289" y="500"/>
      <point x="289" y="458" type="curve"/>
      <point x="308" y="458"/>
      <point x="316" y="471"/>
      <point x="316" y="490" type="curve" smooth="yes"/>
      <point x="316" y="517"/>
      <point x="301" y="546"/>
      <point x="262" y="546" type="curve" smooth="yes"/>
      <point x="208" y="546"/>
      <point x="164" y="489"/>
      <point x="132" y="405" type="curve"/>
      <point x="130" y="405" type="line"/>
      <point x="155" y="536" type="line"/>
      <point x="58" y="536" type="line"/>
      <point x="55" y="526" type="line"/>
      <point x="68" y="526" type="line" smooth="yes"/>
      <point x="101" y="526"/>
      <point x="118" y="522"/>
      <point x="118" y="493" type="curve" smooth="yes"/>
      <point x="118" y="483"/>
      <point x="116" y="466"/>
      <point x="111" y="442" type="curve" smooth="yes"/>
    </contour>
  </outline>
</glyph>
<glyph name="rfishhookreversed" format="2">
  <advance width="224"/>
  <unicode hex="027F"/>
  <anchor x="-12" y="-240" name="bottom"/>
  <anchor x="153" y="536" name="top"/>
  <outline>
    <contour>
      <point x="22" y="-240" type="line"/>
      <point x="50" y="-240" type="line"/>
      <point x="167" y="296" type="line" smooth="yes"/>
      <point x="183" y="369"/>
      <point x="187" y="391"/>
      <point x="187" y="431" type="curve" smooth="yes"/>
      <point x="187" y="501"/>
      <point x="154" y="542"/>
      <point x="98" y="542" type="curve" smooth="yes"/>
      <point x="53" y="542"/>
      <point x="23" y="516"/>
      <point x="23" y="479" type="curve" smooth="yes"/>
      <point x="23" y="463"/>
      <point x="32" y="452"/>
      <point x="46" y="450" type="curve"/>
      <point x="46" y="514"/>
      <point x="69" y="532"/>
      <point x="103" y="532" type="curve" smooth="yes"/>
      <point x="140" y="532"/>
      <point x="161" y="505"/>
      <point x="161" y="446" type="curve" smooth="yes"/>
      <point x="161" y="399"/>
      <point x="154" y="363"/>
      <point x="144" y="316" type="curve" smooth="yes"/>
    </contour>
  </outline>
</glyph>
<glyph name="eshsquatreversed" format="2">
  <advance width="176"/>
  <unicode hex="0285"/>
  <anchor x="-59" y="-240" name="bottom"/>
  <anchor x="106" y="536" name="top"/>
  <outline>
    <contour>
      <point x="96" y="-240" type="curve" smooth="yes"/>
      <point x="146" y="-240"/>
      <point x="175" y="-211"/>
      <point x="175" y="-173" type="curve" smooth="yes"/>
      <point x="175" y="-154"/>
      <point x="165" y="-142"/>
      <point x="153" y="-141" type="curve"/>
      <point x="153" y="-205"/>
      <point x="132" y="-230"/>
      <point x="94" y="-230" type="curve" smooth="yes"/>
      <point x="62" y="-230"/>
      <point x="43" y="-212"/>
      <point x="43" y="-172" type="curve" smooth="yes"/>
      <point x="43" y="-140"/>
      <point x="58" y="-74"/>
      <point x="66" y="-36" type="curve" smooth="yes"/>
      <point x="135" y="288" type="line" smooth="yes"/>
      <point x="151" y="361"/>
      <point x="157" y="395"/>
      <point x="157" y="435" type="curve" smooth="yes"/>
      <point x="157" y="505"/>
      <point x="128" y="546"/>
      <point x="78" y="546" type="curve" smooth="yes"/>
      <point x="39" y="546"/>
      <point x="13" y="520"/>
      <point x="13" y="483" type="curve" smooth="yes"/>
      <point x="13" y="467"/>
      <point x="22" y="456"/>
      <point x="36" y="454" type="curve"/>
      <point x="36" y="516"/>
      <point x="53" y="536"/>
      <point x="81" y="536" type="curve" smooth="yes"/>
      <point x="112" y="536"/>
      <point x="130" y="504"/>
      <point x="130" y="450" type="curve" smooth="yes"/>
      <point x="130" y="403"/>
      <point x="124" y="365"/>
      <point x="114" y="318" type="curve" smooth="yes"/>
      <point x="43" y="-16" type="line" smooth="yes"/>
      <point x="35" y="-53"/>
      <point x="19" y="-116"/>
      <point x="19" y="-154" type="curve" smooth="yes"/>
      <point x="19" y="-207"/>
      <point x="48" y="-240"/>
    </contour>
  </outline>
</glyph>
<glyph name="eshcurl" format="2">
  <advance width="167"/>
  <unicode hex="0286"/>
  <anchor x="-34" y="-240" name="bottom"/>
  <anchor x="181" y="770" name="top"/>
  <outline>
    <contour>
      <point x="-85" y="-240" type="curve" smooth="yes"/>
      <point x="-9" y="-240"/>
      <point x="8" y="-146"/>
      <point x="21" y="-76" type="curve"/>
      <point x="50" y="-92"/>
      <point x="74" y="-121"/>
      <point x="100" y="-170" type="curve"/>
      <point x="109" y="-165" type="line"/>
      <point x="83" y="-117"/>
      <point x="57" y="-83"/>
      <point x="23" y="-65" type="curve"/>
      <point x="25" y="-59"/>
      <point x="26" y="-53"/>
      <point x="27" y="-47" type="curve"/>
      <point x="177" y="654" type="line" smooth="yes"/>
      <point x="198" y="750"/>
      <point x="231" y="760"/>
      <point x="249" y="760" type="curve" smooth="yes"/>
      <point x="276" y="760"/>
      <point x="282" y="727"/>
      <point x="282" y="682" type="curve"/>
      <point x="297" y="685"/>
      <point x="307" y="698"/>
      <point x="307" y="717" type="curve" smooth="yes"/>
      <point x="307" y="748"/>
      <point x="284" y="770"/>
      <point x="249" y="770" type="curve" smooth="yes"/>
      <point x="207" y="770"/>
      <point x="167" y="743"/>
      <point x="143" y="628" type="curve" smooth="yes"/>
      <point x="-1" y="-56" type="line"/>
      <point x="-14" y="-53"/>
      <point x="-27" y="-51"/>
      <point x="-41" y="-51" type="curve" smooth="yes"/>
      <point x="-108" y="-51"/>
      <point x="-153" y="-92"/>
      <point x="-153" y="-159" type="curve" smooth="yes"/>
      <point x="-153" y="-199"/>
      <point x="-137" y="-240"/>
    </contour>
    <contour>
      <point x="-86" y="-230" type="curve" smooth="yes"/>
      <point x="-124" y="-230"/>
      <point x="-139" y="-198"/>
      <point x="-139" y="-157" type="curve" smooth="yes"/>
      <point x="-139" y="-87"/>
      <point x="-94" y="-61"/>
      <point x="-42" y="-61" type="curve" smooth="yes"/>
      <point x="-28" y="-61"/>
      <point x="-16" y="-63"/>
      <point x="-3" y="-66" type="curve"/>
      <point x="-19" y="-145"/>
      <point x="-34" y="-230"/>
    </contour>
  </outline>
</glyph>
<glyph name="ezhcurl" format="2">
  <advance width="435"/>
  <unicode hex="0293"/>
  <anchor x="100" y="-240" name="bottom"/>
  <anchor x="265" y="536" name="top"/>
  <outline>
    <contour>
      <point x="91" y="-240" type="curve" smooth="yes"/>
      <point x="177" y="-240"/>
      <point x="248" y="-181"/>
      <point x="284" y="-99" type="curve"/>
      <point x="308" y="-117"/>
      <point x="329" y="-141"/>
      <point x="347" y="-170" type="curve"/>
      <point x="355" y="-165" type="line"/>
      <point x="337" y="-133"/>
      <point x="314" y="-107"/>
      <point x="288" y="-87" type="curve"/>
      <point x="301" y="-54"/>
      <point x="308" y="-17"/>
      <point x="308" y="21" type="curve" smooth="yes"/>
      <point x="308" y="140"/>
      <point x="245" y="206"/>
      <point x="148" y="212" type="curve"/>
      <point x="386" y="526" type="line"/>
      <point x="388" y="536" type="line"/>
      <point x="128" y="536" type="line"/>
      <point x="95" y="431" type="line"/>
      <point x="105" y="431" type="line"/>
      <point x="109" y="442" type="line" smooth="yes"/>
      <point x="134" y="510"/>
      <point x="138" y="511"/>
      <point x="180" y="511" type="curve" smooth="yes"/>
      <point x="363" y="511" type="line"/>
      <point x="129" y="208" type="line"/>
      <point x="125" y="186" type="line"/>
      <point x="134" y="186" type="line" smooth="yes"/>
      <point x="225" y="186"/>
      <point x="277" y="121"/>
      <point x="277" y="21" type="curve" smooth="yes"/>
      <point x="277" y="-10"/>
      <point x="272" y="-42"/>
      <point x="263" y="-71" type="curve"/>
      <point x="231" y="-53"/>
      <point x="195" y="-44"/>
      <point x="155" y="-44" type="curve" smooth="yes"/>
      <point x="47" y="-44"/>
      <point x="-8" y="-95"/>
      <point x="-8" y="-154" type="curve" smooth="yes"/>
      <point x="-8" y="-214"/>
      <point x="31" y="-240"/>
    </contour>
    <contour>
      <point x="92" y="-230" type="curve" smooth="yes"/>
      <point x="29" y="-230"/>
      <point x="5" y="-200"/>
      <point x="5" y="-154" type="curve" smooth="yes"/>
      <point x="5" y="-105"/>
      <point x="52" y="-54"/>
      <point x="156" y="-54" type="curve" smooth="yes"/>
      <point x="192" y="-54"/>
      <point x="227" y="-64"/>
      <point x="259" y="-83" type="curve"/>
      <point x="231" y="-165"/>
      <point x="169" y="-230"/>
    </contour>
  </outline>
</glyph>
<glyph name="cstretched" format="2">
  <advance width="357"/>
  <unicode hex="0297"/>
  <anchor x="34" y="-240" name="bottom"/>
  <anchor x="199" y="536" name="top"/>
  <outline>
    <contour>
      <point x="129" y="-240" type="curve" smooth="yes"/>
      <point x="212" y="-240"/>
      <point x="238" y="-175"/>
      <point x="238" y="-144" type="curve" smooth="yes"/>
      <point x="238" y="-136"/>
      <point x="234" y="-130"/>
      <point x="229" y="-130" type="curve"/>
      <point x="210" y="-181"/>
      <point x="185" y="-230"/>
      <point x="130" y="-230" type="curve" smooth="yes"/>
      <point x="61" y="-230"/>
      <point x="27" y="-155"/>
      <point x="27" y="6" type="curve" smooth="yes"/>
      <point x="27" y="228"/>
      <point x="124" y="536"/>
      <point x="253" y="536" type="curve" smooth="yes"/>
      <point x="296" y="536"/>
      <point x="312" y="495"/>
      <point x="312" y="413" type="curve"/>
      <point x="329" y="413"/>
      <point x="339" y="425"/>
      <point x="339" y="443" type="curve" smooth="yes"/>
      <point x="339" y="493"/>
      <point x="318" y="546"/>
      <point x="256" y="546" type="curve" smooth="yes"/>
      <point x="100" y="546"/>
      <point x="-1" y="238"/>
      <point x="-1" y="6" type="curve" smooth="yes"/>
      <point x="-1" y="-164"/>
      <point x="46" y="-240"/>
    </contour>
  </outline>
</glyph>
<glyph name="qhook" format="2">
  <advance width="316"/>
  <unicode hex="02A0"/>
  <anchor x="111" y="-240" name="bottom"/>
  <anchor x="326" y="770" name="top"/>
  <outline>
    <contour>
      <point x="186" y="-240" type="line"/>
      <point x="287" y="-240" type="line"/>
      <point x="289" y="-230" type="line"/>
      <point x="272" y="-230" type="line" smooth="yes"/>
      <point x="239" y="-230"/>
      <point x="224" y="-229"/>
      <point x="224" y="-206" type="curve" smooth="yes"/>
      <point x="224" y="-196"/>
      <point x="227" y="-185"/>
      <point x="231" y="-164" type="curve" smooth="yes"/>
      <point x="399" y="644" type="line" smooth="yes"/>
      <point x="417" y="731"/>
      <point x="436" y="760"/>
      <point x="470" y="760" type="curve" smooth="yes"/>
      <point x="503" y="760"/>
      <point x="514" y="727"/>
      <point x="514" y="676" type="curve"/>
      <point x="533" y="678"/>
      <point x="544" y="690"/>
      <point x="544" y="709" type="curve" smooth="yes"/>
      <point x="544" y="743"/>
      <point x="516" y="770"/>
      <point x="470" y="770" type="curve" smooth="yes"/>
      <point x="415" y="770"/>
      <point x="390" y="726"/>
      <point x="372" y="636" type="curve" smooth="yes"/>
      <point x="347" y="512" type="line"/>
      <point x="328" y="537"/>
      <point x="308" y="546"/>
      <point x="279" y="546" type="curve" smooth="yes"/>
      <point x="130" y="546"/>
      <point x="41" y="303"/>
      <point x="41" y="142" type="curve" smooth="yes"/>
      <point x="41" y="47"/>
      <point x="72" y="-10"/>
      <point x="129" y="-10" type="curve" smooth="yes"/>
      <point x="198" y="-10"/>
      <point x="243" y="73"/>
      <point x="275" y="158" type="curve"/>
      <point x="278" y="158" type="line"/>
      <point x="266" y="109"/>
      <point x="252" y="63"/>
      <point x="242" y="18" type="curve" smooth="yes"/>
    </contour>
    <contour>
      <point x="137" y="3" type="curve" smooth="yes"/>
      <point x="95" y="3"/>
      <point x="69" y="53"/>
      <point x="69" y="137" type="curve" smooth="yes"/>
      <point x="69" y="283"/>
      <point x="148" y="536"/>
      <point x="278" y="536" type="curve" smooth="yes"/>
      <point x="311" y="536"/>
      <point x="335" y="520"/>
      <point x="343" y="499" type="curve"/>
      <point x="298" y="272" type="line" smooth="yes"/>
      <point x="270" y="131"/>
      <point x="204" y="3"/>
    </contour>
  </outline>
</glyph>
<glyph name="circumflex" format="2">
  <advance width="263"/>
  <unicode hex="02C6"/>
  <outline>
    <contour>
      <point x="113" y="606" type="line"/>
      <point x="122" y="606" type="line"/>
      <point x="169" y="656"/>
      <point x="193" y="685"/>
      <point x="226" y="738" type="curve"/>
      <point x="239" y="689"/>
      <point x="255" y="656"/>
      <point x="287" y="606" type="curve"/>
      <point x="295" y="606" type="line"/>
      <point x="296" y="614" type="line"/>
      <point x="274" y="652"/>
      <point x="247" y="721"/>
      <point x="244" y="766" type="curve"/>
      <point x="215" y="766" type="line"/>
      <point x="195" y="721"/>
      <point x="149" y="652"/>
      <point x="114" y="614" type="curve"/>
    </contour>
  </outline>
</glyph>
<glyph name="breve" format="2">
  <advance width="273"/>
  <unicode hex="02D8"/>
  <outline>
    <contour>
      <point x="213" y="608" type="curve" smooth="yes"/>
      <point x="270" y="608"/>
      <point x="312" y="652"/>
      <point x="328" y="717" type="curve"/>
      <point x="315" y="717" type="line"/>
      <point x="295" y="662"/>
      <point x="260" y="633"/>
      <point x="218" y="633" type="curve" smooth="yes"/>
      <point x="172" y="633"/>
      <point x="148" y="662"/>
      <point x="148" y="717" type="curve"/>
      <point x="135" y="717" type="line"/>
      <point x="135" y="648"/>
      <point x="157" y="608"/>
    </contour>
  </outline>
</glyph>
<glyph name="dotaccent" format="2">
  <advance width="129"/>
  <unicode hex="02D9"/>
  <outline>
    <contour>
      <point x="157" y="681" type="curve" smooth="yes"/>
      <point x="173" y="681"/>
      <point x="183" y="695"/>
      <point x="183" y="715" type="curve" smooth="yes"/>
      <point x="183" y="733"/>
      <point x="174" y="741"/>
      <point x="162" y="741" type="curve" smooth="yes"/>
      <point x="145" y="741"/>
      <point x="135" y="726"/>
      <point x="135" y="708" type="curve" smooth="yes"/>
      <point x="135" y="689"/>
      <point x="145" y="681"/>
    </contour>
  </outline>
</glyph>
<glyph name="ring" format="2">
  <advance width="263"/>
  <unicode hex="02DA"/>
  <outline>
    <contour>
      <point x="225" y="615" type="curve" smooth="yes"/>
      <point x="276" y="615"/>
      <point x="316" y="649"/>
      <point x="316" y="705" type="curve" smooth="yes"/>
      <point x="316" y="765"/>
      <point x="276" y="797"/>
      <point x="224" y="797" type="curve" smooth="yes"/>
      <point x="172" y="797"/>
      <point x="132" y="762"/>
      <point x="132" y="706" type="curve" smooth="yes"/>
      <point x="132" y="651"/>
      <point x="172" y="615"/>
    </contour>
    <contour>
      <point x="225" y="625" type="curve" smooth="yes"/>
      <point x="181" y="625"/>
      <point x="143" y="652"/>
      <point x="143" y="706" type="curve" smooth="yes"/>
      <point x="143" y="759"/>
      <point x="178" y="787"/>
      <point x="224" y="787" type="curve" smooth="yes"/>
      <point x="270" y="787"/>
      <point x="305" y="758"/>
      <point x="305" y="705" type="curve" smooth="yes"/>
      <point x="305" y="653"/>
      <point x="270" y="625"/>
    </contour>
  </outline>
</glyph>
